{"glyphs":{"0":{"ha":1127,"x_min":88,"x_max":1039,"o":"m 740 960 q 951 872 864 960 q 1039 661 1039 785 l 1039 298 q 951 87 1039 175 q 740 0 864 0 l 387 0 q 176 87 264 0 q 88 298 88 175 l 88 661 q 176 872 88 785 q 387 960 264 960 l 740 960 m 931 661 q 876 796 931 740 q 740 852 819 852 l 387 852 q 252 796 308 852 q 196 661 196 740 l 196 298 q 252 163 196 220 q 387 107 308 107 l 740 107 q 876 163 819 107 q 931 298 931 220 l 931 661 z "},"1":{"ha":492,"x_min":7,"x_max":404,"o":"m 350 954 q 404 875 404 933 l 404 0 l 296 0 l 296 805 l 93 532 l 7 597 l 254 928 q 296 957 270 949 q 319 960 307 960 q 350 954 334 960 z "},"2":{"ha":1156,"x_min":88,"x_max":1068,"o":"m 196 107 l 1068 108 l 1068 0 l 88 0 l 88 369 q 141 496 88 444 q 269 550 194 550 l 894 550 q 941 569 922 550 q 960 616 960 589 l 960 786 q 941 833 960 813 q 894 852 922 852 l 112 852 l 112 960 l 894 960 q 1017 909 966 960 q 1068 786 1068 858 l 1068 616 q 1017 493 1068 544 q 894 442 966 442 l 269 442 q 217 420 239 442 q 196 369 196 399 l 196 107 z "},"3":{"ha":1065,"x_min":88,"x_max":977,"o":"m 802 960 q 926 909 874 960 q 977 786 977 858 l 977 616 q 928 496 977 547 q 977 376 977 446 l 977 174 q 926 51 977 102 q 802 0 874 0 l 88 0 l 88 107 l 802 107 q 849 127 830 107 q 869 174 869 146 l 869 376 q 849 422 869 404 q 802 442 830 442 l 124 442 l 124 550 l 802 550 q 849 569 830 550 q 869 616 869 589 l 869 786 q 849 833 869 813 q 802 852 830 852 l 88 852 l 88 960 l 802 960 z "},"4":{"ha":1369,"x_min":88,"x_max":1281,"o":"m 1078 322 l 1281 322 l 1281 214 l 1078 214 l 1078 0 l 970 0 l 970 214 l 173 214 q 94 269 114 214 q 88 300 88 284 q 92 323 88 311 q 122 366 100 350 l 942 943 q 993 960 967 960 q 1028 952 1010 960 q 1078 876 1078 929 l 1078 322 m 974 838 l 244 328 l 974 328 l 974 838 z "},"5":{"ha":1156,"x_min":88,"x_max":1068,"o":"m 1068 852 l 196 852 l 196 550 l 894 550 q 1017 499 966 550 q 1068 376 1068 448 l 1068 174 q 1017 51 1068 102 q 894 0 966 0 l 88 0 l 88 107 l 894 107 q 941 127 922 107 q 960 174 960 146 l 960 376 q 941 423 960 404 q 894 442 922 442 l 88 442 l 88 960 l 1068 960 l 1068 852 z "},"6":{"ha":1065,"x_min":88,"x_max":977,"o":"m 88 786 q 140 909 88 858 q 262 960 191 960 l 977 960 l 977 852 l 262 852 q 216 833 235 852 q 196 786 196 813 l 196 550 l 802 550 q 926 499 874 550 q 977 376 977 448 l 977 174 q 926 51 977 102 q 802 0 874 0 l 262 0 q 140 51 191 0 q 88 174 88 102 l 88 786 m 196 442 l 196 174 q 216 127 196 146 q 262 107 235 107 l 802 107 q 849 127 830 107 q 869 174 869 146 l 869 376 q 849 422 869 404 q 802 442 830 442 l 196 442 z "},"7":{"ha":1128,"x_min":88,"x_max":1040,"o":"m 951 981 q 1027 940 1002 981 q 1040 897 1040 918 q 1023 848 1040 872 l 408 0 l 321 63 l 908 874 l 88 874 l 88 981 l 951 981 z "},"8":{"ha":1110,"x_min":88,"x_max":1022,"o":"m 848 960 q 971 909 920 960 q 1022 786 1022 858 l 1022 616 q 974 496 1022 547 q 1022 376 1022 446 l 1022 174 q 971 51 1022 102 q 848 0 920 0 l 262 0 q 140 51 191 0 q 88 174 88 102 l 88 376 q 137 496 88 446 q 88 616 88 547 l 88 786 q 140 909 88 858 q 262 960 191 960 l 848 960 m 196 616 q 216 570 196 589 q 262 550 235 550 l 848 550 q 895 570 876 550 q 915 616 915 589 l 915 786 q 895 833 915 813 q 848 852 876 852 l 262 852 q 216 833 235 852 q 196 786 196 813 l 196 616 m 915 376 q 895 422 915 404 q 848 442 876 442 l 262 442 q 216 422 235 442 q 196 376 196 404 l 196 174 q 216 127 196 146 q 262 107 235 107 l 848 107 q 895 127 876 107 q 915 174 915 146 l 915 376 z "},"9":{"ha":1065,"x_min":88,"x_max":977,"o":"m 802 960 q 926 909 874 960 q 977 786 977 858 l 977 174 q 926 51 977 102 q 802 0 874 0 l 88 0 l 88 107 l 802 107 q 849 127 830 107 q 869 174 869 146 l 869 410 l 262 410 q 140 460 191 410 q 88 584 88 511 l 88 786 q 140 909 88 858 q 262 960 191 960 l 802 960 m 869 786 q 849 833 869 813 q 802 852 830 852 l 262 852 q 216 833 235 852 q 196 786 196 813 l 196 584 q 216 536 196 556 q 262 517 235 517 l 869 517 l 869 786 z "},"\u0000":{"ha":176,"x_min":0,"x_max":0,"o":""},"\u001d":{"ha":176,"x_min":0,"x_max":0,"o":""}," ":{"ha":475,"x_min":0,"x_max":0,"o":""}," ":{"ha":475,"x_min":0,"x_max":0,"o":""},"!":{"ha":298,"x_min":95,"x_max":203,"o":"m 95 960 l 203 960 l 203 299 l 95 299 l 95 960 m 95 109 l 203 109 l 203 0 l 95 0 l 95 109 z "},"\"":{"ha":488,"x_min":88,"x_max":399,"o":"m 88 959 l 196 959 l 196 789 l 176 661 l 109 661 l 88 789 l 88 959 m 292 959 l 399 959 l 399 789 l 379 661 l 312 661 l 292 789 l 292 959 z "},"#":{"ha":1241,"x_min":88,"x_max":1153,"o":"m 902 577 l 861 395 l 1147 395 l 1147 287 l 836 287 l 770 0 l 666 24 l 726 287 l 444 287 l 378 0 l 273 24 l 333 287 l 90 287 l 90 395 l 357 395 l 399 577 l 88 577 l 88 685 l 423 685 l 491 981 l 596 958 l 534 685 l 816 685 l 884 981 l 988 958 l 926 685 l 1153 685 l 1153 577 l 902 577 m 750 395 l 791 577 l 509 577 l 468 395 l 750 395 z "},"$":{"ha":1156,"x_min":88,"x_max":1067,"o":"m 886 550 q 1015 496 962 550 q 1067 369 1067 444 l 1067 181 q 1015 54 1067 106 q 886 1 962 1 l 631 1 l 631 -98 l 524 -98 l 524 1 l 109 1 l 109 108 l 524 108 l 524 442 l 262 442 q 139 493 190 442 q 88 616 88 544 l 88 785 q 139 909 88 857 q 262 960 190 960 l 524 960 l 524 1058 l 631 1058 l 631 960 l 1000 960 l 1000 852 l 631 852 l 631 550 l 886 550 m 524 550 l 524 852 l 262 852 q 215 832 235 852 q 195 785 195 813 l 195 616 q 215 569 195 589 q 262 550 235 550 l 524 550 m 960 369 q 939 420 960 399 q 886 442 917 442 l 631 442 l 631 108 l 886 108 q 939 130 917 108 q 960 181 960 151 l 960 369 z "},"%":{"ha":1531,"x_min":75,"x_max":1457,"o":"m 477 994 q 633 945 568 994 q 699 823 699 895 l 699 633 q 633 511 699 562 q 477 463 568 463 l 298 463 q 141 511 207 463 q 75 633 75 562 l 75 823 q 141 945 75 895 q 298 994 207 994 l 477 994 m 597 823 q 564 884 597 858 q 477 910 528 910 l 298 910 q 211 884 246 910 q 177 823 177 858 l 177 633 q 211 573 177 598 q 298 546 246 546 l 477 546 q 564 573 528 546 q 597 633 597 598 l 597 823 m 340 -41 l 1076 993 l 1192 993 l 456 -41 l 340 -41 m 1234 497 q 1390 448 1325 497 q 1457 326 1457 398 l 1457 136 q 1390 15 1457 64 q 1234 -34 1325 -34 l 1055 -34 q 899 15 964 -34 q 832 136 832 64 l 832 326 q 899 448 832 398 q 1055 497 964 497 l 1234 497 m 1354 326 q 1321 387 1354 361 q 1234 414 1285 414 l 1055 414 q 968 387 1004 414 q 935 326 935 361 l 935 136 q 968 76 935 102 q 1055 50 1004 50 l 1234 50 q 1321 76 1285 50 q 1354 136 1354 102 l 1354 326 z "},"&":{"ha":1198,"x_min":88,"x_max":1110,"o":"m 1110 550 l 1110 442 l 1008 442 q 1022 376 1022 410 l 1022 174 q 971 51 1022 102 q 848 0 920 0 l 262 0 q 139 51 190 0 q 88 174 88 102 l 88 376 q 136 496 88 446 q 88 616 88 547 l 88 786 q 139 909 88 858 q 262 960 190 960 l 810 960 l 810 852 l 262 852 q 215 833 235 852 q 196 786 196 813 l 196 616 q 215 570 196 589 q 262 550 235 550 l 1110 550 m 914 376 q 895 422 914 404 q 848 442 876 442 l 262 442 q 215 422 235 442 q 196 376 196 404 l 196 174 q 215 127 196 146 q 262 107 235 107 l 848 107 q 895 127 876 107 q 914 174 914 146 l 914 376 z "},"'":{"ha":284,"x_min":88,"x_max":196,"o":"m 88 959 l 196 959 l 196 789 l 176 661 l 109 661 l 88 789 l 88 959 z "},"(":{"ha":475,"x_min":88,"x_max":387,"o":"m 88 714 q 160 888 88 816 q 334 960 232 960 l 387 960 l 387 852 l 334 852 q 236 812 277 852 q 195 714 195 771 l 195 -26 q 236 -123 195 -83 q 334 -164 277 -164 l 387 -164 l 387 -271 l 334 -271 q 160 -199 232 -271 q 88 -26 88 -127 l 88 714 z "},")":{"ha":475,"x_min":88,"x_max":387,"o":"m 387 -26 q 315 -199 387 -127 q 142 -271 243 -271 l 88 -271 l 88 -164 l 142 -164 q 239 -123 199 -164 q 280 -26 280 -83 l 280 714 q 239 812 280 771 q 142 852 199 852 l 88 852 l 88 960 l 142 960 q 315 888 243 960 q 387 714 387 816 l 387 -26 z "},"*":{"ha":680,"x_min":88,"x_max":592,"o":"m 562 853 l 592 749 l 433 704 l 530 585 l 448 517 l 340 648 l 233 517 l 150 585 l 247 704 l 88 749 l 118 853 l 286 804 l 286 960 l 394 960 l 394 804 l 562 853 z "},"+":{"ha":917,"x_min":88,"x_max":829,"o":"m 513 530 l 829 530 l 829 422 l 513 422 l 513 142 l 405 142 l 405 422 l 88 422 l 88 530 l 405 530 l 405 811 l 513 811 l 513 530 z "},",":{"ha":285,"x_min":88,"x_max":197,"o":"m 122 0 l 88 0 l 88 109 l 197 109 l 197 -129 l 142 -129 q 122 0 142 -54 z "},"-":{"ha":713,"x_min":88,"x_max":625,"o":"m 88 535 l 625 535 l 625 427 l 88 427 l 88 535 z "},"­":{"ha":713,"x_min":88,"x_max":625,"o":"m 88 535 l 625 535 l 625 427 l 88 427 l 88 535 z "},".":{"ha":1049,"x_min":68,"x_max":973,"o":"m 68 -56 l 68 1104 l 973 1104 l 973 -56 l 68 -56 m 112 -15 l 928 -15 l 928 1063 l 112 1063 l 112 -15 m 178 932 l 197 932 q 225 896 217 932 q 227 872 227 880 l 227 869 l 211 869 l 211 871 q 197 894 208 894 l 176 894 q 163 875 168 894 q 174 856 167 856 q 183 854 174 854 l 199 854 q 231 817 218 854 q 233 783 233 802 q 207 715 233 731 q 197 713 201 713 l 184 713 q 151 754 160 713 l 151 791 l 162 791 q 173 757 162 772 q 183 751 179 751 l 199 751 q 212 762 204 751 q 218 783 218 775 l 218 785 q 197 816 214 816 q 193 817 197 817 l 177 817 q 151 846 157 817 l 151 901 q 178 932 157 932 m 256 932 l 271 932 l 271 874 l 285 874 l 285 836 l 271 836 l 271 725 q 284 690 271 698 q 290 689 287 689 l 290 652 l 287 652 q 257 698 264 652 q 256 711 256 702 l 256 836 l 244 836 l 244 874 l 256 874 l 256 932 m 441 932 l 456 932 l 456 713 l 441 713 l 441 718 q 430 713 434 713 l 414 713 q 386 757 389 713 l 386 832 q 406 873 386 859 l 412 874 l 427 874 q 441 869 436 874 l 441 932 m 474 932 l 489 932 l 489 894 l 474 894 l 474 932 m 587 932 l 680 932 l 680 894 l 640 894 l 640 713 l 625 713 l 625 894 l 587 894 l 587 932 m 541 875 l 545 875 q 569 861 564 875 q 578 825 578 849 l 578 764 q 557 715 578 726 q 551 713 555 713 l 535 713 q 507 758 511 713 l 507 830 q 527 873 507 860 q 541 875 533 875 m 875 875 l 879 875 q 903 861 898 875 q 909 848 909 854 l 909 741 q 885 713 901 713 l 869 713 q 841 757 846 713 l 841 830 q 861 873 841 860 q 875 875 867 875 m 300 874 l 316 874 l 316 773 q 328 751 316 755 l 345 751 q 357 777 355 751 l 357 874 l 372 874 l 372 713 l 357 713 l 357 718 q 345 713 350 713 l 329 713 q 300 751 307 713 l 300 874 m 474 874 l 489 874 l 489 713 l 474 713 l 474 874 m 671 874 l 686 874 l 686 779 q 702 751 686 751 l 713 751 q 728 772 726 751 l 728 874 l 743 874 l 743 703 q 718 652 742 658 l 671 652 l 671 690 l 710 690 q 728 713 728 690 l 728 718 q 709 712 722 712 l 706 712 q 679 728 685 712 q 671 773 671 738 l 671 874 m 758 874 l 772 874 l 772 869 q 783 874 778 874 l 799 874 q 827 828 823 874 l 827 769 q 808 718 827 728 q 797 715 805 715 l 788 715 q 772 720 778 715 l 772 656 l 758 656 l 758 874 m 522 814 l 522 773 q 534 751 522 756 l 551 751 q 563 774 563 755 l 563 813 q 546 837 563 837 l 536 837 q 526 830 529 837 q 522 814 522 823 m 772 773 q 787 753 772 755 l 795 753 q 811 764 807 753 q 812 774 812 771 l 812 814 q 799 837 810 837 l 787 837 q 772 817 774 837 l 772 773 m 856 814 l 856 773 q 869 751 856 756 l 885 751 q 897 774 897 755 l 897 813 q 880 837 897 837 l 871 837 q 860 830 863 837 q 856 814 856 823 m 400 814 l 400 772 q 413 751 403 751 l 429 751 q 441 780 441 751 l 441 805 q 432 835 441 829 l 428 836 l 413 836 q 400 814 400 832 m 319 696 l 325 696 l 325 684 l 329 684 q 336 673 336 684 l 336 651 l 330 651 l 330 671 q 328 676 330 675 l 327 676 q 325 670 325 676 l 325 651 l 319 651 l 319 696 m 530 696 l 535 696 l 535 684 l 539 684 q 546 669 546 684 l 546 651 l 540 651 l 540 675 l 536 676 l 535 673 l 535 651 l 530 651 l 530 696 m 621 696 l 627 696 l 627 684 l 630 684 l 630 676 l 627 676 l 627 665 q 631 660 627 660 l 631 651 l 630 651 q 621 663 623 651 l 621 676 l 619 676 l 619 684 l 621 684 l 621 696 m 305 684 l 313 684 q 316 677 315 684 l 316 675 l 311 673 q 309 676 311 676 l 309 676 q 307 673 307 676 l 307 664 l 307 660 l 309 660 q 311 663 311 660 l 316 661 l 316 659 q 309 651 315 651 q 300 660 300 652 l 300 675 q 305 684 300 681 m 345 684 l 349 684 q 356 667 356 684 q 347 651 356 651 q 340 661 340 652 l 340 675 q 345 684 340 682 m 364 684 l 370 684 q 376 675 376 681 l 376 660 q 367 651 376 652 q 359 665 359 651 l 359 671 q 364 684 359 682 m 382 684 l 389 684 q 392 672 392 680 l 390 672 q 393 662 393 667 q 386 651 393 651 q 378 661 378 652 l 378 665 l 382 665 l 382 666 q 378 672 378 667 l 378 676 q 382 684 378 682 m 400 684 l 408 684 q 412 676 412 681 l 412 666 l 402 666 l 402 661 q 404 660 402 660 l 406 660 l 406 664 l 412 664 l 412 661 q 404 651 412 651 q 396 669 396 651 l 396 669 q 400 684 396 681 m 426 684 l 431 684 l 431 667 l 432 660 l 436 660 l 437 664 l 437 684 l 442 684 l 442 649 q 437 640 442 642 l 431 640 q 427 653 427 640 l 429 653 q 426 665 426 656 l 426 684 m 451 684 l 458 684 q 463 671 463 682 l 463 665 q 455 651 463 651 q 446 660 446 652 l 446 675 q 451 684 446 681 m 466 684 l 472 684 l 472 661 q 473 660 473 660 l 476 660 l 477 664 l 477 684 l 482 684 l 482 651 l 475 651 q 466 667 466 651 l 466 684 m 486 684 l 497 684 l 497 676 q 492 671 492 676 l 492 651 l 486 651 l 486 684 m 515 684 l 522 684 q 527 675 527 682 q 521 673 524 673 q 519 676 521 676 l 517 676 q 517 675 517 676 l 517 661 q 517 660 517 660 l 521 660 l 521 663 l 523 663 q 527 659 527 661 q 517 651 527 652 q 510 669 510 651 l 510 669 q 515 684 510 681 m 553 684 l 559 684 q 564 669 564 684 l 564 662 q 566 656 566 656 l 564 650 l 562 650 q 561 652 561 650 q 556 650 558 650 l 555 650 q 549 662 549 654 q 551 671 549 668 l 551 672 l 549 672 l 549 676 q 553 684 549 682 m 568 684 l 578 684 l 578 676 q 573 671 573 676 l 573 651 l 568 651 l 568 684 m 585 684 l 593 684 q 597 673 597 682 l 597 662 q 599 658 597 659 q 596 650 597 650 l 594 650 q 593 652 594 652 q 589 650 591 650 q 582 660 583 650 l 582 665 q 585 672 582 669 l 582 672 l 582 675 q 585 684 583 684 m 605 684 l 612 684 q 616 675 616 682 q 611 673 614 673 q 609 676 611 676 l 608 676 q 607 675 607 676 l 607 661 q 608 660 607 660 l 610 660 q 611 663 611 660 l 613 663 q 616 659 616 661 q 608 651 616 651 q 601 669 601 651 q 605 684 601 681 m 639 684 l 643 684 q 650 675 650 684 l 650 666 l 640 666 l 640 661 q 641 660 640 660 l 642 660 q 644 664 644 660 l 650 664 q 641 651 650 651 q 634 661 634 652 l 634 675 q 639 684 634 682 m 654 684 l 665 684 l 665 676 q 659 671 659 676 l 659 651 l 654 651 l 654 684 m 347 676 l 345 673 l 345 661 q 347 660 345 660 l 348 660 q 350 661 350 660 l 350 675 l 347 676 m 364 670 l 364 666 q 367 660 364 661 l 370 660 l 370 664 l 370 673 q 368 676 370 675 l 367 676 q 364 670 364 676 m 384 676 l 384 673 l 387 673 l 387 676 l 384 676 m 402 675 l 406 675 q 404 676 406 676 l 404 676 q 402 675 402 676 m 452 673 l 452 664 l 452 660 l 455 660 q 457 666 457 661 l 457 670 q 455 676 457 676 l 454 676 q 452 673 453 676 m 555 675 l 555 673 l 557 673 l 557 676 l 556 676 q 555 675 555 676 m 587 675 l 587 673 l 591 673 l 591 676 l 589 676 q 587 675 587 676 m 641 676 l 640 675 l 644 675 l 644 675 l 641 676 m 384 665 l 384 661 q 386 660 384 660 l 387 660 q 388 662 387 662 q 387 665 387 664 l 384 665 m 555 664 l 555 661 q 556 659 555 659 q 557 661 557 659 l 557 665 l 556 665 q 555 664 555 665 m 587 664 l 587 663 l 588 659 l 589 659 q 591 665 591 660 l 589 665 q 587 664 587 665 m 432 651 l 432 649 q 434 648 433 648 l 434 648 q 437 650 435 648 l 437 651 l 432 651 m 492 536 l 494 536 l 501 536 l 501 524 q 503 438 503 476 l 498 437 l 494 437 q 492 530 492 485 l 492 532 l 492 536 m 830 536 l 831 536 l 840 536 q 840 527 840 530 q 842 438 840 490 l 834 437 l 831 437 q 829 524 830 476 q 830 536 830 532 m 536 533 l 538 533 q 543 525 538 532 q 541 505 541 513 l 541 492 q 551 453 541 463 l 551 453 q 575 532 566 453 l 576 532 q 585 530 585 530 q 581 471 581 490 q 589 450 581 450 q 591 437 591 439 l 585 437 q 572 458 576 437 l 571 458 q 553 439 564 439 l 549 439 q 531 481 536 439 q 530 496 530 484 l 530 503 q 536 533 530 520 m 742 533 l 746 533 q 765 514 754 533 q 773 484 773 499 l 773 478 q 746 439 773 453 q 736 437 741 437 l 732 437 q 708 466 711 437 l 708 472 q 735 532 708 506 q 742 533 741 533 m 169 530 l 175 530 q 194 503 194 527 q 172 470 194 480 q 153 465 163 467 l 153 440 l 153 440 q 143 442 149 440 l 143 465 l 140 465 l 136 466 q 140 479 136 473 l 143 479 l 143 479 q 139 507 143 507 q 135 514 135 511 q 169 530 147 530 m 718 472 l 718 467 q 735 450 718 452 q 760 469 750 450 q 764 481 764 474 l 764 483 q 746 519 764 501 q 744 520 744 519 q 720 486 732 520 q 718 472 718 479 m 152 512 q 153 480 153 488 q 153 479 153 480 q 178 490 173 483 q 184 503 184 497 q 174 517 184 515 l 170 517 q 152 512 152 515 m 274 514 q 293 481 287 514 q 283 478 292 481 q 274 500 279 500 q 260 450 262 494 q 261 439 261 440 q 251 438 254 438 q 242 497 242 485 q 252 498 250 498 l 252 498 q 254 485 252 495 l 255 485 q 274 514 262 514 m 364 510 q 387 488 378 510 q 388 477 388 482 l 388 475 q 364 439 388 450 q 358 438 361 438 q 340 464 340 441 q 357 508 340 498 q 364 510 358 509 m 416 510 q 441 450 429 510 q 441 445 441 450 q 433 440 436 440 q 418 494 423 482 q 406 447 412 486 q 402 440 405 447 l 397 440 q 391 479 393 440 q 390 494 390 488 q 399 496 395 496 q 401 482 401 484 l 402 482 q 416 510 407 510 m 804 510 q 827 445 814 510 q 819 440 821 440 q 802 494 808 485 q 789 444 798 486 q 787 440 787 440 l 783 440 q 776 494 778 440 q 786 496 780 496 q 787 481 787 483 l 787 481 q 804 510 792 510 m 320 509 q 332 497 332 505 l 332 496 q 326 491 332 495 l 325 491 q 316 496 322 496 q 305 488 307 496 q 325 484 305 485 q 338 461 338 477 q 325 438 338 444 l 319 437 l 316 437 q 293 452 300 437 l 293 453 q 299 460 294 455 l 300 460 q 319 450 308 450 q 328 461 328 453 q 314 471 326 471 q 295 486 295 471 l 295 488 q 320 509 295 509 m 618 509 q 632 496 627 509 l 632 496 q 623 491 625 491 q 615 496 623 495 q 604 489 607 496 l 604 488 q 623 484 604 485 q 636 460 636 478 q 620 437 636 442 l 614 437 q 591 452 599 437 l 591 453 q 597 460 596 460 l 598 460 q 616 450 606 450 q 626 461 626 453 q 615 471 626 469 q 595 479 598 471 q 593 488 593 486 q 618 509 593 509 m 847 508 l 847 508 q 857 507 856 507 q 856 489 856 494 l 856 483 q 865 459 857 459 l 865 459 q 878 505 878 468 l 878 505 l 888 505 l 888 503 q 892 443 892 450 q 872 405 892 412 q 869 405 871 405 l 865 405 q 850 418 853 405 q 849 425 849 421 l 849 425 q 851 435 849 435 l 852 435 q 860 431 858 431 l 859 425 q 865 418 859 419 l 867 418 q 882 447 882 418 q 882 461 882 450 l 881 461 q 863 445 876 445 l 863 445 q 846 477 850 445 l 846 488 q 847 508 846 495 m 224 507 q 240 492 240 505 l 240 488 q 214 464 240 475 l 207 464 q 218 453 207 456 q 233 465 226 453 l 235 465 q 241 455 241 457 q 220 440 229 440 l 216 440 q 195 471 198 440 q 217 507 195 498 l 224 507 m 462 507 l 469 507 q 488 477 488 501 q 487 453 487 463 q 488 442 487 453 q 479 437 482 437 l 479 437 l 477 444 q 462 439 469 439 l 457 439 q 442 453 442 441 l 442 458 q 464 482 442 479 q 477 478 471 481 l 477 479 q 466 496 475 496 q 454 489 460 496 l 452 489 q 446 496 450 490 l 446 498 q 462 507 454 507 m 667 507 q 683 492 683 505 q 654 464 683 472 l 650 464 l 650 463 q 661 453 654 453 q 676 465 667 453 l 677 465 q 683 457 677 465 q 669 442 683 451 q 663 440 666 440 l 658 440 q 638 470 642 440 q 659 507 638 497 l 667 507 m 350 465 q 358 452 351 452 l 360 452 q 378 476 376 457 l 378 478 q 364 496 374 496 l 363 496 q 351 474 354 496 q 350 465 350 469 m 207 478 q 229 490 220 478 l 229 492 q 223 493 224 493 q 207 480 212 493 l 207 478 m 650 478 l 652 478 q 673 491 663 478 q 667 493 669 493 l 665 493 q 650 479 654 493 l 650 478 m 452 457 l 452 455 q 459 451 452 453 q 476 463 471 451 q 463 467 471 467 q 452 457 452 465 m 419 369 q 429 346 428 369 l 429 344 l 425 343 l 424 343 q 418 357 422 357 q 413 345 414 357 q 414 342 414 343 q 415 315 414 335 q 421 317 418 317 l 423 317 l 423 307 l 416 305 q 419 258 419 267 l 412 258 q 409 302 409 295 l 408 302 q 401 301 405 301 l 401 313 q 408 314 406 313 q 406 349 406 328 q 418 369 408 369 l 419 369 m 553 369 q 564 344 562 369 l 559 343 l 557 343 l 557 344 q 553 357 557 354 q 547 347 547 354 q 549 316 547 342 q 549 315 549 316 q 556 317 553 317 l 557 317 l 557 312 l 557 307 q 549 305 557 307 l 551 303 q 553 258 551 295 l 546 258 q 543 302 546 262 q 535 301 537 301 l 535 313 l 543 313 q 541 349 541 345 q 553 369 541 369 m 481 357 l 484 357 l 488 357 l 488 351 q 490 262 488 310 l 482 262 q 481 331 481 306 l 481 357 m 498 357 l 499 357 l 505 357 l 505 337 q 507 262 505 315 l 499 262 q 497 354 497 307 l 497 356 q 498 357 497 357 m 359 355 q 366 354 364 354 q 364 326 364 334 l 366 326 l 374 327 l 374 315 q 364 314 373 315 l 367 264 l 366 262 l 360 262 q 357 313 358 282 l 348 313 l 348 324 l 355 325 l 357 325 l 357 337 q 359 355 357 355 m 674 355 q 682 354 676 355 q 680 334 680 345 l 680 326 l 682 326 l 690 327 l 690 315 l 688 315 l 680 314 l 684 264 l 680 262 l 676 262 q 674 313 674 304 l 664 313 l 665 319 l 665 324 l 672 325 l 673 325 l 673 326 q 674 355 673 340 m 773 355 q 781 354 775 355 q 780 331 780 342 l 780 326 l 781 326 l 789 327 l 789 321 l 789 315 q 780 314 789 315 l 780 310 q 783 264 780 300 l 781 262 l 775 262 l 772 313 l 764 313 l 764 324 l 771 325 l 772 325 l 773 355 m 274 353 l 281 353 q 296 338 290 353 q 292 332 292 334 l 290 332 q 276 342 284 342 q 252 324 264 342 q 246 301 246 311 l 246 298 q 262 274 246 278 q 268 273 264 273 q 289 287 289 275 l 289 294 q 281 296 286 296 l 274 296 l 274 307 q 296 301 293 307 q 298 295 298 296 q 296 275 296 278 q 299 258 296 268 q 294 254 298 258 l 293 254 q 289 269 290 254 q 269 261 285 264 l 268 261 q 239 296 242 261 l 239 298 q 269 352 239 338 l 274 353 m 587 332 q 610 306 603 332 l 610 296 q 587 262 610 273 l 583 262 q 566 275 572 262 q 565 287 565 283 l 565 290 q 578 328 565 317 q 587 332 583 332 m 640 332 q 663 268 650 332 l 662 268 q 656 265 659 265 q 640 319 646 311 q 624 265 635 314 l 623 264 l 620 264 q 614 316 616 264 l 619 317 l 621 317 q 623 295 623 307 l 623 295 q 640 332 629 332 m 330 329 q 344 315 344 326 q 345 314 345 315 q 321 290 345 298 q 311 288 317 288 l 311 287 q 322 275 311 279 l 323 275 q 338 286 330 275 l 340 286 q 345 280 340 285 l 345 279 q 325 264 335 264 l 321 264 q 302 286 308 264 l 302 296 q 320 328 302 319 q 330 329 323 329 m 734 329 l 742 329 q 758 310 753 329 q 760 298 760 299 q 758 280 760 294 q 760 264 760 277 l 755 262 l 753 262 l 751 270 q 734 262 745 262 l 732 262 q 718 276 718 264 l 718 281 q 738 303 720 303 q 752 298 746 303 l 752 300 q 740 319 752 317 l 738 319 q 726 314 734 319 l 726 314 q 722 319 725 314 l 722 320 q 734 329 728 329 m 430 328 q 437 326 431 328 q 447 275 437 275 q 466 320 460 283 q 467 328 467 323 l 467 328 q 474 326 469 328 q 472 295 472 309 l 472 287 q 475 274 472 281 q 472 267 472 269 l 471 267 q 465 284 466 269 l 464 284 q 451 264 461 274 l 445 264 q 431 315 431 264 l 431 322 l 430 328 m 572 290 q 582 274 573 274 l 583 274 q 601 291 593 274 q 603 298 603 296 q 588 319 599 319 l 585 319 q 572 290 575 319 m 310 298 q 336 313 326 298 q 329 317 335 317 l 327 317 q 310 298 314 317 m 724 279 q 732 274 726 274 l 736 274 q 751 286 745 274 q 739 292 745 292 l 738 292 q 724 279 724 290 m 344 200 q 355 197 345 200 q 352 135 353 172 q 359 88 352 112 q 351 81 351 81 l 350 81 q 346 90 348 81 l 345 90 q 330 79 345 85 q 298 108 308 79 q 296 127 296 116 q 319 166 296 159 l 322 166 q 342 155 332 166 l 342 156 q 344 200 342 161 m 214 196 l 224 193 q 223 168 223 177 l 223 159 q 233 161 232 161 q 235 144 235 147 l 233 144 q 223 144 227 144 q 227 82 225 101 q 215 81 218 81 l 215 81 q 212 141 212 123 l 210 142 l 201 142 l 201 159 l 211 159 l 211 165 q 214 196 211 196 m 457 196 l 458 196 l 468 193 q 467 162 467 174 l 467 159 q 477 161 476 161 l 478 151 l 478 144 q 467 143 467 144 q 471 82 467 127 q 459 81 462 81 l 459 81 q 456 142 456 132 l 444 142 l 444 159 l 455 159 q 457 196 455 182 m 370 194 q 378 184 376 194 l 378 184 q 372 173 378 176 l 368 173 q 362 184 362 176 q 370 194 363 194 m 412 166 q 439 140 429 166 q 441 129 441 133 l 441 123 q 414 82 441 96 q 406 81 412 81 q 384 109 387 81 l 384 118 q 404 165 384 153 q 412 166 411 166 m 543 166 l 546 166 q 553 164 553 166 l 553 163 q 566 166 559 166 q 589 136 583 166 q 589 127 589 129 q 568 83 587 92 l 563 83 l 556 83 l 557 77 q 557 50 557 73 l 546 50 q 543 166 543 140 m 621 166 q 647 142 636 166 q 650 126 650 134 q 624 82 650 97 q 614 81 618 81 q 593 99 600 81 q 592 115 592 107 q 612 165 592 151 q 621 166 620 166 m 758 166 q 784 142 774 166 q 787 130 787 137 l 787 124 q 760 82 787 95 q 751 81 758 81 q 730 109 732 81 l 730 118 q 750 165 730 153 q 758 166 757 166 m 821 166 q 840 127 833 166 l 840 127 q 859 166 846 166 l 859 166 q 886 86 876 166 l 885 86 q 876 83 878 83 l 876 83 q 859 149 863 149 q 847 94 852 134 q 840 87 845 87 q 833 97 835 87 q 820 149 824 149 q 809 85 809 109 q 798 83 802 83 l 798 83 l 789 154 q 801 158 798 158 q 804 137 802 153 l 805 137 q 821 166 811 166 m 175 165 q 191 151 191 162 l 191 151 q 183 144 191 149 l 181 144 q 172 150 181 149 l 172 150 q 158 143 163 150 l 158 140 q 179 136 158 136 q 197 111 197 128 l 197 107 q 182 81 197 88 q 176 79 179 79 l 170 79 q 143 96 154 79 q 151 107 143 100 l 153 107 q 173 95 158 95 q 185 109 185 95 q 171 121 185 119 q 149 129 153 121 q 146 137 146 134 l 146 142 q 175 165 146 165 m 484 165 q 494 162 492 162 q 493 139 493 146 l 493 135 q 501 105 493 113 l 505 105 q 519 154 519 117 l 519 161 l 531 161 l 531 160 q 536 90 536 100 l 536 83 q 517 43 536 54 q 507 40 511 40 q 487 54 492 40 q 486 60 486 56 l 486 66 q 488 76 486 76 l 498 71 l 497 66 l 497 63 q 505 56 497 58 l 507 56 q 524 79 521 56 q 525 87 525 81 l 525 100 l 524 109 l 524 109 q 504 89 517 89 l 503 89 q 482 123 487 89 q 481 136 481 128 l 481 142 q 484 165 481 165 m 701 164 l 706 164 q 716 158 710 164 q 724 146 724 150 q 715 137 716 137 l 715 137 q 703 147 708 147 l 702 147 q 690 128 694 144 l 687 114 q 696 98 687 99 l 699 98 q 722 109 706 98 l 722 109 q 726 94 726 95 q 694 81 709 81 q 675 113 679 81 q 688 156 675 136 q 701 164 696 164 m 364 163 l 372 163 l 376 162 q 376 157 376 160 q 378 83 376 111 l 366 83 l 366 88 q 364 163 364 134 m 237 162 q 249 158 249 159 l 249 144 q 257 99 249 99 l 260 99 q 277 136 272 112 q 281 162 280 143 l 282 162 q 292 158 292 161 q 290 118 290 130 l 290 111 q 294 98 290 104 q 287 85 294 94 l 287 85 q 279 102 279 94 l 278 102 q 259 83 271 83 l 257 83 q 237 146 237 83 l 237 162 m 308 124 q 328 97 308 101 l 330 97 q 340 115 338 97 l 340 117 q 326 149 340 141 l 322 150 l 321 150 q 308 126 309 150 l 308 124 m 395 114 q 406 97 395 99 l 408 97 q 428 117 418 97 q 429 123 429 119 l 429 129 q 413 150 425 150 l 412 150 q 395 114 397 150 m 553 144 q 555 99 553 142 l 560 98 q 578 127 575 98 q 566 150 576 150 l 566 150 q 553 144 559 150 m 604 114 l 604 111 q 614 97 604 99 l 615 97 q 635 115 626 97 q 638 127 638 120 q 619 150 634 150 q 604 114 606 150 m 741 114 q 752 97 741 97 l 754 97 q 774 117 764 97 q 775 124 775 121 l 775 129 q 758 150 770 150 l 758 150 q 741 114 744 150 m 663 104 q 671 95 669 104 l 671 92 q 663 83 669 83 q 655 93 656 83 q 663 104 656 104 z "},"/":{"ha":593,"x_min":7,"x_max":586,"o":"m 7 -204 l 469 960 l 586 960 l 125 -204 l 7 -204 z "},":":{"ha":285,"x_min":88,"x_max":197,"o":"m 88 109 l 197 109 l 197 0 l 88 0 l 88 109 m 88 661 l 197 661 l 197 553 l 88 553 l 88 661 z "},";":{"ha":285,"x_min":88,"x_max":197,"o":"m 122 0 l 88 0 l 88 109 l 197 109 l 197 -129 l 142 -129 q 122 0 142 -54 m 88 661 l 197 661 l 197 553 l 88 553 l 88 661 z "},";":{"ha":285,"x_min":88,"x_max":197,"o":"m 122 0 l 88 0 l 88 109 l 197 109 l 197 -129 l 142 -129 q 122 0 142 -54 m 88 661 l 197 661 l 197 553 l 88 553 l 88 661 z "},"<":{"ha":739,"x_min":88,"x_max":650,"o":"m 650 144 l 88 406 l 88 555 l 650 816 l 650 697 l 182 480 l 650 263 l 650 144 z "},"=":{"ha":713,"x_min":88,"x_max":625,"o":"m 88 399 l 625 399 l 625 292 l 88 292 l 88 399 m 88 671 l 625 671 l 625 563 l 88 563 l 88 671 z "},">":{"ha":739,"x_min":88,"x_max":650,"o":"m 88 263 l 556 480 l 88 697 l 88 816 l 650 555 l 650 406 l 88 144 l 88 263 z "},"?":{"ha":1156,"x_min":88,"x_max":1067,"o":"m 894 960 q 1017 909 966 960 q 1067 787 1067 859 l 1067 617 q 1017 494 1067 545 q 894 443 966 443 l 623 443 q 571 422 593 443 q 550 370 550 400 l 550 216 l 442 216 l 442 370 q 495 498 442 445 q 623 551 548 551 l 894 551 q 941 570 921 551 q 960 617 960 589 l 960 787 q 941 833 960 814 q 894 853 921 853 l 88 853 l 88 960 l 894 960 m 444 108 l 552 108 l 552 -1 l 444 -1 l 444 108 z "},"@":{"ha":1238,"x_min":88,"x_max":1149,"o":"m 1067 722 q 1149 456 1149 593 q 1125 303 1149 380 l 1126 303 l 1120 289 q 1106 254 1113 270 l 1105 253 l 1105 252 l 1105 251 l 1082 201 l 1076 204 q 903 123 1010 123 q 865 127 883 123 q 745 233 772 145 q 671 216 709 216 l 516 216 q 394 267 445 216 q 344 389 344 318 l 344 665 l 358 665 q 425 743 378 713 q 530 774 472 774 l 660 774 q 796 721 744 774 q 833 661 821 695 l 844 661 l 844 290 q 885 233 844 241 q 903 231 894 231 q 952 243 926 231 q 1004 288 989 259 l 1006 294 l 1019 327 q 1042 454 1042 392 q 977 663 1042 562 q 824 803 918 753 q 616 852 730 852 q 319 743 442 852 q 196 479 196 634 q 319 216 196 326 q 616 107 442 107 q 736 123 677 107 l 788 136 l 815 32 l 763 18 q 616 0 692 0 q 243 140 398 0 q 88 479 88 281 q 243 819 88 678 q 616 960 398 960 q 876 897 758 960 q 1067 722 994 836 m 736 548 l 735 548 l 736 601 l 736 602 q 720 646 736 628 q 660 667 699 667 l 530 667 q 476 648 499 667 q 454 604 454 629 l 454 549 l 451 549 l 451 389 q 471 343 451 362 q 516 324 490 324 l 671 324 q 718 343 699 324 q 736 389 736 362 l 736 548 z "},"A":{"ha":1265,"x_min":88,"x_max":1177,"o":"m 878 960 q 1088 872 1001 960 q 1177 661 1177 785 l 1177 0 l 1069 0 l 1069 442 l 196 442 l 196 0 l 88 0 l 88 661 q 176 872 88 785 q 387 960 263 960 l 878 960 m 1069 550 l 1069 661 q 1013 796 1069 740 q 878 852 956 852 l 387 852 q 252 796 308 852 q 196 661 196 740 l 196 550 l 1069 550 z "},"B":{"ha":1220,"x_min":88,"x_max":1132,"o":"m 1025 493 q 1132 277 1132 411 l 1132 272 q 1052 79 1132 159 q 859 0 972 0 l 88 0 l 88 785 q 140 909 88 858 q 262 960 191 960 l 859 960 q 1060 878 984 960 q 1128 701 1128 805 q 1025 493 1128 568 m 196 550 l 859 550 q 981 597 937 550 q 1020 701 1020 639 q 981 804 1020 763 q 859 852 937 852 l 262 852 q 216 833 235 852 q 196 785 196 813 l 196 550 m 1024 277 q 976 394 1024 345 q 859 442 927 442 l 196 442 l 196 107 l 859 107 q 976 156 927 107 q 1024 272 1024 204 l 1024 277 z "},"C":{"ha":1265,"x_min":88,"x_max":1177,"o":"m 88 661 q 176 872 88 785 q 387 960 264 960 l 1177 960 l 1177 852 l 387 852 q 252 796 308 852 q 196 661 196 740 l 196 298 q 252 163 196 220 q 387 107 308 107 l 1177 107 l 1177 0 l 387 0 q 176 87 264 0 q 88 298 88 175 l 88 661 z "},"D":{"ha":1265,"x_min":88,"x_max":1177,"o":"m 878 960 q 1089 872 1001 960 q 1177 661 1177 785 l 1177 298 q 1089 87 1177 175 q 878 0 1001 0 l 88 0 l 88 785 q 139 909 88 858 q 262 960 191 960 l 878 960 m 1069 661 q 1013 796 1069 740 q 878 852 957 852 l 262 852 q 216 833 235 852 q 196 785 196 813 l 196 107 l 878 107 q 1013 163 957 107 q 1069 298 1069 220 l 1069 661 z "},"E":{"ha":1087,"x_min":88,"x_max":999,"o":"m 88 785 q 139 909 88 858 q 262 960 190 960 l 999 960 l 999 852 l 262 852 q 215 833 235 852 q 195 785 195 813 l 195 550 l 999 550 l 999 442 l 195 442 l 195 107 l 999 107 l 999 0 l 88 0 l 88 785 z "},"F":{"ha":1087,"x_min":88,"x_max":999,"o":"m 88 785 q 139 909 88 858 q 262 960 190 960 l 999 960 l 999 852 l 262 852 q 215 833 235 852 q 195 785 195 813 l 195 550 l 999 550 l 999 442 l 195 442 l 195 0 l 88 0 l 88 785 z "},"G":{"ha":1265,"x_min":88,"x_max":1177,"o":"m 572 550 l 1177 550 l 1177 298 q 1089 87 1177 175 q 878 0 1002 0 l 387 0 q 176 87 264 0 q 88 298 88 175 l 88 661 q 176 872 88 785 q 387 960 264 960 l 1050 960 l 1050 852 l 387 852 q 252 796 309 852 q 196 661 196 740 l 196 298 q 252 163 196 220 q 387 107 309 107 l 878 107 q 1013 163 957 107 q 1069 298 1069 220 l 1069 442 l 572 442 l 572 550 z "},"H":{"ha":1155,"x_min":88,"x_max":1067,"o":"m 1067 0 l 960 0 l 960 442 l 196 442 l 196 0 l 88 0 l 88 960 l 196 960 l 196 550 l 960 550 l 960 960 l 1067 960 l 1067 0 z "},"I":{"ha":284,"x_min":88,"x_max":196,"o":"m 88 960 l 196 960 l 196 0 l 88 0 l 88 960 z "},"J":{"ha":638,"x_min":88,"x_max":550,"o":"m 442 960 l 550 960 l 550 229 q 483 67 550 134 q 321 0 416 0 l 88 0 l 88 107 l 321 107 q 407 143 372 107 q 442 229 442 178 l 442 960 z "},"K":{"ha":1158,"x_min":88,"x_max":1070,"o":"m 962 960 l 1070 960 l 1070 671 q 989 496 1070 565 q 1070 321 1070 427 l 1070 0 l 962 0 l 962 321 q 927 407 962 371 q 842 442 891 442 l 196 442 l 196 0 l 88 0 l 88 960 l 196 960 l 196 550 l 842 550 q 927 585 891 550 q 962 671 962 621 l 962 960 z "},"L":{"ha":1019,"x_min":88,"x_max":931,"o":"m 196 174 q 215 127 196 146 q 262 107 235 107 l 931 107 l 931 0 l 262 0 q 139 51 190 0 q 88 174 88 102 l 88 960 l 196 960 l 196 174 z "},"M":{"ha":1666,"x_min":88,"x_max":1578,"o":"m 1350 960 q 1511 871 1444 960 q 1578 656 1578 781 l 1578 0 l 1470 0 l 1470 656 q 1434 793 1470 734 q 1350 852 1398 852 l 1052 852 q 936 775 985 852 q 887 593 887 699 l 887 0 l 779 0 l 779 656 q 743 793 779 734 q 658 852 707 852 l 360 852 q 244 775 294 852 q 195 593 195 699 l 195 0 l 88 0 l 88 650 q 182 871 106 783 q 360 960 259 960 l 658 960 q 844 831 776 960 q 1052 960 926 960 l 1350 960 z "},"N":{"ha":1265,"x_min":88,"x_max":1177,"o":"m 878 960 q 1089 872 1001 960 q 1177 661 1177 785 l 1177 1 l 1069 1 l 1069 661 q 1013 796 1069 740 q 878 852 957 852 l 387 852 q 252 796 308 852 q 196 661 196 740 l 196 0 l 88 0 l 88 661 q 176 872 88 785 q 387 960 264 960 l 878 960 z "},"O":{"ha":1265,"x_min":88,"x_max":1177,"o":"m 878 960 q 1089 872 1001 960 q 1177 661 1177 785 l 1177 298 q 1089 87 1177 175 q 878 0 1001 0 l 387 0 q 176 87 264 0 q 88 298 88 175 l 88 661 q 176 872 88 785 q 387 960 264 960 l 878 960 m 1069 661 q 1013 796 1069 740 q 878 852 957 852 l 387 852 q 252 796 308 852 q 196 661 196 740 l 196 298 q 252 163 196 220 q 387 107 308 107 l 878 107 q 1013 163 957 107 q 1069 298 1069 220 l 1069 661 z "},"P":{"ha":1262,"x_min":88,"x_max":1174,"o":"m 877 960 q 1100 864 1017 960 q 1174 658 1174 779 q 1099 451 1174 536 q 877 356 1015 356 l 195 356 l 195 0 l 88 0 l 88 785 q 139 909 88 858 q 262 960 190 960 l 877 960 m 1019 523 q 1066 658 1066 577 q 1021 791 1066 738 q 877 852 969 852 l 262 852 q 215 833 235 852 q 195 785 195 813 l 195 464 l 877 464 q 1019 523 967 464 z "},"Q":{"ha":1265,"x_min":88,"x_max":1177,"o":"m 685 107 l 878 107 q 1013 163 957 107 q 1069 298 1069 220 l 1069 661 q 1013 796 1069 740 q 878 852 957 852 l 387 852 q 252 796 308 852 q 196 661 196 740 l 196 298 q 252 163 196 220 q 387 107 308 107 l 580 107 l 580 239 l 685 239 l 685 107 m 580 0 l 387 0 q 176 87 264 0 q 88 298 88 175 l 88 661 q 176 872 88 785 q 387 960 264 960 l 878 960 q 1089 872 1001 960 q 1177 661 1177 785 l 1177 298 q 1089 87 1177 175 q 878 0 1001 0 l 685 0 l 685 -178 l 580 -178 l 580 0 z "},"R":{"ha":1265,"x_min":88,"x_max":1177,"o":"m 1051 478 q 1177 235 1177 388 l 1177 0 l 1069 0 l 1069 235 q 1013 370 1069 314 q 878 427 956 427 l 196 427 l 196 0 l 88 0 l 88 792 q 139 909 88 858 q 262 960 191 960 l 878 960 q 1099 872 1016 960 q 1174 693 1174 800 q 1051 478 1174 557 m 878 534 q 1019 579 968 534 q 1067 693 1067 627 q 1021 798 1067 759 q 878 852 969 852 l 262 852 q 215 833 235 852 q 196 792 196 813 l 196 534 l 878 534 z "},"S":{"ha":1156,"x_min":88,"x_max":1067,"o":"m 887 549 q 1015 496 962 549 q 1067 368 1067 443 l 1067 180 q 1015 53 1067 106 q 887 0 962 0 l 88 0 l 88 107 l 887 107 q 939 129 917 107 q 960 180 960 151 l 960 368 q 939 420 960 399 q 887 441 917 441 l 262 441 q 139 492 190 441 q 88 615 88 543 l 88 785 q 139 908 88 857 q 262 959 190 959 l 1067 959 l 1067 851 l 262 851 q 215 831 235 851 q 195 785 195 812 l 195 615 q 215 568 195 588 q 262 549 235 549 l 887 549 z "},"T":{"ha":1095,"x_min":88,"x_max":1006,"o":"m 88 960 l 1006 960 l 1006 852 l 601 852 l 601 0 l 493 0 l 493 852 l 88 852 l 88 960 z "},"U":{"ha":1265,"x_min":88,"x_max":1177,"o":"m 1069 960 l 1177 960 l 1177 298 q 1089 87 1177 175 q 878 0 1001 0 l 387 0 q 176 87 264 0 q 88 298 88 175 l 88 960 l 196 960 l 196 298 q 252 163 196 220 q 387 107 308 107 l 878 107 q 1013 163 957 107 q 1069 298 1069 220 l 1069 960 z "},"V":{"ha":1270,"x_min":7,"x_max":1263,"o":"m 1263 960 l 953 306 q 808 81 865 141 q 642 0 728 0 l 627 0 q 459 81 541 0 q 315 308 391 149 l 7 960 l 131 960 l 416 356 q 533 165 482 217 q 627 112 585 112 l 642 112 q 728 160 682 112 q 854 357 774 208 l 1139 960 l 1263 960 z "},"W":{"ha":1787,"x_min":88,"x_max":1699,"o":"m 1591 960 l 1699 960 l 1699 298 q 1611 87 1699 175 q 1400 0 1524 0 l 1139 0 q 893 128 983 0 q 648 0 804 0 l 387 0 q 176 87 263 0 q 88 298 88 175 l 88 960 l 195 960 l 195 298 q 252 163 195 220 q 387 107 308 107 l 648 107 q 783 163 728 107 q 840 298 840 220 l 840 960 l 947 960 l 947 298 q 1004 163 947 220 q 1139 107 1059 107 l 1400 107 q 1535 163 1479 107 q 1591 298 1591 220 l 1591 960 z "},"X":{"ha":1274,"x_min":88,"x_max":1186,"o":"m 1078 960 l 1186 960 l 1186 701 q 1053 492 1186 570 q 1186 275 1186 409 l 1186 0 l 1078 0 l 1078 275 q 1029 393 1078 344 q 911 442 980 442 l 363 442 q 245 393 294 442 q 196 275 196 344 l 196 0 l 88 0 l 88 275 q 222 492 88 409 q 88 701 88 570 l 88 960 l 196 960 l 196 701 q 240 594 196 639 q 347 550 285 550 l 927 550 q 1034 594 989 550 q 1078 701 1078 639 l 1078 960 z "},"Y":{"ha":1265,"x_min":88,"x_max":1177,"o":"m 1069 960 l 1177 960 l 1177 298 q 1088 87 1177 175 q 878 0 1001 0 l 88 0 l 88 107 l 878 107 q 1013 163 956 107 q 1069 298 1069 220 l 1069 458 q 878 389 985 389 l 387 389 q 176 477 263 389 q 88 742 88 564 l 88 960 l 196 960 l 196 742 q 252 553 196 609 q 387 496 308 496 l 878 496 q 1013 553 956 496 q 1069 742 1069 609 l 1069 960 z "},"Z":{"ha":1181,"x_min":88,"x_max":1093,"o":"m 919 960 q 1045 918 997 960 q 1093 808 1093 876 l 1093 760 q 945 588 1093 668 l 942 587 l 287 276 q 273 269 282 274 q 196 199 196 228 l 196 150 q 262 107 196 107 l 1068 107 l 1068 0 l 262 0 q 136 41 184 0 q 88 150 88 83 l 88 199 q 134 306 88 261 q 223 364 161 332 l 239 373 l 895 684 q 985 760 985 732 l 985 808 q 919 852 985 852 l 113 852 l 113 960 l 919 960 z "},"[":{"ha":463,"x_min":88,"x_max":374,"o":"m 88 960 l 374 960 l 374 852 l 195 852 l 195 -164 l 374 -164 l 374 -271 l 88 -271 l 88 960 z "},"\\":{"ha":755,"x_min":88,"x_max":667,"o":"m 549 -204 l 88 960 l 205 960 l 667 -204 l 549 -204 z "},"]":{"ha":463,"x_min":88,"x_max":374,"o":"m 374 -271 l 88 -271 l 88 -164 l 267 -164 l 267 852 l 88 852 l 88 960 l 374 960 l 374 -271 z "},"^":{"ha":928,"x_min":92,"x_max":836,"o":"m 92 580 l 406 960 l 522 960 l 836 580 l 697 580 l 464 861 l 231 580 l 92 580 z "},"_":{"ha":984,"x_min":88,"x_max":896,"o":"m 88 -1 l 896 -1 l 896 -109 l 88 -109 l 88 -1 z "},"`":{"ha":481,"x_min":22,"x_max":313,"o":"m 205 708 l 22 905 l 191 905 l 313 708 l 205 708 z "},"a":{"ha":1118,"x_min":68,"x_max":1050,"o":"m 296 107 q 222 121 253 107 q 176 196 176 144 l 176 205 q 222 280 176 258 q 296 294 252 294 l 821 294 q 895 280 865 294 q 942 206 942 258 q 821 107 942 107 l 296 107 m 1050 443 q 982 596 1050 532 q 821 661 914 661 l 143 661 l 143 553 l 821 553 q 907 517 871 553 q 942 443 942 484 l 942 376 q 821 402 889 402 l 296 402 q 131 348 194 402 q 68 205 68 294 l 68 196 q 131 54 68 108 q 296 0 194 0 l 821 0 q 987 56 925 0 q 1050 205 1049 112 l 1050 443 z "},"b":{"ha":1158,"x_min":88,"x_max":1070,"o":"m 842 661 q 1003 594 936 661 q 1070 433 1070 527 l 1070 229 q 1003 67 1070 134 q 842 0 936 0 l 361 0 q 168 79 248 0 q 88 272 88 159 l 88 960 l 196 960 l 196 606 q 361 661 269 661 l 842 661 m 962 433 q 927 518 962 483 q 842 553 891 553 l 361 553 q 244 505 292 553 q 196 389 196 457 l 196 272 q 244 156 196 204 q 361 107 292 107 l 842 107 q 927 143 891 107 q 962 229 962 178 l 962 433 z "},"c":{"ha":1067,"x_min":88,"x_max":979,"o":"m 88 389 q 168 581 88 502 q 361 661 248 661 l 979 661 l 979 553 l 361 553 q 244 505 292 553 q 196 389 196 457 l 196 272 q 244 156 196 204 q 361 107 292 107 l 979 107 l 979 0 l 361 0 q 168 79 248 0 q 88 272 88 159 l 88 389 z "},"d":{"ha":1159,"x_min":88,"x_max":1071,"o":"m 1071 272 q 991 79 1071 159 q 798 0 911 0 l 317 0 q 155 67 222 0 q 88 229 88 134 l 88 433 q 155 594 88 527 q 317 661 222 661 l 798 661 q 963 606 890 661 l 963 960 l 1071 960 l 1071 272 m 798 107 q 915 156 866 107 q 963 272 963 204 l 963 389 q 915 505 963 457 q 798 553 866 553 l 317 553 q 232 518 267 553 q 196 433 196 483 l 196 229 q 232 143 196 178 q 317 107 267 107 l 798 107 z "},"e":{"ha":1158,"x_min":88,"x_max":1070,"o":"m 798 661 q 990 581 910 661 q 1070 389 1070 502 l 1070 300 l 195 300 l 195 229 q 231 143 195 178 q 317 107 267 107 l 1069 107 l 1069 0 l 317 0 q 155 67 222 0 q 88 229 88 134 l 88 433 q 155 594 88 527 q 317 661 222 661 l 798 661 m 961 408 q 907 511 954 469 q 798 553 861 553 l 317 553 q 231 518 267 553 q 195 433 195 483 l 195 408 l 961 408 z "},"f":{"ha":629,"x_min":88,"x_max":541,"o":"m 88 731 q 155 892 88 826 q 317 960 222 960 l 539 960 l 539 852 l 317 852 q 231 817 267 852 q 196 731 196 781 l 196 660 l 541 660 l 541 552 l 196 552 l 196 0 l 88 0 l 88 731 z "},"g":{"ha":1158,"x_min":88,"x_max":1070,"o":"m 798 662 q 990 582 910 662 q 1070 390 1070 503 l 1070 -69 q 1003 -231 1070 -164 q 842 -298 936 -298 l 142 -298 l 142 -191 l 842 -191 q 927 -155 891 -191 q 962 -69 962 -119 l 962 56 q 798 1 889 1 l 317 1 q 155 68 222 1 q 88 229 88 134 l 88 433 q 155 595 88 528 q 317 662 222 662 l 798 662 m 798 108 q 914 157 866 108 q 962 273 962 205 l 962 390 q 914 506 962 458 q 798 554 866 554 l 317 554 q 231 519 267 554 q 195 433 195 484 l 195 229 q 231 144 195 179 q 317 108 267 108 l 798 108 z "},"h":{"ha":1158,"x_min":88,"x_max":1070,"o":"m 842 661 q 1003 594 936 661 q 1070 433 1070 527 l 1070 0 l 962 0 l 962 433 q 927 518 962 483 q 842 553 892 553 l 361 553 q 244 505 292 553 q 196 389 196 457 l 196 0 l 88 0 l 88 960 l 196 960 l 196 606 q 361 661 269 661 l 842 661 z "},"i":{"ha":298,"x_min":95,"x_max":203,"o":"m 95 661 l 203 661 l 203 0 l 95 0 l 95 661 m 95 960 l 203 960 l 203 852 l 95 852 l 95 960 z "},"j":{"ha":313,"x_min":-250,"x_max":212,"o":"m 104 661 l 212 661 l 212 -70 q 144 -232 212 -165 q -17 -298 78 -298 l -250 -298 l -250 -191 l -17 -191 q 68 -155 33 -191 q 104 -70 104 -120 l 104 661 m 103 960 l 212 960 l 212 851 l 103 851 l 103 960 z "},"k":{"ha":1158,"x_min":88,"x_max":1070,"o":"m 991 260 q 1070 88 1070 192 l 1070 0 l 963 0 l 963 88 q 927 174 963 138 q 842 209 892 209 l 196 209 l 196 0 l 88 0 l 88 960 l 196 960 l 196 627 q 317 661 252 661 l 842 661 q 1011 591 947 661 q 1069 435 1069 526 q 991 260 1069 327 m 842 317 q 932 354 900 317 q 961 435 961 387 q 932 517 961 484 q 842 553 900 553 l 317 553 q 231 518 267 553 q 196 433 196 483 l 196 317 l 842 317 z "},"l":{"ha":450,"x_min":102,"x_max":444,"o":"m 210 229 q 245 143 210 178 q 331 107 281 107 l 444 107 l 444 0 l 331 0 q 169 67 236 0 q 102 229 102 134 l 102 960 l 210 960 l 210 229 z "},"m":{"ha":1665,"x_min":88,"x_max":1577,"o":"m 1348 661 q 1510 595 1442 661 q 1577 433 1577 528 l 1577 0 l 1469 0 l 1469 433 q 1434 518 1469 483 q 1348 554 1398 554 l 1007 554 q 922 519 957 554 q 886 433 886 483 l 886 0 l 779 0 l 779 433 q 743 519 779 483 q 658 554 708 554 l 360 554 q 244 506 292 554 q 196 389 196 458 l 196 0 l 88 0 l 88 403 l 89 403 q 172 586 94 511 q 360 661 252 661 l 658 661 q 832 580 764 661 q 1007 661 901 661 l 1348 661 z "},"n":{"ha":1158,"x_min":88,"x_max":1070,"o":"m 842 661 q 1003 594 936 661 q 1070 433 1070 527 l 1070 0 l 962 0 l 962 433 q 927 518 962 483 q 842 553 892 553 l 361 553 q 244 505 292 553 q 196 389 196 457 l 196 0 l 88 0 l 88 406 l 89 406 q 174 587 95 513 q 361 661 252 661 l 842 661 z "},"o":{"ha":1158,"x_min":88,"x_max":1070,"o":"m 844 661 q 1004 595 937 661 q 1070 435 1070 528 l 1070 227 q 1004 66 1070 133 q 844 0 937 0 l 315 0 q 155 66 221 0 q 88 227 88 133 l 88 435 q 155 595 88 528 q 315 661 221 661 l 844 661 m 962 435 q 928 519 962 484 q 844 553 892 553 l 315 553 q 231 519 265 553 q 195 435 195 484 l 195 227 q 231 142 195 177 q 315 107 265 107 l 844 107 q 928 142 892 107 q 962 227 962 177 l 962 435 z "},"p":{"ha":1158,"x_min":88,"x_max":1070,"o":"m 842 661 q 1003 593 936 661 q 1070 432 1070 526 l 1070 228 q 1003 66 1070 133 q 842 -1 936 -1 l 361 -1 q 196 55 269 -1 l 196 -285 l 88 -285 l 88 389 q 168 581 88 501 q 361 661 248 661 l 842 661 m 962 432 q 927 517 962 482 q 842 553 892 553 l 361 553 q 244 505 292 553 q 196 389 196 456 l 196 271 q 244 155 196 203 q 361 106 292 106 l 842 106 q 927 142 892 106 q 962 228 962 178 l 962 432 z "},"q":{"ha":1158,"x_min":88,"x_max":1070,"o":"m 798 661 q 990 581 910 661 q 1070 389 1070 501 l 1070 -285 l 962 -285 l 962 55 q 798 -1 890 -1 l 317 -1 q 155 66 222 -1 q 88 228 88 133 l 88 432 q 155 593 88 526 q 317 661 222 661 l 798 661 m 196 228 q 231 142 196 178 q 317 106 267 106 l 798 106 q 914 155 866 106 q 962 271 962 203 l 962 389 q 914 505 962 456 q 798 553 866 553 l 317 553 q 231 517 267 553 q 196 432 196 482 l 196 228 z "},"r":{"ha":904,"x_min":88,"x_max":897,"o":"m 88 435 q 155 595 88 528 q 315 661 221 661 l 897 661 l 897 553 l 315 553 q 231 519 266 553 q 196 435 196 484 l 196 0 l 88 0 l 88 435 z "},"s":{"ha":1156,"x_min":88,"x_max":1068,"o":"m 843 393 q 1011 331 948 393 q 1068 196 1068 275 q 1011 61 1068 117 q 843 0 947 0 l 88 0 l 88 107 l 843 107 q 932 135 900 107 q 960 196 960 159 q 932 257 960 233 q 843 285 900 285 l 314 285 q 146 344 209 285 q 88 473 88 397 q 146 602 88 549 q 314 661 209 661 l 977 661 l 977 554 l 314 553 q 224 528 256 553 q 196 473 196 506 q 224 418 196 440 q 314 393 256 393 l 843 393 z "},"t":{"ha":635,"x_min":88,"x_max":547,"o":"m 313 661 l 547 661 l 547 553 l 313 553 l 313 229 q 348 143 313 178 q 433 107 384 107 l 547 107 l 547 0 l 433 0 q 272 67 339 0 q 205 229 205 134 l 205 553 l 88 553 l 88 661 l 205 661 l 205 960 l 313 960 l 313 661 z "},"u":{"ha":1158,"x_min":88,"x_max":1070,"o":"m 963 661 l 1070 661 l 1070 227 q 1004 66 1070 133 q 844 0 937 0 l 315 0 q 155 66 221 0 q 88 227 88 133 l 88 661 l 196 661 l 196 227 q 231 142 196 177 q 315 107 266 107 l 844 107 q 928 142 893 107 q 963 227 963 177 l 963 661 z "},"v":{"ha":1064,"x_min":7,"x_max":1057,"o":"m 1057 661 l 791 192 q 682 53 726 90 q 537 0 621 0 l 526 0 q 378 52 441 0 q 270 194 327 96 l 7 661 l 127 661 l 361 245 q 448 130 410 160 q 526 104 479 104 l 537 104 q 614 132 583 104 q 702 247 646 159 l 937 661 l 1057 661 z "},"w":{"ha":1421,"x_min":88,"x_max":1333,"o":"m 1225 661 l 1333 661 l 1333 298 q 1245 87 1333 175 q 1034 0 1158 0 l 956 0 q 710 128 800 0 q 465 0 621 0 l 387 0 q 176 87 263 0 q 88 298 88 175 l 88 661 l 195 661 l 195 298 q 252 163 195 220 q 387 107 308 107 l 465 107 q 600 163 545 107 q 656 298 656 220 l 656 661 l 764 661 l 764 298 q 821 163 764 220 q 956 107 876 107 l 1034 107 q 1169 163 1113 107 q 1225 298 1225 220 l 1225 661 z "},"x":{"ha":1139,"x_min":88,"x_max":1051,"o":"m 943 661 l 1051 661 l 1051 474 q 989 334 1051 391 q 1051 197 1051 277 l 1051 0 l 943 0 l 943 197 q 905 264 943 236 q 854 287 875 287 l 286 287 q 222 260 248 287 q 196 197 196 235 l 196 0 l 88 0 l 88 197 q 147 338 88 280 q 88 474 88 393 l 88 661 l 196 661 l 196 474 q 219 418 196 441 q 275 395 242 395 l 864 395 q 920 418 897 395 q 943 474 943 441 l 943 661 z "},"y":{"ha":1100,"x_min":7,"x_max":1093,"o":"m 140 661 l 551 103 l 960 661 l 1093 661 l 627 24 l 457 -207 q 265 -298 390 -298 q 147 -269 201 -298 l 100 -243 l 151 -149 l 198 -174 q 264 -191 229 -191 q 293 -189 278 -191 q 370 -143 344 -180 l 484 12 l 7 661 l 140 661 z "},"z":{"ha":1111,"x_min":88,"x_max":1023,"o":"m 859 661 q 975 623 928 661 q 1023 530 1023 585 l 1023 527 q 878 395 1023 450 l 259 160 q 208 135 217 144 q 202 125 202 130 q 208 114 202 119 q 242 106 219 106 q 253 107 247 106 l 1000 107 l 1000 0 l 253 0 q 136 38 184 0 q 88 132 88 76 l 88 134 q 134 219 88 185 q 221 261 160 238 l 234 266 l 840 496 q 904 537 904 522 l 904 538 q 859 553 900 553 l 111 553 l 111 661 l 859 661 z "},"{":{"ha":612,"x_min":88,"x_max":524,"o":"m 231 787 q 281 909 231 859 q 404 960 332 960 l 524 960 l 524 852 l 404 852 q 357 833 377 852 q 338 787 338 814 q 341 568 338 755 q 343 507 343 534 q 339 450 343 471 q 278 344 327 391 q 339 238 327 298 q 343 181 343 217 q 341 121 343 155 q 338 -99 338 -68 q 357 -144 338 -125 q 404 -164 377 -164 l 524 -164 l 524 -271 l 404 -271 q 281 -221 332 -271 q 231 -99 231 -170 q 234 127 231 -64 q 235 175 235 155 q 230 229 235 214 q 161 298 218 262 l 88 344 l 161 389 q 230 458 218 425 q 235 513 235 474 q 234 561 235 534 q 231 787 231 752 z "},"|":{"ha":283,"x_min":88,"x_max":195,"o":"m 88 960 l 195 960 l 195 -271 l 88 -271 l 88 960 z "},"}":{"ha":612,"x_min":88,"x_max":524,"o":"m 381 787 q 378 561 381 752 q 376 513 376 534 q 382 458 376 474 q 451 389 394 425 l 524 344 l 451 298 q 382 229 394 262 q 376 175 376 214 q 378 127 376 155 q 381 -99 381 -64 q 330 -221 381 -170 q 208 -271 279 -271 l 88 -271 l 88 -164 l 208 -164 q 254 -144 235 -164 q 274 -99 274 -125 q 271 121 274 -68 q 269 181 269 155 q 273 238 269 217 q 334 344 285 298 q 273 450 285 391 q 269 507 269 471 q 271 568 269 534 q 274 787 274 755 q 254 833 274 814 q 208 852 235 852 l 88 852 l 88 960 l 208 960 q 330 909 279 960 q 381 787 381 859 z "},"~":{"ha":829,"x_min":68,"x_max":761,"o":"m 761 467 q 533 405 646 405 l 520 405 q 335 446 448 407 q 220 474 256 474 l 217 474 q 104 421 163 473 l 68 388 l 68 514 q 216 582 140 581 l 218 582 q 379 547 279 582 q 526 512 473 514 l 532 512 q 711 559 617 512 l 761 588 l 761 467 z "},"¡":{"ha":298,"x_min":95,"x_max":203,"o":"m 203 -299 l 96 -299 l 96 362 l 203 362 l 203 -299 m 203 553 l 95 553 l 95 661 l 203 661 l 203 553 z "},"¢":{"ha":729,"x_min":88,"x_max":641,"o":"m 524 172 l 558 214 l 641 144 l 606 103 q 377 0 519 0 q 355 1 367 0 l 332 -102 l 227 -77 l 251 26 q 134 121 177 59 q 88 262 88 186 l 88 401 q 173 587 88 509 q 377 663 258 663 q 398 663 387 663 l 422 765 l 527 741 l 503 637 q 597 570 558 612 l 634 531 l 555 458 l 519 497 q 478 529 501 515 l 380 108 q 524 172 471 109 m 196 262 q 275 134 196 180 l 374 555 q 248 509 300 555 q 196 401 196 465 l 196 262 z "},"£":{"ha":934,"x_min":88,"x_max":846,"o":"m 755 142 l 804 163 l 846 64 l 796 43 q 622 0 692 0 q 427 30 568 0 q 351 38 390 38 q 262 28 308 38 q 184 13 216 18 q 171 12 178 12 q 113 50 132 12 q 103 83 103 67 q 124 130 103 108 q 163 169 137 143 q 241 256 222 228 q 274 355 271 301 l 274 359 q 264 429 274 384 l 88 429 l 88 536 l 233 536 q 203 713 203 641 l 203 726 q 286 886 208 821 q 469 949 361 949 q 644 888 571 949 q 702 813 681 857 l 726 765 l 629 717 l 606 766 q 574 806 594 789 q 469 842 532 842 q 355 804 401 842 q 311 722 313 768 l 311 711 q 342 547 311 648 l 343 544 q 345 541 343 543 q 345 536 345 538 l 545 536 l 545 429 l 374 429 q 381 360 381 389 l 381 351 q 288 142 377 240 q 345 146 315 146 q 449 135 393 146 q 622 107 579 107 q 755 142 670 107 z "},"¤":{"ha":922,"x_min":88,"x_max":833,"o":"m 760 686 l 833 608 l 745 525 q 811 330 811 437 q 745 135 811 222 l 833 51 l 760 -27 l 667 60 q 460 -5 575 -5 q 254 60 347 -5 l 162 -27 l 88 51 l 176 135 q 110 330 110 222 q 176 525 110 437 l 88 608 l 162 686 l 254 600 q 460 664 347 664 q 667 600 575 664 l 760 686 m 288 171 q 460 103 359 103 q 634 171 562 103 l 651 189 q 704 330 704 251 q 651 471 704 408 l 634 488 q 460 556 562 556 q 288 488 359 556 l 271 471 q 218 330 218 408 q 271 189 218 251 l 288 171 z "},"¥":{"ha":876,"x_min":7,"x_max":869,"o":"m 125 959 l 438 514 l 751 959 l 869 959 l 537 487 l 667 487 l 667 379 l 492 379 l 492 326 l 667 326 l 667 218 l 492 218 l 492 0 l 384 0 l 384 218 l 210 218 l 210 326 l 384 326 l 384 379 l 210 379 l 210 487 l 338 487 l 7 959 l 125 959 z "},"¦":{"ha":283,"x_min":88,"x_max":195,"o":"m 88 221 l 195 221 l 195 -271 l 88 -271 l 88 221 m 88 960 l 195 960 l 195 462 l 88 462 l 88 960 z "},"§":{"ha":753,"x_min":54,"x_max":699,"o":"m 492 232 q 579 275 547 232 q 611 368 611 317 q 588 448 611 408 q 492 505 555 505 l 253 505 q 173 461 203 503 q 142 368 142 418 q 164 290 142 331 q 258 232 195 232 l 492 232 m 509 589 q 650 521 597 589 q 699 368 699 458 q 616 180 699 256 q 699 -26 699 94 q 649 -193 699 -122 q 509 -270 596 -270 l 85 -270 l 85 -185 l 485 -185 q 571 -135 539 -185 q 604 -20 604 -83 q 579 81 604 31 q 485 146 547 146 l 241 146 q 102 215 155 146 q 54 368 54 278 q 98 517 54 455 q 132 554 109 530 q 54 739 54 630 q 99 887 54 825 q 241 960 151 960 l 604 960 l 604 875 l 264 875 q 171 819 203 875 q 149 732 149 778 q 170 647 149 688 q 261 589 200 591 l 264 589 l 509 589 z "},"¨":{"ha":538,"x_min":88,"x_max":450,"o":"m 88 892 l 197 892 l 197 783 l 88 783 l 88 892 m 341 892 l 450 892 l 450 783 l 341 783 l 341 892 z "},"©":{"ha":1137,"x_min":88,"x_max":1048,"o":"m 347 571 q 395 686 347 639 q 510 734 443 734 l 743 734 l 743 659 l 510 659 q 448 633 474 659 q 422 571 422 608 l 422 385 q 448 323 422 349 q 510 297 474 297 l 743 297 l 743 222 l 510 222 q 395 270 443 222 q 347 385 347 317 l 347 571 m 568 960 q 907 819 766 960 q 1048 479 1048 678 q 907 140 1048 281 q 568 0 766 0 q 229 140 370 0 q 88 479 88 281 q 229 819 88 678 q 568 960 370 960 m 568 107 q 831 216 722 107 q 941 479 941 326 q 831 743 941 634 q 568 852 722 852 q 305 743 414 852 q 196 479 196 634 q 305 216 196 326 q 568 107 414 107 z "},"ª":{"ha":824,"x_min":2389,"x_max":3037,"o":"m 2539 627 q 2490 635 2511 627 q 2460 680 2460 649 l 2460 686 q 2490 731 2460 718 q 2539 739 2511 739 l 2886 739 q 2934 731 2914 739 q 2966 686 2966 718 q 2886 627 2966 627 l 2539 627 m 3037 829 q 2992 920 3037 882 q 2886 960 2947 960 l 2438 960 l 2438 895 l 2886 895 q 2943 873 2918 895 q 2966 829 2966 853 l 2966 789 q 2886 804 2930 804 l 2539 804 q 2430 772 2472 804 q 2389 686 2389 739 l 2389 680 q 2430 595 2389 627 q 2539 563 2472 563 l 2886 563 q 2995 596 2954 563 q 3037 686 3036 630 l 3037 829 z "},"«":{"ha":785,"x_min":0,"x_max":785,"o":"m 418 656 l 149 328 l 417 0 l 269 0 l 0 328 l 269 656 l 418 656 m 785 656 l 517 328 l 785 0 l 637 0 l 368 328 l 637 656 l 785 656 z "},"¬":{"ha":688,"x_min":59,"x_max":629,"o":"m 59 527 l 629 527 l 629 187 l 628 186 l 534 186 l 534 439 l 59 439 l 59 527 z "},"®":{"ha":1137,"x_min":88,"x_max":1048,"o":"m 743 444 q 801 319 801 395 l 801 223 l 726 223 l 726 319 q 700 382 726 356 q 637 408 674 408 l 433 408 l 433 223 l 357 223 l 357 637 q 387 707 357 678 q 456 736 416 736 l 637 736 q 759 685 713 736 q 800 572 800 638 q 743 444 800 492 m 637 483 q 707 515 684 483 q 725 572 725 539 q 707 629 725 604 q 637 661 684 661 l 456 661 q 433 637 433 661 l 433 483 l 637 483 m 568 960 q 908 819 767 960 q 1048 479 1048 678 q 908 140 1048 281 q 568 0 767 0 q 229 140 370 0 q 88 479 88 281 q 229 819 88 678 q 568 960 370 960 m 568 107 q 831 216 722 107 q 941 479 941 326 q 831 743 941 634 q 568 852 722 852 q 305 743 414 852 q 196 479 196 634 q 305 216 196 326 q 568 107 414 107 z "},"¯":{"ha":630,"x_min":88,"x_max":542,"o":"m 88 1013 l 542 1013 l 542 905 l 88 905 l 88 1013 z "},"°":{"ha":612,"x_min":68,"x_max":544,"o":"m 306 955 q 474 885 404 955 q 544 717 544 815 q 474 549 544 618 q 306 479 404 479 q 138 549 208 479 q 68 717 68 618 q 138 885 68 815 q 306 955 208 955 m 306 885 q 186 836 236 885 q 137 717 137 787 q 186 598 137 647 q 306 549 236 549 q 425 598 376 549 q 474 717 474 647 q 425 836 474 787 q 306 885 376 885 z "},"±":{"ha":917,"x_min":88,"x_max":842,"o":"m 513 598 l 829 598 l 829 490 l 513 490 l 513 210 l 405 210 l 405 490 l 88 490 l 88 598 l 405 598 l 405 879 l 513 879 l 513 598 m 88 155 l 842 155 l 842 47 l 88 47 l 88 155 z "},"²":{"ha":863,"x_min":88,"x_max":774,"o":"m 163 363 l 774 363 l 774 288 l 88 288 l 88 546 q 125 635 88 598 q 215 673 162 673 l 652 673 q 685 686 671 673 q 699 719 699 700 l 699 838 q 685 871 699 857 q 652 884 671 884 l 105 884 l 105 960 l 652 960 q 738 924 703 960 q 774 838 774 888 l 774 719 q 738 633 774 669 q 652 597 703 597 l 215 597 q 178 583 193 597 q 163 546 163 567 l 163 363 z "},"³":{"ha":798,"x_min":88,"x_max":710,"o":"m 588 960 q 675 924 638 960 q 710 838 710 888 l 710 720 q 676 635 710 671 q 710 551 710 600 l 710 410 q 675 323 710 359 q 588 288 638 288 l 88 288 l 88 363 l 588 363 q 621 376 608 363 q 635 410 635 391 l 635 551 q 621 584 635 570 q 588 597 608 597 l 113 597 l 113 673 l 588 673 q 621 686 608 673 q 635 720 635 700 l 635 838 q 621 871 635 857 q 588 884 608 884 l 88 884 l 88 960 l 588 960 z "},"´":{"ha":481,"x_min":170,"x_max":461,"o":"m 170 709 l 292 906 l 461 906 l 278 709 l 170 709 z "},"µ":{"ha":1084,"x_min":88,"x_max":996,"o":"m 888 949 l 996 949 l 996 280 l 888 280 l 888 422 q 542 280 751 280 q 195 422 332 280 l 195 0 l 88 0 l 88 949 l 195 949 l 195 682 q 297 474 195 560 q 542 388 399 388 q 786 474 685 388 q 888 682 888 560 l 888 949 z "},"¶":{"ha":755,"x_min":88,"x_max":667,"o":"m 667 842 l 566 842 l 566 0 l 459 0 l 459 842 l 421 842 l 421 0 l 314 0 l 314 402 q 152 501 214 427 q 88 671 88 576 q 152 841 88 766 q 314 949 214 915 l 667 949 l 667 842 z "},"·":{"ha":176,"x_min":88,"x_max":180,"o":"m 88 526 l 180 526 l 180 434 l 88 434 l 88 526 z "},"∙":{"ha":176,"x_min":88,"x_max":180,"o":"m 88 526 l 180 526 l 180 434 l 88 434 l 88 526 z "},"¸":{"ha":399,"x_min":114,"x_max":378,"o":"m 265 0 l 248 -66 q 334 -83 311 -66 q 378 -179 378 -117 q 343 -263 378 -228 q 258 -299 308 -299 l 114 -299 l 114 -214 l 258 -214 q 292 -179 292 -214 q 281 -149 292 -159 q 259 -143 273 -143 l 194 -143 q 165 -131 178 -143 q 152 -102 152 -119 q 154 -90 152 -96 l 177 0 l 265 0 z "},"¹":{"ha":454,"x_min":88,"x_max":366,"o":"m 328 956 q 366 901 366 941 l 366 288 l 291 288 l 291 852 l 149 661 l 88 706 l 261 937 q 291 958 273 953 q 307 960 298 960 q 328 956 317 960 z "},"º":{"ha":825,"x_min":88,"x_max":736,"o":"m 587 960 q 692 920 648 960 q 736 824 736 880 l 736 699 q 692 603 736 643 q 587 563 648 563 l 237 563 q 132 603 176 563 q 88 699 88 643 l 88 824 q 132 920 88 880 q 237 960 176 960 l 587 960 m 665 824 q 642 874 665 853 q 587 895 619 895 l 237 895 q 182 874 205 895 q 159 824 159 853 l 159 699 q 182 648 159 669 q 237 627 205 627 l 587 627 q 642 648 619 627 q 665 699 665 669 l 665 824 z "},"»":{"ha":785,"x_min":0,"x_max":785,"o":"m 149 656 l 418 328 l 149 0 l 1 0 l 269 328 l 0 656 l 149 656 m 516 656 l 785 328 l 516 0 l 368 0 l 636 328 l 368 656 l 516 656 z "},"¼":{"ha":1810,"x_min":88,"x_max":1722,"o":"m 328 956 q 366 901 366 941 l 366 288 l 291 288 l 291 852 l 149 661 l 88 706 l 261 937 q 291 958 273 953 q 307 960 298 960 q 328 956 317 960 m 298 -28 l 1015 979 l 1097 979 l 381 -28 l 298 -28 m 1579 225 l 1722 225 l 1722 150 l 1579 150 l 1579 0 l 1504 0 l 1504 150 l 947 150 q 891 189 905 150 q 887 210 887 199 q 890 227 887 218 q 911 256 895 245 l 1485 660 q 1520 672 1502 672 q 1545 667 1533 672 q 1579 613 1579 650 l 1579 225 m 1507 587 l 996 229 l 1507 229 l 1507 587 z "},"½":{"ha":1662,"x_min":88,"x_max":1573,"o":"m 328 956 q 366 901 366 941 l 366 288 l 291 288 l 291 852 l 149 661 l 88 706 l 261 937 q 291 958 273 953 q 307 960 298 960 q 328 956 317 960 m 231 -28 l 947 979 l 1029 979 l 313 -28 l 231 -28 m 962 75 l 1573 76 l 1573 1 l 887 1 l 887 258 q 924 348 887 311 q 1014 385 961 385 l 1451 385 q 1484 399 1470 385 q 1497 431 1497 412 l 1497 551 q 1484 583 1497 570 q 1451 597 1470 597 l 904 597 l 904 672 l 1451 672 q 1537 637 1501 672 q 1573 551 1573 601 l 1573 431 q 1537 345 1573 381 q 1451 310 1501 310 l 1014 310 q 977 295 992 310 q 962 258 962 279 l 962 75 z "},"¾":{"ha":1998,"x_min":88,"x_max":1930,"o":"m 588 960 q 675 924 638 960 q 710 838 710 888 l 710 720 q 676 635 710 671 q 710 551 710 600 l 710 410 q 675 323 710 359 q 588 288 638 288 l 88 288 l 88 363 l 588 363 q 621 376 608 363 q 635 410 635 391 l 635 551 q 621 584 635 570 q 588 597 608 597 l 113 597 l 113 673 l 588 673 q 621 686 608 673 q 635 720 635 700 l 635 838 q 621 871 635 857 q 588 884 608 884 l 88 884 l 88 960 l 588 960 m 574 -28 l 1291 979 l 1373 979 l 657 -28 l 574 -28 m 1788 226 l 1930 226 l 1930 150 l 1788 150 l 1788 0 l 1712 0 l 1712 150 l 1155 150 q 1099 189 1114 150 q 1095 210 1095 199 q 1098 227 1095 218 q 1119 256 1103 245 l 1693 660 q 1729 672 1710 672 q 1753 667 1741 672 q 1788 613 1788 650 l 1788 226 m 1715 587 l 1204 229 l 1715 229 l 1715 587 z "},"¿":{"ha":1156,"x_min":88,"x_max":1067,"o":"m 262 -300 q 139 -249 190 -300 q 88 -126 88 -198 l 88 43 q 139 166 88 115 q 262 218 190 218 l 532 218 q 585 239 563 218 q 606 291 606 260 l 606 444 l 713 444 l 713 291 q 661 163 713 216 q 532 110 608 110 l 262 110 q 215 90 235 110 q 196 43 196 71 l 196 -126 q 215 -173 196 -153 q 262 -193 235 -193 l 1067 -193 l 1067 -300 l 262 -300 m 712 553 l 604 553 l 604 661 l 712 661 l 712 553 z "},"À":{"ha":1265,"x_min":88,"x_max":1177,"o":"m 878 960 q 1088 872 1001 960 q 1177 661 1177 785 l 1177 0 l 1069 0 l 1069 442 l 196 442 l 196 0 l 88 0 l 88 661 q 176 872 88 785 q 387 960 263 960 l 878 960 m 1069 550 l 1069 661 q 1013 796 1069 740 q 878 852 956 852 l 387 852 q 252 796 308 852 q 196 661 196 740 l 196 550 l 1069 550 m 626 1006 l 443 1204 l 612 1204 l 734 1006 l 626 1006 z "},"Á":{"ha":1265,"x_min":88,"x_max":1177,"o":"m 878 960 q 1088 872 1001 960 q 1177 661 1177 785 l 1177 0 l 1069 0 l 1069 442 l 196 442 l 196 0 l 88 0 l 88 661 q 176 872 88 785 q 387 960 263 960 l 878 960 m 1069 550 l 1069 661 q 1013 796 1069 740 q 878 852 956 852 l 387 852 q 252 796 308 852 q 196 661 196 740 l 196 550 l 1069 550 m 531 1007 l 653 1204 l 822 1204 l 639 1007 l 531 1007 z "},"Â":{"ha":1265,"x_min":88,"x_max":1177,"o":"m 878 960 q 1088 872 1001 960 q 1177 661 1177 785 l 1177 0 l 1069 0 l 1069 442 l 196 442 l 196 0 l 88 0 l 88 661 q 176 872 88 785 q 387 960 263 960 l 878 960 m 1069 550 l 1069 661 q 1013 796 1069 740 q 878 852 956 852 l 387 852 q 252 796 308 852 q 196 661 196 740 l 196 550 l 1069 550 m 718 1204 l 895 1007 l 746 1007 l 633 1141 l 519 1007 l 371 1007 l 547 1204 l 718 1204 z "},"Ã":{"ha":1265,"x_min":88,"x_max":1177,"o":"m 878 960 q 1088 872 1001 960 q 1177 661 1177 785 l 1177 0 l 1069 0 l 1069 442 l 196 442 l 196 0 l 88 0 l 88 661 q 176 872 88 785 q 387 960 263 960 l 878 960 m 1069 550 l 1069 661 q 1013 796 1069 740 q 878 852 956 852 l 387 852 q 252 796 308 852 q 196 661 196 740 l 196 550 l 1069 550 m 471 1054 l 368 1054 q 501 1202 387 1201 l 505 1202 q 617 1177 547 1202 q 725 1152 686 1152 l 731 1152 q 744 1152 738 1152 q 802 1200 798 1152 l 896 1200 q 734 1051 884 1051 l 726 1051 q 583 1081 668 1051 q 515 1101 541 1101 l 510 1101 q 471 1054 490 1101 z "},"Ä":{"ha":1265,"x_min":88,"x_max":1177,"o":"m 878 960 q 1088 872 1001 960 q 1177 661 1177 785 l 1177 0 l 1069 0 l 1069 442 l 196 442 l 196 0 l 88 0 l 88 661 q 176 872 88 785 q 387 960 263 960 l 878 960 m 1069 550 l 1069 661 q 1013 796 1069 740 q 878 852 956 852 l 387 852 q 252 796 308 852 q 196 661 196 740 l 196 550 l 1069 550 m 452 1190 l 560 1190 l 560 1082 l 452 1082 l 452 1190 m 705 1190 l 813 1190 l 813 1082 l 705 1082 l 705 1190 z "},"Å":{"ha":1265,"x_min":88,"x_max":1177,"o":"m 878 960 q 1088 872 1001 960 q 1177 661 1177 785 l 1177 0 l 1069 0 l 1069 442 l 196 442 l 196 0 l 88 0 l 88 661 q 176 872 88 785 q 387 960 263 960 l 878 960 m 1069 550 l 1069 661 q 1013 796 1069 740 q 878 852 956 852 l 387 852 q 252 796 308 852 q 196 661 196 740 l 196 550 l 1069 550 m 633 1259 q 737 1216 694 1259 q 780 1112 780 1173 q 737 1007 780 1050 q 633 964 694 964 q 529 1007 572 964 q 486 1112 486 1050 q 529 1216 486 1173 q 633 1259 572 1259 m 633 1177 q 587 1158 606 1177 q 568 1112 568 1139 q 587 1066 568 1085 q 633 1046 606 1046 q 679 1066 659 1046 q 698 1112 698 1085 q 679 1158 698 1139 q 633 1177 659 1177 z "},"Æ":{"ha":1657,"x_min":88,"x_max":1590,"o":"m 816 870 q 968 960 866 960 l 1590 960 l 1590 852 l 968 852 q 921 833 941 852 q 902 785 902 813 l 902 550 l 1590 550 l 1590 442 l 902 442 l 902 107 l 1590 107 l 1590 0 l 794 0 l 794 442 l 196 442 l 196 0 l 88 0 l 88 661 q 176 872 88 785 q 387 960 263 960 l 603 960 q 816 870 728 960 m 794 550 l 794 661 q 738 796 794 740 q 603 852 682 852 l 387 852 q 252 796 308 852 q 196 661 196 740 l 196 550 l 794 550 z "},"Ç":{"ha":1265,"x_min":88,"x_max":1177,"o":"m 678 0 l 387 0 q 176 87 264 0 q 88 298 88 175 l 88 661 q 176 872 88 785 q 387 960 264 960 l 1177 960 l 1177 852 l 387 852 q 252 796 308 852 q 196 661 196 740 l 196 298 q 252 163 196 220 q 387 107 308 107 l 1177 107 l 1177 0 l 766 0 l 749 -66 q 835 -83 812 -66 q 880 -179 880 -117 q 844 -263 880 -229 q 760 -299 809 -299 l 615 -299 l 615 -214 l 760 -214 q 793 -179 793 -214 q 782 -150 793 -159 q 760 -143 774 -143 l 696 -143 q 666 -131 679 -143 q 653 -102 653 -119 q 655 -90 653 -96 l 678 0 z "},"È":{"ha":1019,"x_min":88,"x_max":999,"o":"m 88 785 q 139 909 88 858 q 262 960 190 960 l 999 960 l 999 852 l 262 852 q 215 833 235 852 q 195 785 195 813 l 195 550 l 999 550 l 999 442 l 195 442 l 195 107 l 999 107 l 999 0 l 88 0 l 88 785 m 503 1006 l 320 1204 l 489 1204 l 611 1006 l 503 1006 z "},"É":{"ha":1019,"x_min":88,"x_max":999,"o":"m 88 785 q 139 909 88 858 q 262 960 190 960 l 999 960 l 999 852 l 262 852 q 215 833 235 852 q 195 785 195 813 l 195 550 l 999 550 l 999 442 l 195 442 l 195 107 l 999 107 l 999 0 l 88 0 l 88 785 m 408 1007 l 530 1204 l 699 1204 l 516 1007 l 408 1007 z "},"Ê":{"ha":1019,"x_min":88,"x_max":999,"o":"m 88 785 q 139 909 88 858 q 262 960 190 960 l 999 960 l 999 852 l 262 852 q 215 833 235 852 q 195 785 195 813 l 195 550 l 999 550 l 999 442 l 195 442 l 195 107 l 999 107 l 999 0 l 88 0 l 88 785 m 663 1204 l 840 1007 l 691 1007 l 578 1141 l 465 1007 l 316 1007 l 492 1204 l 663 1204 z "},"Ë":{"ha":1019,"x_min":88,"x_max":999,"o":"m 88 785 q 139 909 88 858 q 262 960 190 960 l 999 960 l 999 852 l 262 852 q 215 833 235 852 q 195 785 195 813 l 195 550 l 999 550 l 999 442 l 195 442 l 195 107 l 999 107 l 999 0 l 88 0 l 88 785 m 397 1190 l 505 1190 l 505 1082 l 397 1082 l 397 1190 m 650 1190 l 758 1190 l 758 1082 l 650 1082 l 650 1190 z "},"Ì":{"ha":325,"x_min":-68,"x_max":223,"o":"m 114 960 l 222 960 l 222 0 l 114 0 l 114 960 m 115 1013 l -68 1211 l 101 1211 l 223 1013 l 115 1013 z "},"Í":{"ha":328,"x_min":102,"x_max":395,"o":"m 102 960 l 210 960 l 210 0 l 102 0 l 102 960 m 104 1014 l 227 1211 l 395 1211 l 212 1014 l 104 1014 z "},"Î":{"ha":347,"x_min":-88,"x_max":435,"o":"m 120 960 l 228 960 l 228 0 l 120 0 l 120 960 m 259 1191 l 435 994 l 287 994 l 174 1128 l 60 994 l -88 994 l 88 1191 l 259 1191 z "},"Ï":{"ha":321,"x_min":-20,"x_max":341,"o":"m 106 960 l 214 960 l 214 0 l 106 0 l 106 960 m -20 1190 l 88 1190 l 88 1082 l -20 1082 l -20 1190 m 233 1190 l 341 1190 l 341 1082 l 233 1082 l 233 1190 z "},"Ð":{"ha":1396,"x_min":7,"x_max":1308,"o":"m 1008 960 q 1219 872 1132 960 q 1308 661 1308 785 l 1308 298 q 1219 87 1308 175 q 1008 0 1132 0 l 219 0 l 219 424 l 7 424 l 7 532 l 219 532 l 219 785 q 270 909 219 858 q 393 960 321 960 l 1008 960 m 1200 661 q 1143 796 1200 740 q 1008 852 1087 852 l 393 852 q 347 833 366 852 q 327 785 327 813 l 327 532 l 539 532 l 539 424 l 327 424 l 327 107 l 1008 107 q 1143 163 1087 107 q 1200 298 1200 220 l 1200 661 z "},"Ñ":{"ha":1265,"x_min":88,"x_max":1177,"o":"m 878 960 q 1089 872 1001 960 q 1177 661 1177 785 l 1177 1 l 1069 1 l 1069 661 q 1013 796 1069 740 q 878 852 957 852 l 387 852 q 252 796 308 852 q 196 661 196 740 l 196 0 l 88 0 l 88 661 q 176 872 88 785 q 387 960 264 960 l 878 960 m 471 1054 l 369 1054 q 502 1202 387 1201 l 505 1202 q 618 1177 547 1202 q 726 1152 686 1152 l 732 1152 q 745 1152 739 1152 q 803 1200 798 1152 l 897 1200 q 734 1051 884 1051 l 726 1051 q 584 1081 669 1051 q 515 1101 541 1101 l 511 1101 q 471 1054 490 1101 z "},"Ò":{"ha":1265,"x_min":88,"x_max":1177,"o":"m 878 960 q 1089 872 1001 960 q 1177 661 1177 785 l 1177 298 q 1089 87 1177 175 q 878 0 1001 0 l 387 0 q 176 87 264 0 q 88 298 88 175 l 88 661 q 176 872 88 785 q 387 960 264 960 l 878 960 m 1069 661 q 1013 796 1069 740 q 878 852 957 852 l 387 852 q 252 796 308 852 q 196 661 196 740 l 196 298 q 252 163 196 220 q 387 107 308 107 l 878 107 q 1013 163 957 107 q 1069 298 1069 220 l 1069 661 m 622 1006 l 439 1204 l 608 1204 l 730 1006 l 622 1006 z "},"Ó":{"ha":1265,"x_min":88,"x_max":1177,"o":"m 878 960 q 1089 872 1001 960 q 1177 661 1177 785 l 1177 298 q 1089 87 1177 175 q 878 0 1001 0 l 387 0 q 176 87 264 0 q 88 298 88 175 l 88 661 q 176 872 88 785 q 387 960 264 960 l 878 960 m 1069 661 q 1013 796 1069 740 q 878 852 957 852 l 387 852 q 252 796 308 852 q 196 661 196 740 l 196 298 q 252 163 196 220 q 387 107 308 107 l 878 107 q 1013 163 957 107 q 1069 298 1069 220 l 1069 661 m 536 1007 l 658 1204 l 827 1204 l 644 1007 l 536 1007 z "},"Ô":{"ha":1265,"x_min":88,"x_max":1177,"o":"m 878 960 q 1089 872 1001 960 q 1177 661 1177 785 l 1177 298 q 1089 87 1177 175 q 878 0 1001 0 l 387 0 q 176 87 264 0 q 88 298 88 175 l 88 661 q 176 872 88 785 q 387 960 264 960 l 878 960 m 1069 661 q 1013 796 1069 740 q 878 852 957 852 l 387 852 q 252 796 308 852 q 196 661 196 740 l 196 298 q 252 163 196 220 q 387 107 308 107 l 878 107 q 1013 163 957 107 q 1069 298 1069 220 l 1069 661 m 718 1204 l 895 1007 l 746 1007 l 633 1141 l 519 1007 l 371 1007 l 547 1204 l 718 1204 z "},"Õ":{"ha":1265,"x_min":88,"x_max":1177,"o":"m 878 960 q 1089 872 1001 960 q 1177 661 1177 785 l 1177 298 q 1089 87 1177 175 q 878 0 1001 0 l 387 0 q 176 87 264 0 q 88 298 88 175 l 88 661 q 176 872 88 785 q 387 960 264 960 l 878 960 m 1069 661 q 1013 796 1069 740 q 878 852 957 852 l 387 852 q 252 796 308 852 q 196 661 196 740 l 196 298 q 252 163 196 220 q 387 107 308 107 l 878 107 q 1013 163 957 107 q 1069 298 1069 220 l 1069 661 m 471 1054 l 369 1054 q 502 1202 387 1201 l 505 1202 q 618 1177 547 1202 q 726 1152 686 1152 l 732 1152 q 745 1152 739 1152 q 803 1200 798 1152 l 897 1200 q 734 1051 884 1051 l 726 1051 q 584 1081 669 1051 q 515 1101 541 1101 l 511 1101 q 471 1054 490 1101 z "},"Ö":{"ha":1265,"x_min":88,"x_max":1177,"o":"m 878 960 q 1089 872 1001 960 q 1177 661 1177 785 l 1177 298 q 1089 87 1177 175 q 878 0 1001 0 l 387 0 q 176 87 264 0 q 88 298 88 175 l 88 661 q 176 872 88 785 q 387 960 264 960 l 878 960 m 1069 661 q 1013 796 1069 740 q 878 852 957 852 l 387 852 q 252 796 308 852 q 196 661 196 740 l 196 298 q 252 163 196 220 q 387 107 308 107 l 878 107 q 1013 163 957 107 q 1069 298 1069 220 l 1069 661 m 452 1190 l 560 1190 l 560 1082 l 452 1082 l 452 1190 m 705 1190 l 813 1190 l 813 1082 l 705 1082 l 705 1190 z "},"×":{"ha":883,"x_min":88,"x_max":795,"o":"m 718 706 l 795 630 l 517 353 l 795 76 l 718 0 l 441 277 l 164 0 l 88 76 l 366 353 l 88 630 l 164 706 l 441 429 l 718 706 z "},"Ø":{"ha":1265,"x_min":88,"x_max":1177,"o":"m 964 945 q 1116 839 1057 918 q 1177 659 1177 760 l 1177 297 q 1089 86 1177 174 q 878 -1 1001 -1 l 418 -1 l 355 -109 l 262 -55 l 300 12 q 149 118 208 39 q 88 297 88 197 l 88 659 q 176 871 88 783 q 387 958 264 958 l 848 958 l 909 1065 l 1002 1012 l 964 945 m 196 297 q 242 173 196 227 q 357 109 288 120 l 785 851 l 387 851 q 252 795 308 851 q 196 659 196 739 l 196 297 m 1069 659 q 1023 784 1069 730 q 908 848 977 837 l 479 106 l 878 106 q 1013 162 957 106 q 1069 297 1069 218 l 1069 659 z "},"Ù":{"ha":1265,"x_min":88,"x_max":1177,"o":"m 1069 960 l 1177 960 l 1177 298 q 1089 87 1177 175 q 878 0 1001 0 l 387 0 q 176 87 264 0 q 88 298 88 175 l 88 960 l 196 960 l 196 298 q 252 163 196 220 q 387 107 308 107 l 878 107 q 1013 163 957 107 q 1069 298 1069 220 l 1069 960 m 622 1006 l 439 1204 l 608 1204 l 730 1006 l 622 1006 z "},"Ú":{"ha":1265,"x_min":88,"x_max":1177,"o":"m 1069 960 l 1177 960 l 1177 298 q 1089 87 1177 175 q 878 0 1001 0 l 387 0 q 176 87 264 0 q 88 298 88 175 l 88 960 l 196 960 l 196 298 q 252 163 196 220 q 387 107 308 107 l 878 107 q 1013 163 957 107 q 1069 298 1069 220 l 1069 960 m 536 1007 l 658 1204 l 827 1204 l 644 1007 l 536 1007 z "},"Û":{"ha":1265,"x_min":88,"x_max":1177,"o":"m 1069 960 l 1177 960 l 1177 298 q 1089 87 1177 175 q 878 0 1001 0 l 387 0 q 176 87 264 0 q 88 298 88 175 l 88 960 l 196 960 l 196 298 q 252 163 196 220 q 387 107 308 107 l 878 107 q 1013 163 957 107 q 1069 298 1069 220 l 1069 960 m 718 1204 l 895 1007 l 746 1007 l 633 1141 l 519 1007 l 371 1007 l 547 1204 l 718 1204 z "},"Ü":{"ha":1265,"x_min":88,"x_max":1177,"o":"m 1069 960 l 1177 960 l 1177 298 q 1089 87 1177 175 q 878 0 1001 0 l 387 0 q 176 87 264 0 q 88 298 88 175 l 88 960 l 196 960 l 196 298 q 252 163 196 220 q 387 107 308 107 l 878 107 q 1013 163 957 107 q 1069 298 1069 220 l 1069 960 m 452 1190 l 560 1190 l 560 1082 l 452 1082 l 452 1190 m 705 1190 l 813 1190 l 813 1082 l 705 1082 l 705 1190 z "},"Ý":{"ha":1265,"x_min":88,"x_max":1177,"o":"m 1069 960 l 1177 960 l 1177 298 q 1088 87 1177 175 q 878 0 1001 0 l 88 0 l 88 107 l 878 107 q 1013 163 956 107 q 1069 298 1069 220 l 1069 458 q 878 389 985 389 l 387 389 q 176 477 263 389 q 88 742 88 564 l 88 960 l 196 960 l 196 742 q 252 553 196 609 q 387 496 308 496 l 878 496 q 1013 553 956 496 q 1069 742 1069 609 l 1069 960 m 536 1007 l 658 1204 l 827 1204 l 644 1007 l 536 1007 z "},"Þ":{"ha":914,"x_min":88,"x_max":826,"o":"m 570 749 q 761 664 689 749 q 826 477 826 587 q 761 290 826 368 q 570 205 689 205 l 195 205 l 195 0 l 88 0 l 88 959 l 195 959 l 195 749 l 570 749 m 570 313 q 688 372 648 313 q 718 477 718 417 q 688 582 718 537 q 570 642 648 642 l 195 642 l 195 313 l 570 313 z "},"ß":{"ha":795,"x_min":88,"x_max":707,"o":"m 529 470 q 652 376 615 416 q 707 241 707 314 q 706 218 707 230 q 645 85 697 134 q 506 33 593 38 q 485 33 495 33 q 465 33 475 33 q 325 85 380 39 q 269 198 269 132 l 269 252 l 377 252 l 377 198 q 406 160 377 177 q 472 140 433 143 l 500 140 q 571 164 549 143 q 600 231 594 184 q 600 239 600 235 q 566 309 600 275 q 472 378 541 336 q 442 397 452 391 q 356 529 361 450 l 356 539 q 434 684 356 616 q 465 750 465 711 l 465 753 q 444 823 465 800 q 368 851 420 846 q 342 852 355 852 q 315 851 328 852 q 211 800 240 844 q 196 753 196 777 l 196 0 l 88 0 l 88 753 q 131 872 88 817 q 305 958 189 948 q 342 960 324 960 q 378 958 361 960 q 523 895 472 949 q 573 752 573 841 l 573 749 q 505 603 572 661 q 463 538 463 566 l 463 536 q 501 487 465 511 q 529 470 509 481 z "},"à":{"ha":1118,"x_min":68,"x_max":1050,"o":"m 296 107 q 222 121 253 107 q 176 196 176 144 l 176 205 q 222 280 176 258 q 296 294 252 294 l 821 294 q 895 280 865 294 q 942 206 942 258 q 821 107 942 107 l 296 107 m 1050 443 q 982 596 1050 532 q 821 661 914 661 l 143 661 l 143 553 l 821 553 q 907 517 871 553 q 942 443 942 484 l 942 376 q 821 402 889 402 l 296 402 q 131 348 194 402 q 68 205 68 294 l 68 196 q 131 54 68 108 q 296 0 194 0 l 821 0 q 987 56 925 0 q 1050 205 1049 112 l 1050 443 m 548 708 l 365 905 l 534 905 l 656 708 l 548 708 z "},"á":{"ha":1118,"x_min":68,"x_max":1050,"o":"m 296 107 q 222 121 253 107 q 176 196 176 144 l 176 205 q 222 280 176 258 q 296 294 252 294 l 821 294 q 895 280 865 294 q 942 206 942 258 q 821 107 942 107 l 296 107 m 1050 443 q 982 596 1050 532 q 821 661 914 661 l 143 661 l 143 553 l 821 553 q 907 517 871 553 q 942 443 942 484 l 942 376 q 821 402 889 402 l 296 402 q 131 348 194 402 q 68 205 68 294 l 68 196 q 131 54 68 108 q 296 0 194 0 l 821 0 q 987 56 925 0 q 1050 205 1049 112 l 1050 443 m 462 709 l 584 906 l 753 906 l 570 709 l 462 709 z "},"â":{"ha":1118,"x_min":68,"x_max":1050,"o":"m 296 107 q 222 121 253 107 q 176 196 176 144 l 176 205 q 222 280 176 258 q 296 294 252 294 l 821 294 q 895 280 865 294 q 942 206 942 258 q 821 107 942 107 l 296 107 m 1050 443 q 982 596 1050 532 q 821 661 914 661 l 143 661 l 143 553 l 821 553 q 907 517 871 553 q 942 443 942 484 l 942 376 q 821 402 889 402 l 296 402 q 131 348 194 402 q 68 205 68 294 l 68 196 q 131 54 68 108 q 296 0 194 0 l 821 0 q 987 56 925 0 q 1050 205 1049 112 l 1050 443 m 644 906 l 821 709 l 672 709 l 559 843 l 446 709 l 297 709 l 473 906 l 644 906 z "},"ã":{"ha":1118,"x_min":68,"x_max":1050,"o":"m 296 107 q 222 121 253 107 q 176 196 176 144 l 176 205 q 222 280 176 258 q 296 294 252 294 l 821 294 q 895 280 865 294 q 942 206 942 258 q 821 107 942 107 l 296 107 m 1050 443 q 982 596 1050 532 q 821 661 914 661 l 143 661 l 143 553 l 821 553 q 907 517 871 553 q 942 443 942 484 l 942 376 q 821 402 889 402 l 296 402 q 131 348 194 402 q 68 205 68 294 l 68 196 q 131 54 68 108 q 296 0 194 0 l 821 0 q 987 56 925 0 q 1050 205 1049 112 l 1050 443 m 397 755 l 295 755 q 428 903 313 903 l 431 903 q 544 878 473 903 q 652 854 612 854 l 658 854 q 671 853 665 853 q 729 902 724 853 l 823 902 q 661 753 810 753 l 652 753 q 510 783 595 753 q 441 803 467 803 l 437 803 q 397 755 416 803 z "},"ä":{"ha":1118,"x_min":68,"x_max":1050,"o":"m 296 107 q 222 121 253 107 q 176 196 176 144 l 176 205 q 222 280 176 258 q 296 294 252 294 l 821 294 q 895 280 865 294 q 942 206 942 258 q 821 107 942 107 l 296 107 m 1050 443 q 982 596 1050 532 q 821 661 914 661 l 143 661 l 143 553 l 821 553 q 907 517 871 553 q 942 443 942 484 l 942 376 q 821 402 889 402 l 296 402 q 131 348 194 402 q 68 205 68 294 l 68 196 q 131 54 68 108 q 296 0 194 0 l 821 0 q 987 56 925 0 q 1050 205 1049 112 l 1050 443 m 378 892 l 487 892 l 487 783 l 378 783 l 378 892 m 631 892 l 740 892 l 740 783 l 631 783 l 631 892 z "},"å":{"ha":1118,"x_min":68,"x_max":1050,"o":"m 296 107 q 222 121 253 107 q 176 196 176 144 l 176 205 q 222 280 176 258 q 296 294 252 294 l 821 294 q 895 280 865 294 q 942 206 942 258 q 821 107 942 107 l 296 107 m 1050 443 q 982 596 1050 532 q 821 661 914 661 l 143 661 l 143 553 l 821 553 q 907 517 871 553 q 942 443 942 484 l 942 376 q 821 402 889 402 l 296 402 q 131 348 194 402 q 68 205 68 294 l 68 196 q 131 54 68 108 q 296 0 194 0 l 821 0 q 987 56 925 0 q 1050 205 1049 112 l 1050 443 m 559 960 q 663 917 620 960 q 706 813 706 874 q 663 709 706 752 q 559 666 620 666 q 455 709 498 666 q 412 813 412 752 q 455 917 412 874 q 559 960 498 960 m 559 878 q 513 859 532 878 q 494 813 494 840 q 513 767 494 787 q 559 748 532 748 q 605 767 585 748 q 624 813 624 787 q 605 859 624 840 q 559 878 585 878 z "},"æ":{"ha":1233,"x_min":88,"x_max":1145,"o":"m 854 661 q 1059 585 974 661 q 1145 400 1145 508 l 1145 277 l 670 277 l 670 261 q 724 153 670 197 q 854 107 778 107 q 1008 178 953 107 l 1040 221 l 1126 155 l 1093 113 q 854 0 1006 0 q 636 87 723 0 q 458 0 573 0 l 300 0 q 150 56 212 0 q 88 192 88 113 q 150 328 88 272 q 300 385 212 385 l 562 385 l 562 413 l 562 413 l 562 466 l 562 469 q 540 524 562 502 q 458 553 511 553 l 300 553 q 216 519 248 553 l 180 479 l 100 551 l 136 591 q 300 661 200 661 l 458 661 q 616 600 557 661 q 637 574 627 589 q 854 661 724 661 m 562 277 l 300 277 q 227 252 258 277 q 196 192 196 227 q 227 132 196 157 q 300 107 258 107 l 458 107 q 532 132 500 107 q 562 192 562 157 l 562 277 m 1037 385 l 1037 400 q 983 509 1037 463 q 854 553 929 553 q 724 509 778 553 q 670 400 670 463 l 670 385 l 1037 385 z "},"ç":{"ha":1067,"x_min":88,"x_max":979,"o":"m 554 0 l 361 0 q 168 79 248 0 q 88 272 88 159 l 88 389 q 168 581 88 502 q 361 661 248 661 l 979 661 l 979 553 l 361 553 q 244 505 292 553 q 196 389 196 457 l 196 272 q 244 156 196 204 q 361 107 292 107 l 979 107 l 979 0 l 642 0 l 625 -66 q 710 -83 688 -66 q 755 -179 755 -117 q 720 -263 755 -228 q 635 -299 685 -299 l 491 -299 l 491 -213 l 635 -213 q 669 -179 669 -213 q 657 -149 669 -159 q 635 -143 650 -143 l 571 -143 q 541 -131 555 -143 q 529 -102 529 -118 q 530 -90 529 -96 l 554 0 z "},"è":{"ha":1158,"x_min":88,"x_max":1070,"o":"m 798 661 q 990 581 910 661 q 1070 389 1070 502 l 1070 300 l 195 300 l 195 229 q 231 143 195 178 q 317 107 267 107 l 1069 107 l 1069 0 l 317 0 q 155 67 222 0 q 88 229 88 134 l 88 433 q 155 594 88 527 q 317 661 222 661 l 798 661 m 961 408 q 907 511 954 469 q 798 553 861 553 l 317 553 q 231 518 267 553 q 195 433 195 483 l 195 408 l 961 408 m 568 708 l 385 905 l 554 905 l 676 708 l 568 708 z "},"é":{"ha":1158,"x_min":88,"x_max":1070,"o":"m 798 661 q 990 581 910 661 q 1070 389 1070 502 l 1070 300 l 195 300 l 195 229 q 231 143 195 178 q 317 107 267 107 l 1069 107 l 1069 0 l 317 0 q 155 67 222 0 q 88 229 88 134 l 88 433 q 155 594 88 527 q 317 661 222 661 l 798 661 m 961 408 q 907 511 954 469 q 798 553 861 553 l 317 553 q 231 518 267 553 q 195 433 195 483 l 195 408 l 961 408 m 482 709 l 604 906 l 773 906 l 590 709 l 482 709 z "},"ê":{"ha":1158,"x_min":88,"x_max":1070,"o":"m 798 661 q 990 581 910 661 q 1070 389 1070 502 l 1070 300 l 195 300 l 195 229 q 231 143 195 178 q 317 107 267 107 l 1069 107 l 1069 0 l 317 0 q 155 67 222 0 q 88 229 88 134 l 88 433 q 155 594 88 527 q 317 661 222 661 l 798 661 m 961 408 q 907 511 954 469 q 798 553 861 553 l 317 553 q 231 518 267 553 q 195 433 195 483 l 195 408 l 961 408 m 665 906 l 841 709 l 692 709 l 579 843 l 466 709 l 317 709 l 494 906 l 665 906 z "},"ë":{"ha":1158,"x_min":88,"x_max":1070,"o":"m 798 661 q 990 581 910 661 q 1070 389 1070 502 l 1070 300 l 195 300 l 195 229 q 231 143 195 178 q 317 107 267 107 l 1069 107 l 1069 0 l 317 0 q 155 67 222 0 q 88 229 88 134 l 88 433 q 155 594 88 527 q 317 661 222 661 l 798 661 m 961 408 q 907 511 954 469 q 798 553 861 553 l 317 553 q 231 518 267 553 q 195 433 195 483 l 195 408 l 961 408 m 399 892 l 507 892 l 507 783 l 399 783 l 399 892 m 652 892 l 760 892 l 760 783 l 652 783 l 652 892 z "},"ì":{"ha":311,"x_min":-68,"x_max":223,"o":"m 115 661 l 222 661 l 222 0 l 115 0 l 115 661 m 115 715 l -68 912 l 101 912 l 223 715 l 115 715 z "},"í":{"ha":312,"x_min":88,"x_max":380,"o":"m 88 661 l 196 661 l 196 0 l 88 0 l 88 661 m 89 715 l 211 913 l 380 913 l 197 715 l 89 715 z "},"î":{"ha":347,"x_min":-88,"x_max":435,"o":"m 120 661 l 228 661 l 228 0 l 120 0 l 120 661 m 259 892 l 435 695 l 287 695 l 174 829 l 60 695 l -88 695 l 88 892 l 259 892 z "},"ï":{"ha":321,"x_min":-20,"x_max":341,"o":"m 106 661 l 214 661 l 214 0 l 106 0 l 106 661 m -20 892 l 88 892 l 88 783 l -20 783 l -20 892 m 233 892 l 341 892 l 341 783 l 233 783 l 233 892 z "},"ð":{"ha":761,"x_min":88,"x_max":673,"o":"m 639 659 q 673 456 673 559 q 671 406 673 431 l 671 267 q 585 78 671 156 q 380 0 500 0 q 174 78 259 0 q 88 267 88 156 l 88 409 q 174 597 88 519 q 380 675 259 675 q 533 635 463 675 q 416 791 495 736 l 258 713 l 211 810 l 284 846 q 242 852 261 850 l 189 858 l 199 965 l 253 960 q 422 913 347 950 l 547 975 l 595 879 l 524 844 q 639 659 600 771 m 380 107 q 509 154 455 107 q 563 267 563 201 l 563 410 q 509 522 562 476 q 380 568 455 568 q 250 522 304 568 q 196 409 196 475 l 196 267 q 250 154 196 201 q 380 107 304 107 z "},"ñ":{"ha":1158,"x_min":88,"x_max":1070,"o":"m 842 661 q 1003 594 936 661 q 1070 433 1070 527 l 1070 0 l 962 0 l 962 433 q 927 518 962 483 q 842 553 892 553 l 361 553 q 244 505 292 553 q 196 389 196 457 l 196 0 l 88 0 l 88 406 l 89 406 q 174 587 95 513 q 361 661 252 661 l 842 661 m 418 755 l 315 755 q 448 903 334 903 l 452 903 q 564 878 494 903 q 672 854 633 854 l 678 854 q 691 853 685 853 q 749 902 745 853 l 843 902 q 681 753 831 753 l 673 753 q 530 783 615 753 q 462 803 488 803 l 457 803 q 418 755 437 803 z "},"ò":{"ha":1158,"x_min":88,"x_max":1070,"o":"m 844 661 q 1004 595 937 661 q 1070 435 1070 528 l 1070 227 q 1004 66 1070 133 q 844 0 937 0 l 315 0 q 155 66 221 0 q 88 227 88 133 l 88 435 q 155 595 88 528 q 315 661 221 661 l 844 661 m 962 435 q 928 519 962 484 q 844 553 892 553 l 315 553 q 231 519 265 553 q 195 435 195 484 l 195 227 q 231 142 195 177 q 315 107 265 107 l 844 107 q 928 142 892 107 q 962 227 962 177 l 962 435 m 568 708 l 385 905 l 554 905 l 676 708 l 568 708 z "},"ó":{"ha":1158,"x_min":88,"x_max":1070,"o":"m 844 661 q 1004 595 937 661 q 1070 435 1070 528 l 1070 227 q 1004 66 1070 133 q 844 0 937 0 l 315 0 q 155 66 221 0 q 88 227 88 133 l 88 435 q 155 595 88 528 q 315 661 221 661 l 844 661 m 962 435 q 928 519 962 484 q 844 553 892 553 l 315 553 q 231 519 265 553 q 195 435 195 484 l 195 227 q 231 142 195 177 q 315 107 265 107 l 844 107 q 928 142 892 107 q 962 227 962 177 l 962 435 m 482 709 l 604 906 l 773 906 l 590 709 l 482 709 z "},"ô":{"ha":1158,"x_min":88,"x_max":1070,"o":"m 844 661 q 1004 595 937 661 q 1070 435 1070 528 l 1070 227 q 1004 66 1070 133 q 844 0 937 0 l 315 0 q 155 66 221 0 q 88 227 88 133 l 88 435 q 155 595 88 528 q 315 661 221 661 l 844 661 m 962 435 q 928 519 962 484 q 844 553 892 553 l 315 553 q 231 519 265 553 q 195 435 195 484 l 195 227 q 231 142 195 177 q 315 107 265 107 l 844 107 q 928 142 892 107 q 962 227 962 177 l 962 435 m 665 906 l 841 709 l 692 709 l 579 843 l 466 709 l 317 709 l 494 906 l 665 906 z "},"õ":{"ha":1158,"x_min":88,"x_max":1070,"o":"m 844 661 q 1004 595 937 661 q 1070 435 1070 528 l 1070 227 q 1004 66 1070 133 q 844 0 937 0 l 315 0 q 155 66 221 0 q 88 227 88 133 l 88 435 q 155 595 88 528 q 315 661 221 661 l 844 661 m 962 435 q 928 519 962 484 q 844 553 892 553 l 315 553 q 231 519 265 553 q 195 435 195 484 l 195 227 q 231 142 195 177 q 315 107 265 107 l 844 107 q 928 142 892 107 q 962 227 962 177 l 962 435 m 418 755 l 315 755 q 448 903 334 903 l 452 903 q 564 878 494 903 q 672 854 633 854 l 678 854 q 691 853 685 853 q 749 902 745 853 l 843 902 q 681 753 831 753 l 673 753 q 530 783 615 753 q 462 803 488 803 l 457 803 q 418 755 437 803 z "},"ö":{"ha":1158,"x_min":88,"x_max":1070,"o":"m 844 661 q 1004 595 937 661 q 1070 435 1070 528 l 1070 227 q 1004 66 1070 133 q 844 0 937 0 l 315 0 q 155 66 221 0 q 88 227 88 133 l 88 435 q 155 595 88 528 q 315 661 221 661 l 844 661 m 962 435 q 928 519 962 484 q 844 553 892 553 l 315 553 q 231 519 265 553 q 195 435 195 484 l 195 227 q 231 142 195 177 q 315 107 265 107 l 844 107 q 928 142 892 107 q 962 227 962 177 l 962 435 m 399 892 l 507 892 l 507 783 l 399 783 l 399 892 m 652 892 l 760 892 l 760 783 l 652 783 l 652 892 z "},"÷":{"ha":713,"x_min":88,"x_max":625,"o":"m 88 535 l 625 535 l 625 427 l 88 427 l 88 535 m 302 259 l 411 259 l 411 151 l 302 151 l 302 259 m 302 812 l 411 812 l 411 703 l 302 703 l 302 812 z "},"ø":{"ha":1158,"x_min":88,"x_max":1070,"o":"m 890 763 q 1019 685 968 747 q 1070 541 1070 623 l 1070 333 q 1004 173 1070 239 q 844 106 937 106 l 396 106 l 316 0 l 230 65 l 265 112 q 139 191 189 129 q 88 333 88 253 l 88 541 q 155 701 88 635 q 315 768 221 768 l 759 768 l 842 880 l 928 814 l 890 763 m 342 214 l 677 660 l 315 660 q 231 625 266 660 q 196 541 196 591 l 196 333 q 231 249 196 283 q 315 214 266 214 l 342 214 m 962 541 q 928 625 962 591 q 844 660 892 660 l 812 660 l 477 214 l 844 214 q 928 249 892 214 q 962 333 962 283 l 962 541 z "},"ù":{"ha":1158,"x_min":88,"x_max":1070,"o":"m 963 661 l 1070 661 l 1070 227 q 1004 66 1070 133 q 844 0 937 0 l 315 0 q 155 66 221 0 q 88 227 88 133 l 88 661 l 196 661 l 196 227 q 231 142 196 177 q 315 107 266 107 l 844 107 q 928 142 893 107 q 963 227 963 177 l 963 661 m 568 708 l 385 905 l 554 905 l 676 708 l 568 708 z "},"ú":{"ha":1158,"x_min":88,"x_max":1070,"o":"m 963 661 l 1070 661 l 1070 227 q 1004 66 1070 133 q 844 0 937 0 l 315 0 q 155 66 221 0 q 88 227 88 133 l 88 661 l 196 661 l 196 227 q 231 142 196 177 q 315 107 266 107 l 844 107 q 928 142 893 107 q 963 227 963 177 l 963 661 m 482 709 l 604 906 l 773 906 l 590 709 l 482 709 z "},"û":{"ha":1158,"x_min":88,"x_max":1070,"o":"m 963 661 l 1070 661 l 1070 227 q 1004 66 1070 133 q 844 0 937 0 l 315 0 q 155 66 221 0 q 88 227 88 133 l 88 661 l 196 661 l 196 227 q 231 142 196 177 q 315 107 266 107 l 844 107 q 928 142 893 107 q 963 227 963 177 l 963 661 m 665 906 l 841 709 l 692 709 l 579 843 l 466 709 l 317 709 l 494 906 l 665 906 z "},"ü":{"ha":1158,"x_min":88,"x_max":1070,"o":"m 963 661 l 1070 661 l 1070 227 q 1004 66 1070 133 q 844 0 937 0 l 315 0 q 155 66 221 0 q 88 227 88 133 l 88 661 l 196 661 l 196 227 q 231 142 196 177 q 315 107 266 107 l 844 107 q 928 142 893 107 q 963 227 963 177 l 963 661 m 399 892 l 507 892 l 507 783 l 399 783 l 399 892 m 652 892 l 760 892 l 760 783 l 652 783 l 652 892 z "},"ý":{"ha":1100,"x_min":7,"x_max":1093,"o":"m 140 661 l 551 103 l 960 661 l 1093 661 l 627 24 l 457 -207 q 265 -298 390 -298 q 147 -269 201 -298 l 100 -243 l 151 -149 l 198 -174 q 264 -191 229 -191 q 293 -189 278 -191 q 370 -143 344 -180 l 484 12 l 7 661 l 140 661 m 453 709 l 575 906 l 744 906 l 561 709 l 453 709 z "},"þ":{"ha":709,"x_min":88,"x_max":621,"o":"m 355 666 q 538 600 462 666 q 621 404 621 526 l 621 259 q 538 63 621 137 q 355 -3 462 -3 q 196 45 266 -3 l 196 -262 l 88 -262 l 88 959 l 196 959 l 196 618 q 355 666 266 666 m 513 404 q 465 519 513 477 q 355 558 421 558 q 245 521 290 558 q 196 404 196 479 l 196 259 q 245 142 196 184 q 355 104 290 104 q 464 142 420 104 q 513 259 513 184 l 513 404 z "},"ÿ":{"ha":1100,"x_min":7,"x_max":1093,"o":"m 140 661 l 551 103 l 960 661 l 1093 661 l 627 24 l 457 -207 q 265 -298 390 -298 q 147 -269 201 -298 l 100 -243 l 151 -149 l 198 -174 q 264 -191 229 -191 q 293 -189 278 -191 q 370 -143 344 -180 l 484 12 l 7 661 l 140 661 m 370 892 l 478 892 l 478 783 l 370 783 l 370 892 m 623 892 l 731 892 l 731 783 l 623 783 l 623 892 z "},"ı":{"ha":298,"x_min":95,"x_max":203,"o":"m 95 661 l 203 661 l 203 0 l 95 0 l 95 661 z "},"ˆ":{"ha":646,"x_min":61,"x_max":585,"o":"m 408 906 l 585 709 l 436 709 l 323 843 l 210 709 l 61 709 l 237 906 l 408 906 z "},"ˇ":{"ha":646,"x_min":61,"x_max":585,"o":"m 237 709 l 61 906 l 210 906 l 323 772 l 436 906 l 585 906 l 408 709 l 237 709 z "},"ˉ":{"ha":630,"x_min":88,"x_max":542,"o":"m 88 865 l 542 865 l 542 757 l 88 757 l 88 865 z "},"˘":{"ha":646,"x_min":54,"x_max":591,"o":"m 323 729 q 54 892 163 729 l 189 892 q 323 825 256 825 q 456 892 390 825 l 591 892 q 323 729 483 729 z "},"˙":{"ha":285,"x_min":88,"x_max":197,"o":"m 88 892 l 197 892 l 197 783 l 88 783 l 88 892 z "},"˚":{"ha":176,"x_min":-59,"x_max":235,"o":"m 88 960 q 192 917 149 960 q 235 813 235 874 q 192 709 235 752 q 88 666 149 666 q -16 709 27 666 q -59 813 -59 752 q -16 917 -59 874 q 88 960 27 960 m 88 878 q 42 859 61 878 q 23 813 23 840 q 42 767 23 787 q 88 748 61 748 q 134 767 115 748 q 153 813 153 787 q 134 859 153 840 q 88 878 115 878 z "},"˛":{"ha":313,"x_min":54,"x_max":259,"o":"m 219 0 q 174 -51 194 -24 q 147 -114 155 -78 q 146 -135 146 -125 q 155 -176 146 -160 q 197 -197 169 -197 q 229 -193 213 -197 q 259 -181 245 -189 l 259 -261 q 192 -277 235 -277 q 132 -267 157 -277 q 89 -240 106 -257 q 63 -200 71 -222 q 54 -152 54 -178 q 78 -66 54 -109 q 130 0 102 -24 l 219 0 z "},"˜":{"ha":574,"x_min":28,"x_max":555,"o":"m 130 755 l 28 755 q 161 903 46 903 l 164 903 q 277 878 206 903 q 385 854 345 854 l 391 854 q 404 853 397 853 q 462 902 457 853 l 555 902 q 393 753 543 753 l 385 753 q 243 783 328 753 q 174 803 200 803 l 170 803 q 130 755 149 803 z "},"˝":{"ha":694,"x_min":106,"x_max":702,"o":"m 106 709 l 229 906 l 397 906 l 214 709 l 106 709 m 411 709 l 533 906 l 702 906 l 519 709 l 411 709 z "},"–":{"ha":705,"x_min":0,"x_max":705,"o":"m 0 311 l 0 389 l 705 389 l 705 311 l 0 311 z "},"—":{"ha":1253,"x_min":0,"x_max":1253,"o":"m 0 311 l 0 389 l 1253 389 l 1253 311 l 0 311 z "},"‘":{"ha":254,"x_min":61,"x_max":179,"o":"m 61 833 q 116 960 64 896 l 170 960 q 130 843 130 892 q 131 833 130 838 l 179 833 l 179 697 l 61 697 l 61 833 z "},"’":{"ha":254,"x_min":75,"x_max":193,"o":"m 193 824 q 138 697 189 761 l 84 697 q 123 814 123 765 q 123 824 123 819 l 75 824 l 75 960 l 193 960 l 193 824 z "},"‚":{"ha":254,"x_min":75,"x_max":193,"o":"m 193 -4 q 138 -131 189 -67 l 84 -131 q 123 -14 123 -63 q 123 -4 123 -9 l 75 -4 l 75 132 l 193 132 l 193 -4 z "},"“":{"ha":438,"x_min":61,"x_max":363,"o":"m 61 833 q 116 960 64 896 l 170 960 q 130 843 130 892 q 131 833 130 838 l 179 833 l 179 697 l 61 697 l 61 833 m 245 833 q 300 960 249 896 l 354 960 q 315 843 315 892 q 315 833 315 838 l 363 833 l 363 697 l 245 697 l 245 833 z "},"”":{"ha":438,"x_min":75,"x_max":377,"o":"m 193 824 q 138 697 189 761 l 84 697 q 123 814 123 765 q 123 824 123 819 l 75 824 l 75 960 l 193 960 l 193 824 m 377 824 q 322 697 374 761 l 269 697 q 308 814 308 765 q 307 824 308 819 l 259 824 l 259 960 l 377 960 l 377 824 z "},"„":{"ha":438,"x_min":75,"x_max":377,"o":"m 193 -4 q 138 -131 189 -67 l 84 -131 q 123 -14 123 -63 q 123 -4 123 -9 l 75 -4 l 75 132 l 193 132 l 193 -4 m 377 -4 q 322 -131 374 -67 l 269 -131 q 308 -14 308 -63 q 307 -4 308 -9 l 259 -4 l 259 132 l 377 132 l 377 -4 z "},"†":{"ha":688,"x_min":48,"x_max":640,"o":"m 330 693 q 293 814 324 759 q 254 901 254 882 q 279 955 254 935 q 344 975 303 975 q 408 956 382 975 q 433 907 433 937 q 396 814 433 886 q 359 693 365 757 q 479 730 424 699 q 566 768 547 768 q 620 744 600 768 q 640 679 640 720 q 622 615 640 640 q 572 589 603 589 q 480 627 551 589 q 359 665 422 658 q 420 477 364 546 q 357 -183 361 165 l 332 -183 q 268 477 328 165 q 330 665 323 546 q 209 628 264 659 q 121 589 140 589 q 68 614 88 589 q 48 679 48 638 q 67 743 48 718 q 115 768 85 768 q 208 730 137 768 q 330 693 266 699 z "},"‡":{"ha":688,"x_min":47,"x_max":640,"o":"m 358 126 q 479 165 422 134 q 572 202 550 202 q 621 177 602 202 q 640 113 640 151 q 619 47 640 72 q 566 23 599 23 q 478 62 547 23 q 358 98 423 93 q 359 -64 359 6 q 346 -286 359 -286 q 343 -285 345 -286 q 340 -287 342 -287 q 328 -59 328 -287 q 329 98 328 9 q 208 61 265 92 q 115 23 136 23 q 66 48 85 23 q 47 113 47 74 q 67 178 47 153 q 121 202 87 202 q 208 163 140 202 q 329 126 264 133 l 329 665 q 208 628 264 659 q 121 589 140 589 q 67 614 87 589 q 47 679 47 638 q 66 743 47 718 q 115 768 85 768 q 208 730 136 768 q 329 693 265 699 q 292 814 323 759 q 254 901 254 882 q 278 955 254 935 q 343 975 302 975 q 407 956 382 975 q 433 907 433 937 q 395 814 433 886 q 358 693 364 757 q 478 730 423 699 q 566 768 547 768 q 619 744 599 768 q 640 679 640 720 q 621 615 640 640 q 572 589 602 589 q 479 627 550 589 q 358 665 422 658 l 358 126 z "},"•":{"ha":997,"x_min":94,"x_max":922,"o":"m 787 350 q 922 210 922 278 q 890 157 922 180 q 804 126 860 136 q 519 137 686 104 q 235 237 353 170 q 117 367 117 304 q 163 429 117 405 q 288 458 209 452 q 271 427 277 445 q 175 355 175 408 q 276 244 175 302 q 519 159 376 186 q 763 149 662 131 q 837 176 811 158 q 864 222 864 195 q 790 316 864 267 q 787 350 791 328 m 524 556 q 530 556 526 556 l 532 555 q 536 555 534 555 l 538 555 q 542 555 540 555 l 544 555 q 549 555 547 555 l 550 555 q 556 554 553 554 l 558 553 q 562 553 560 553 l 564 553 q 568 552 566 553 l 570 552 q 574 551 572 551 l 576 551 q 582 549 579 550 l 583 549 q 587 548 585 549 l 589 547 q 593 547 591 547 l 595 546 q 599 545 597 545 l 601 544 q 605 543 602 544 l 606 543 q 612 541 609 541 l 614 540 q 617 538 616 539 l 619 538 q 623 536 621 537 l 625 535 q 628 534 626 534 l 630 533 q 635 530 633 532 l 637 530 q 640 528 638 529 l 642 527 q 645 526 644 526 l 648 524 q 650 523 648 524 q 652 522 652 522 q 656 519 654 521 l 658 518 q 662 515 660 517 l 664 514 q 667 513 665 513 l 669 511 l 671 509 l 673 508 q 676 506 674 507 q 678 505 678 505 l 678 505 q 682 501 680 503 l 682 501 q 684 500 682 501 q 686 498 686 498 q 688 496 687 497 l 691 494 l 693 492 q 695 490 694 492 q 697 488 696 489 q 699 487 698 488 q 703 483 701 485 q 705 481 705 481 q 707 479 706 480 l 709 477 q 711 475 710 476 l 713 473 q 715 471 714 471 l 716 469 q 721 463 719 467 l 722 463 q 724 460 722 462 l 725 458 q 728 456 726 457 l 728 454 q 730 452 730 452 l 732 450 q 734 447 733 448 l 734 446 q 739 439 737 442 l 740 438 q 742 435 741 437 l 743 433 q 745 431 744 432 l 745 429 q 747 426 747 427 l 748 425 q 754 413 751 419 l 755 412 q 757 408 755 410 l 757 407 q 759 403 758 405 l 760 402 q 764 389 762 395 l 765 389 q 766 385 766 387 l 767 383 q 768 379 768 381 l 768 378 q 774 356 772 368 q 780 323 777 342 q 781 304 781 314 l 781 304 q 781 298 781 301 l 781 296 l 781 294 l 781 294 l 781 292 l 781 290 l 781 289 l 781 288 l 781 287 l 781 286 l 781 285 l 781 283 l 781 282 l 781 281 l 781 281 l 781 279 l 780 278 q 747 170 776 220 q 524 181 652 156 q 287 264 385 208 q 267 276 277 269 q 267 298 267 288 q 291 409 267 357 l 291 409 q 293 413 292 411 q 295 417 294 415 l 295 417 q 302 431 298 424 l 303 432 l 303 432 q 322 459 314 452 q 334 473 328 466 l 335 473 q 338 477 336 475 l 339 478 l 341 480 l 342 481 q 345 484 344 482 l 346 485 l 348 487 l 349 488 q 352 490 351 489 l 353 492 l 355 493 l 356 494 l 358 496 l 360 498 l 361 498 l 363 499 l 363 500 q 366 502 365 501 l 368 504 l 370 505 l 371 506 l 373 507 q 376 509 374 509 l 378 511 l 379 511 l 381 513 l 382 514 q 386 516 385 515 l 387 517 l 389 518 l 391 519 q 394 521 392 520 l 395 522 l 397 523 l 399 524 q 403 526 401 525 l 404 526 l 406 528 l 408 528 q 411 530 410 529 l 413 531 l 415 532 l 417 533 l 418 534 q 422 535 420 534 l 424 536 l 426 536 l 427 537 q 431 538 429 538 l 433 539 l 435 540 l 437 541 q 440 542 438 541 l 441 543 l 444 543 l 446 544 q 449 545 448 545 l 451 545 l 454 546 l 455 547 q 458 547 457 547 l 460 548 q 463 549 461 549 l 465 549 q 468 550 467 549 l 469 550 q 473 551 471 551 l 474 551 q 477 552 476 551 l 479 552 q 483 553 481 552 l 484 553 q 488 553 486 553 l 489 553 q 493 554 491 554 l 494 554 q 498 555 496 555 l 498 555 q 503 555 501 555 l 503 555 q 508 555 506 555 l 509 555 q 513 555 511 555 l 514 555 q 518 556 515 556 l 519 556 l 524 556 m 682 95 q 515 115 603 98 q 294 182 394 138 q 387 80 327 118 q 524 41 450 41 q 682 95 612 41 m 426 36 q 437 25 437 36 q 426 14 437 14 q 414 25 414 14 q 426 36 414 36 m 306 122 q 321 116 315 122 q 328 100 328 109 q 321 84 328 90 q 306 77 315 77 q 290 84 296 77 q 283 100 283 90 q 290 116 283 109 q 306 122 296 122 m 161 159 q 186 148 176 159 q 197 123 197 138 q 186 98 197 108 q 161 87 176 87 q 136 98 146 87 q 125 123 125 108 q 136 148 125 138 q 161 159 146 159 m 130 597 q 155 586 144 597 q 165 561 165 576 q 155 536 165 546 q 130 526 144 526 q 104 536 115 526 q 94 561 94 546 q 104 586 94 576 q 130 597 115 597 m 281 626 q 292 621 288 626 q 297 609 297 616 q 292 597 297 602 q 281 593 288 593 q 269 597 274 593 q 264 609 264 602 q 269 621 264 616 q 281 626 274 626 m 451 631 q 463 625 458 631 q 467 614 467 621 q 463 602 467 607 q 451 597 458 597 q 439 602 444 597 q 434 614 434 607 q 439 625 434 621 q 451 631 444 631 z "},"…":{"ha":1389,"x_min":88,"x_max":1123,"o":"m 88 109 l 197 109 l 197 0 l 88 0 l 88 109 m 551 109 l 660 109 l 660 0 l 551 0 l 551 109 m 1015 109 l 1123 109 l 1123 0 l 1015 0 l 1015 109 z "},"‹":{"ha":418,"x_min":0,"x_max":418,"o":"m 418 656 l 149 328 l 417 0 l 269 0 l 0 328 l 269 656 l 418 656 z "},"›":{"ha":418,"x_min":0,"x_max":418,"o":"m 149 656 l 418 328 l 149 0 l 1 0 l 269 328 l 0 656 l 149 656 z "},"⁄":{"ha":345,"x_min":-224,"x_max":575,"o":"m -224 -28 l 492 979 l 575 979 l -141 -28 l -224 -28 z "},"∕":{"ha":345,"x_min":-224,"x_max":575,"o":"m -224 -28 l 492 979 l 575 979 l -141 -28 l -224 -28 z "},"₣":{"ha":1127,"x_min":-14,"x_max":931,"o":"m 88 294 l 88 785 q 139 909 88 858 q 262 960 190 960 l 931 960 l 931 852 l 262 852 q 215 833 235 852 q 195 785 195 813 l 195 550 l 931 550 l 931 442 l 195 442 l 195 294 l 441 294 l 441 186 l 195 186 l 195 0 l 88 0 l 88 186 l -14 186 l -14 294 l 88 294 z "},"₤":{"ha":935,"x_min":88,"x_max":846,"o":"m 755 142 l 805 163 l 846 64 l 796 43 q 622 0 692 0 q 427 30 568 0 q 352 38 391 38 q 262 28 309 38 q 184 13 216 18 q 171 12 178 12 q 113 50 132 12 q 104 83 104 67 q 124 130 104 108 q 163 169 138 143 q 268 312 253 258 l 88 312 l 88 419 l 266 419 q 252 475 260 444 l 88 475 l 88 583 l 221 583 q 204 711 204 655 l 204 726 q 287 886 208 821 q 469 949 362 949 q 644 888 572 949 q 703 813 681 857 l 726 765 l 630 717 l 606 766 q 574 806 595 789 q 469 842 532 842 q 356 804 401 842 q 312 722 313 768 l 312 710 q 332 583 312 659 l 546 583 l 546 475 l 363 475 q 376 419 371 445 l 546 419 l 546 312 l 378 312 q 288 142 363 224 q 345 146 315 146 q 450 135 394 146 q 622 107 579 107 q 755 142 671 107 z "},"₧":{"ha":2483,"x_min":88,"x_max":2422,"o":"m 926 523 q 968 658 968 577 q 928 791 968 738 q 798 852 881 852 l 244 852 q 202 833 220 852 q 184 785 184 813 l 184 464 l 798 464 q 926 523 879 464 m 1051 553 q 998 451 1034 497 q 798 356 922 356 l 184 356 l 184 0 l 88 0 l 88 785 q 134 909 88 858 q 244 960 180 960 l 798 960 q 999 864 924 960 q 1065 661 1065 780 l 1156 661 l 1156 960 l 1263 960 l 1263 661 l 2331 661 l 2331 554 l 1769 553 l 1668 553 q 1579 528 1611 553 q 1550 473 1550 506 q 1579 418 1550 440 q 1668 393 1611 393 l 2197 393 q 2365 331 2302 393 q 2422 196 2422 275 q 2365 61 2422 117 q 2197 0 2302 0 l 1384 0 q 1223 67 1290 0 q 1156 229 1156 134 l 1156 553 l 1051 553 m 1462 553 l 1263 553 l 1263 229 q 1299 143 1263 178 q 1384 107 1335 107 l 2197 107 q 2286 135 2254 107 q 2315 196 2315 159 q 2286 257 2315 233 q 2197 285 2254 285 l 1668 285 q 1500 344 1563 285 q 1442 473 1442 397 q 1462 553 1442 517 z "},"€":{"ha":1074,"x_min":31,"x_max":1020,"o":"m 859 321 l 186 321 l 186 298 q 235 163 186 220 q 349 107 281 107 l 1020 107 l 1020 0 l 349 0 q 170 87 244 0 q 95 298 95 175 l 95 321 l 31 321 l 31 429 l 95 429 l 95 536 l 31 536 l 31 644 l 95 644 l 95 661 q 170 872 95 785 q 349 960 244 960 l 1020 960 l 1020 852 l 349 852 q 235 796 281 852 q 186 661 186 740 l 186 644 l 905 644 l 890 536 l 186 536 l 186 429 l 875 429 l 859 321 z "},"№":{"ha":1914,"x_min":88,"x_max":1845,"o":"m 1313 110 l 1845 110 l 1845 1 l 1313 1 l 1313 110 m 878 960 q 1089 872 1001 960 q 1177 661 1177 785 l 1177 1 l 1069 1 l 1069 661 q 1013 796 1069 740 q 878 852 957 852 l 387 852 q 252 796 308 852 q 196 661 196 740 l 196 0 l 88 0 l 88 661 q 176 872 88 785 q 387 960 264 960 l 878 960 m 1617 729 q 1777 663 1710 729 q 1843 503 1843 596 l 1843 437 q 1777 277 1843 343 q 1617 210 1710 210 l 1535 210 q 1375 277 1442 210 q 1309 437 1309 343 l 1309 503 q 1375 663 1309 596 q 1535 729 1442 729 l 1617 729 m 1735 503 q 1701 587 1735 552 q 1617 621 1666 621 l 1535 621 q 1451 587 1486 621 q 1416 503 1416 552 l 1416 437 q 1451 353 1416 387 q 1535 317 1486 317 l 1617 317 q 1701 353 1666 317 q 1735 437 1735 387 l 1735 503 z "},"™":{"ha":1260,"x_min":89,"x_max":1172,"o":"m 89 960 l 502 960 l 502 917 l 319 917 l 319 576 l 271 576 l 271 917 l 89 917 l 89 960 m 1069 960 q 1142 924 1112 960 q 1172 838 1172 888 l 1172 576 l 1124 576 l 1124 838 q 1107 893 1124 869 q 1069 917 1090 917 l 935 917 q 883 886 905 917 q 861 813 861 855 l 861 576 l 812 576 l 812 838 q 796 893 812 869 q 758 917 780 917 l 624 917 q 572 886 594 917 q 550 813 550 855 l 550 576 l 502 576 l 502 836 q 544 924 510 889 q 624 960 578 960 l 758 960 q 842 908 811 960 q 935 960 879 960 l 1069 960 z "},"∂":{"ha":622,"x_min":68,"x_max":554,"o":"m 452 451 q 427 492 446 476 q 380 508 406 508 l 241 508 q 190 487 212 508 q 168 435 168 465 l 168 174 q 190 122 168 144 q 241 100 212 100 l 380 100 q 432 122 410 100 q 454 174 454 144 l 454 439 l 452 451 m 410 606 q 331 749 377 692 q 156 846 257 841 l 106 849 l 111 949 l 161 947 q 362 862 274 941 q 409 812 387 840 q 523 587 480 724 q 554 417 553 490 l 554 174 q 503 51 554 102 q 380 0 452 0 l 241 0 q 119 51 170 0 q 68 174 68 102 l 68 435 q 119 557 68 507 q 241 609 170 609 l 380 609 q 410 606 395 609 z "},"∆":{"ha":814,"x_min":7,"x_max":808,"o":"m 7 0 l 407 949 l 808 0 l 7 0 m 671 90 l 407 717 l 143 90 l 671 90 z "},"∏":{"ha":781,"x_min":17,"x_max":764,"o":"m 764 949 l 764 848 l 613 848 l 613 0 l 513 0 l 513 848 l 269 848 l 269 0 l 168 0 l 168 848 l 17 848 l 17 949 l 764 949 z "},"∑":{"ha":853,"x_min":34,"x_max":819,"o":"m 209 848 l 734 475 l 209 101 l 819 101 l 819 0 l 34 0 l 34 100 l 560 475 l 34 849 l 34 949 l 819 949 l 819 848 l 209 848 z "},"−":{"ha":713,"x_min":88,"x_max":625,"o":"m 88 535 l 625 535 l 625 427 l 88 427 l 88 535 z "},"√":{"ha":631,"x_min":10,"x_max":625,"o":"m 322 1137 l 625 1137 l 625 1053 l 393 1053 l 219 0 l 133 0 l 10 356 l 89 383 l 163 170 l 322 1137 z "},"∞":{"ha":981,"x_min":54,"x_max":926,"o":"m 238 331 q 184 340 210 331 q 134 366 158 349 q 93 409 111 384 q 65 469 75 435 q 54 545 54 503 q 65 623 54 588 q 94 683 75 656 q 135 726 112 708 q 185 752 159 743 q 238 761 212 761 q 327 742 284 760 q 407 690 369 722 q 477 618 445 658 l 490 600 l 504 618 q 574 690 536 658 q 654 742 612 722 q 743 761 696 760 q 795 752 769 761 q 845 726 821 743 q 886 683 869 708 q 916 623 905 657 q 926 545 926 589 q 916 467 926 502 q 887 408 905 433 q 845 366 868 382 q 795 340 822 348 q 743 331 768 331 q 654 349 695 332 q 574 400 612 368 q 504 473 536 433 l 490 490 l 477 473 q 407 400 444 433 q 327 349 369 368 q 238 331 285 332 m 236 401 q 339 433 288 401 q 439 530 389 464 l 451 545 l 439 560 q 382 623 414 594 q 315 670 350 653 q 236 690 277 689 q 175 671 202 689 q 132 621 147 654 q 115 545 115 588 q 132 469 115 502 q 175 418 147 437 q 236 401 202 401 m 541 559 l 530 545 l 541 530 q 598 467 568 494 q 665 420 629 437 q 745 401 703 401 q 806 418 779 401 q 849 469 833 437 q 865 545 865 502 q 848 623 865 590 q 804 673 832 655 q 745 690 777 690 q 665 671 703 689 q 598 624 629 653 q 541 559 567 595 z "},"∫":{"ha":427,"x_min":-34,"x_max":460,"o":"m 223 855 q 265 997 231 930 q 424 1109 323 1109 q 460 1105 441 1109 l 460 1022 q 440 1023 450 1023 q 343 960 378 1023 q 302 810 319 916 q 252 429 285 703 q 203 22 220 158 q 161 -120 196 -54 q 3 -232 104 -232 q -34 -229 -15 -232 l -34 -145 q -14 -146 -24 -146 q 83 -83 49 -146 q 125 68 107 -39 q 174 447 142 176 q 223 855 207 720 z "},"≈":{"ha":829,"x_min":68,"x_max":761,"o":"m 761 410 q 533 347 646 347 l 520 347 q 335 389 448 349 q 220 416 256 416 l 217 416 q 104 363 163 415 l 68 330 l 68 456 q 216 524 140 524 l 218 524 q 379 489 279 524 q 526 454 473 456 l 532 454 q 711 502 617 454 l 761 530 l 761 410 m 761 210 q 533 148 646 148 l 520 148 q 335 189 448 150 q 220 217 256 217 l 217 217 q 104 164 163 216 l 68 131 l 68 257 q 216 325 140 324 l 218 325 q 379 290 279 325 q 526 255 473 257 l 532 255 q 711 302 617 255 l 761 331 l 761 210 z "},"≤":{"ha":739,"x_min":88,"x_max":652,"o":"m 650 162 l 88 423 l 88 572 l 650 833 l 650 715 l 182 498 l 650 281 l 650 162 m 88 108 l 652 108 l 652 0 l 88 0 l 88 108 z "},"≥":{"ha":739,"x_min":88,"x_max":650,"o":"m 88 281 l 556 498 l 88 715 l 88 833 l 650 572 l 650 423 l 88 162 l 88 281 m 88 108 l 645 108 l 645 0 l 88 0 l 88 108 z "},"":{"ha":928,"x_min":88,"x_max":833,"o":"m 88 731 q 155 892 88 826 q 317 960 222 960 l 539 960 l 539 852 l 317 852 q 231 817 267 852 q 196 731 196 781 l 196 660 l 541 660 l 541 552 l 196 552 l 196 0 l 88 0 l 88 731 m 724 661 l 832 661 l 832 0 l 724 0 l 724 661 m 724 960 l 833 960 l 833 852 l 724 852 l 724 960 z "},"ﬁ":{"ha":928,"x_min":88,"x_max":833,"o":"m 88 731 q 155 892 88 826 q 317 960 222 960 l 539 960 l 539 852 l 317 852 q 231 817 267 852 q 196 731 196 781 l 196 660 l 541 660 l 541 552 l 196 552 l 196 0 l 88 0 l 88 731 m 724 661 l 832 661 l 832 0 l 724 0 l 724 661 m 724 960 l 833 960 l 833 852 l 724 852 l 724 960 z "},"":{"ha":1080,"x_min":88,"x_max":1073,"o":"m 88 731 q 155 892 88 826 q 317 960 222 960 l 539 960 l 539 852 l 317 852 q 231 817 267 852 q 196 731 196 781 l 196 660 l 541 660 l 541 552 l 196 552 l 196 0 l 88 0 l 88 731 m 839 229 q 874 143 839 178 q 960 107 910 107 l 1073 107 l 1073 0 l 960 0 q 798 67 865 0 q 731 229 731 134 l 731 960 l 839 960 l 839 229 z "},"ﬂ":{"ha":1080,"x_min":88,"x_max":1073,"o":"m 88 731 q 155 892 88 826 q 317 960 222 960 l 539 960 l 539 852 l 317 852 q 231 817 267 852 q 196 731 196 781 l 196 660 l 541 660 l 541 552 l 196 552 l 196 0 l 88 0 l 88 731 m 839 229 q 874 143 839 178 q 960 107 910 107 l 1073 107 l 1073 0 l 960 0 q 798 67 865 0 q 731 229 731 134 l 731 960 l 839 960 l 839 229 z "},"Ā":{"ha":1265,"x_min":88,"x_max":1177,"o":"m 878 960 q 1088 872 1001 960 q 1177 661 1177 785 l 1177 0 l 1069 0 l 1069 442 l 196 442 l 196 0 l 88 0 l 88 661 q 176 872 88 785 q 387 960 263 960 l 878 960 m 1069 550 l 1069 661 q 1013 796 1069 740 q 878 852 956 852 l 387 852 q 252 796 308 852 q 196 661 196 740 l 196 550 l 1069 550 m 406 1163 l 859 1163 l 859 1055 l 406 1055 l 406 1163 z "},"ā":{"ha":1118,"x_min":68,"x_max":1050,"o":"m 296 107 q 222 121 253 107 q 176 196 176 144 l 176 205 q 222 280 176 258 q 296 294 252 294 l 821 294 q 895 280 865 294 q 942 206 942 258 q 821 107 942 107 l 296 107 m 1050 443 q 982 596 1050 532 q 821 661 914 661 l 143 661 l 143 553 l 821 553 q 907 517 871 553 q 942 443 942 484 l 942 376 q 821 402 889 402 l 296 402 q 131 348 194 402 q 68 205 68 294 l 68 196 q 131 54 68 108 q 296 0 194 0 l 821 0 q 987 56 925 0 q 1050 205 1049 112 l 1050 443 m 332 865 l 786 865 l 786 757 l 332 757 l 332 865 z "},"Ă":{"ha":1265,"x_min":88,"x_max":1177,"o":"m 878 960 q 1088 872 1001 960 q 1177 661 1177 785 l 1177 0 l 1069 0 l 1069 442 l 196 442 l 196 0 l 88 0 l 88 661 q 176 872 88 785 q 387 960 263 960 l 878 960 m 1069 550 l 1069 661 q 1013 796 1069 740 q 878 852 956 852 l 387 852 q 252 796 308 852 q 196 661 196 740 l 196 550 l 1069 550 m 633 1027 q 364 1191 473 1027 l 499 1191 q 633 1124 566 1124 q 766 1191 700 1124 l 901 1191 q 633 1027 793 1027 z "},"ă":{"ha":1118,"x_min":68,"x_max":1050,"o":"m 296 107 q 222 121 253 107 q 176 196 176 144 l 176 205 q 222 280 176 258 q 296 294 252 294 l 821 294 q 895 280 865 294 q 942 206 942 258 q 821 107 942 107 l 296 107 m 1050 443 q 982 596 1050 532 q 821 661 914 661 l 143 661 l 143 553 l 821 553 q 907 517 871 553 q 942 443 942 484 l 942 376 q 821 402 889 402 l 296 402 q 131 348 194 402 q 68 205 68 294 l 68 196 q 131 54 68 108 q 296 0 194 0 l 821 0 q 987 56 925 0 q 1050 205 1049 112 l 1050 443 m 559 729 q 290 892 399 729 l 425 892 q 559 825 492 825 q 692 892 626 825 l 827 892 q 559 729 719 729 z "},"Ą":{"ha":1265,"x_min":88,"x_max":1198,"o":"m 1069 550 l 1069 661 q 1013 796 1069 740 q 878 852 956 852 l 387 852 q 252 796 308 852 q 196 661 196 740 l 196 550 l 1069 550 m 1069 0 l 1069 442 l 196 442 l 196 0 l 88 0 l 88 661 q 176 872 88 785 q 387 960 263 960 l 878 960 q 1088 872 1001 960 q 1177 661 1177 785 l 1177 0 q 1115 -50 1136 -22 q 1086 -114 1094 -78 q 1085 -135 1085 -125 q 1095 -176 1085 -160 q 1137 -197 1108 -197 q 1168 -193 1152 -197 q 1198 -181 1185 -189 l 1198 -261 q 1131 -277 1174 -277 q 1071 -267 1097 -277 q 1028 -240 1045 -257 q 1002 -200 1010 -222 q 994 -152 994 -178 q 1018 -66 994 -109 q 1069 0 1042 -24 z "},"ą":{"ha":1158,"x_min":88,"x_max":1069,"o":"m 945 247 q 909 332 945 297 q 824 368 874 368 l 300 368 q 214 332 250 368 q 179 247 179 297 l 179 231 q 214 145 179 180 q 300 110 250 110 l 824 110 q 909 145 874 110 q 945 231 945 180 l 945 247 m 858 1 q 841 0 850 0 l 317 0 q 155 67 222 0 q 88 229 88 134 l 88 238 q 155 399 88 332 q 317 467 222 467 l 841 467 q 962 432 906 467 l 962 433 q 926 518 962 483 q 841 553 891 553 l 233 553 l 233 661 l 841 661 q 1002 594 935 661 q 1069 433 1069 527 l 1069 229 q 1002 67 1069 134 q 989 55 996 60 q 950 9 968 33 q 923 -54 930 -18 q 922 -75 922 -65 q 931 -115 922 -100 q 973 -137 945 -137 q 1005 -133 989 -137 q 1035 -121 1021 -128 l 1035 -201 q 968 -216 1010 -216 q 907 -207 933 -216 q 864 -179 882 -197 q 839 -140 847 -162 q 830 -92 830 -117 q 854 -5 830 -48 q 858 1 856 -3 z "},"Ć":{"ha":1265,"x_min":88,"x_max":1177,"o":"m 88 661 q 176 872 88 785 q 387 960 264 960 l 1177 960 l 1177 852 l 387 852 q 252 796 308 852 q 196 661 196 740 l 196 298 q 252 163 196 220 q 387 107 308 107 l 1177 107 l 1177 0 l 387 0 q 176 87 264 0 q 88 298 88 175 l 88 661 m 536 1007 l 658 1204 l 827 1204 l 644 1007 l 536 1007 z "},"ć":{"ha":1067,"x_min":88,"x_max":979,"o":"m 88 389 q 168 581 88 502 q 361 661 248 661 l 979 661 l 979 553 l 361 553 q 244 505 292 553 q 196 389 196 457 l 196 272 q 244 156 196 204 q 361 107 292 107 l 979 107 l 979 0 l 361 0 q 168 79 248 0 q 88 272 88 159 l 88 389 m 437 709 l 559 906 l 728 906 l 545 709 l 437 709 z "},"Ĉ":{"ha":1265,"x_min":88,"x_max":1177,"o":"m 88 661 q 176 872 88 785 q 387 960 264 960 l 1177 960 l 1177 852 l 387 852 q 252 796 308 852 q 196 661 196 740 l 196 298 q 252 163 196 220 q 387 107 308 107 l 1177 107 l 1177 0 l 387 0 q 176 87 264 0 q 88 298 88 175 l 88 661 m 718 1204 l 895 1007 l 746 1007 l 633 1141 l 519 1007 l 371 1007 l 547 1204 l 718 1204 z "},"ĉ":{"ha":1067,"x_min":88,"x_max":979,"o":"m 88 389 q 168 581 88 502 q 361 661 248 661 l 979 661 l 979 553 l 361 553 q 244 505 292 553 q 196 389 196 457 l 196 272 q 244 156 196 204 q 361 107 292 107 l 979 107 l 979 0 l 361 0 q 168 79 248 0 q 88 272 88 159 l 88 389 m 619 906 l 795 709 l 647 709 l 534 843 l 420 709 l 272 709 l 448 906 l 619 906 z "},"Ċ":{"ha":1265,"x_min":88,"x_max":1177,"o":"m 88 661 q 176 872 88 785 q 387 960 264 960 l 1177 960 l 1177 852 l 387 852 q 252 796 308 852 q 196 661 196 740 l 196 298 q 252 163 196 220 q 387 107 308 107 l 1177 107 l 1177 0 l 387 0 q 176 87 264 0 q 88 298 88 175 l 88 661 m 578 1190 l 687 1190 l 687 1082 l 578 1082 l 578 1190 z "},"ċ":{"ha":1067,"x_min":88,"x_max":979,"o":"m 88 389 q 168 581 88 502 q 361 661 248 661 l 979 661 l 979 553 l 361 553 q 244 505 292 553 q 196 389 196 457 l 196 272 q 244 156 196 204 q 361 107 292 107 l 979 107 l 979 0 l 361 0 q 168 79 248 0 q 88 272 88 159 l 88 389 m 479 892 l 588 892 l 588 783 l 479 783 l 479 892 z "},"Č":{"ha":1265,"x_min":88,"x_max":1177,"o":"m 88 661 q 176 872 88 785 q 387 960 264 960 l 1177 960 l 1177 852 l 387 852 q 252 796 308 852 q 196 661 196 740 l 196 298 q 252 163 196 220 q 387 107 308 107 l 1177 107 l 1177 0 l 387 0 q 176 87 264 0 q 88 298 88 175 l 88 661 m 547 1007 l 371 1204 l 519 1204 l 633 1070 l 746 1204 l 895 1204 l 718 1007 l 547 1007 z "},"č":{"ha":1067,"x_min":88,"x_max":979,"o":"m 88 389 q 168 581 88 502 q 361 661 248 661 l 979 661 l 979 553 l 361 553 q 244 505 292 553 q 196 389 196 457 l 196 272 q 244 156 196 204 q 361 107 292 107 l 979 107 l 979 0 l 361 0 q 168 79 248 0 q 88 272 88 159 l 88 389 m 448 709 l 272 906 l 420 906 l 534 772 l 647 906 l 795 906 l 619 709 l 448 709 z "},"Ď":{"ha":1265,"x_min":88,"x_max":1177,"o":"m 878 960 q 1089 872 1001 960 q 1177 661 1177 785 l 1177 298 q 1089 87 1177 175 q 878 0 1001 0 l 88 0 l 88 785 q 139 909 88 858 q 262 960 191 960 l 878 960 m 1069 661 q 1013 796 1069 740 q 878 852 957 852 l 262 852 q 216 833 235 852 q 196 785 196 813 l 196 107 l 878 107 q 1013 163 957 107 q 1069 298 1069 220 l 1069 661 m 547 1007 l 371 1204 l 519 1204 l 633 1070 l 746 1204 l 895 1204 l 718 1007 l 547 1007 z "},"ď":{"ha":1159,"x_min":88,"x_max":1261,"o":"m 1071 272 q 991 79 1071 159 q 798 0 911 0 l 317 0 q 155 67 222 0 q 88 229 88 134 l 88 433 q 155 594 88 527 q 317 661 222 661 l 798 661 q 963 606 890 661 l 963 960 l 1071 960 l 1071 272 m 798 107 q 915 156 866 107 q 963 272 963 204 l 963 389 q 915 505 963 457 q 798 553 866 553 l 317 553 q 232 518 267 553 q 196 433 196 483 l 196 229 q 232 143 196 178 q 317 107 267 107 l 798 107 m 1261 824 q 1206 697 1257 761 l 1152 697 q 1192 814 1192 765 q 1191 824 1192 819 l 1143 824 l 1143 960 l 1261 960 l 1261 824 z "},"Đ":{"ha":1477,"x_min":88,"x_max":1389,"o":"m 1090 960 q 1301 872 1213 960 q 1389 661 1389 785 l 1389 298 q 1301 87 1389 175 q 1090 0 1213 0 l 300 0 l 300 424 l 88 424 l 88 532 l 300 532 l 300 785 q 351 909 300 858 q 475 960 403 960 l 1090 960 m 1281 661 q 1225 796 1281 740 q 1090 852 1168 852 l 475 852 q 428 833 447 852 q 408 785 408 813 l 408 532 l 621 532 l 621 424 l 408 424 l 408 107 l 1090 107 q 1225 163 1168 107 q 1281 298 1281 220 l 1281 661 z "},"đ":{"ha":1159,"x_min":88,"x_max":1206,"o":"m 1071 272 q 991 79 1071 159 q 798 0 911 0 l 317 0 q 155 67 222 0 q 88 229 88 134 l 88 433 q 155 594 88 527 q 317 661 222 661 l 798 661 q 963 606 890 661 l 963 960 l 1071 960 l 1071 272 m 798 107 q 915 156 866 107 q 963 272 963 204 l 963 389 q 915 505 963 457 q 798 553 866 553 l 317 553 q 232 518 267 553 q 196 433 196 483 l 196 229 q 232 143 196 178 q 317 107 267 107 l 798 107 m 625 850 l 1206 850 l 1206 743 l 625 743 l 625 850 z "},"Ē":{"ha":1019,"x_min":88,"x_max":999,"o":"m 88 785 q 139 909 88 858 q 262 960 190 960 l 999 960 l 999 852 l 262 852 q 215 833 235 852 q 195 785 195 813 l 195 550 l 999 550 l 999 442 l 195 442 l 195 107 l 999 107 l 999 0 l 88 0 l 88 785 m 283 1163 l 736 1163 l 736 1055 l 283 1055 l 283 1163 z "},"ē":{"ha":1158,"x_min":88,"x_max":1070,"o":"m 798 661 q 990 581 910 661 q 1070 389 1070 502 l 1070 300 l 195 300 l 195 229 q 231 143 195 178 q 317 107 267 107 l 1069 107 l 1069 0 l 317 0 q 155 67 222 0 q 88 229 88 134 l 88 433 q 155 594 88 527 q 317 661 222 661 l 798 661 m 961 408 q 907 511 954 469 q 798 553 861 553 l 317 553 q 231 518 267 553 q 195 433 195 483 l 195 408 l 961 408 m 353 865 l 806 865 l 806 757 l 353 757 l 353 865 z "},"Ĕ":{"ha":1019,"x_min":88,"x_max":999,"o":"m 88 785 q 139 909 88 858 q 262 960 190 960 l 999 960 l 999 852 l 262 852 q 215 833 235 852 q 195 785 195 813 l 195 550 l 999 550 l 999 442 l 195 442 l 195 107 l 999 107 l 999 0 l 88 0 l 88 785 m 510 1027 q 241 1191 350 1027 l 376 1191 q 510 1124 444 1124 q 644 1191 577 1124 l 779 1191 q 510 1027 670 1027 z "},"ĕ":{"ha":1158,"x_min":88,"x_max":1070,"o":"m 798 661 q 990 581 910 661 q 1070 389 1070 502 l 1070 300 l 195 300 l 195 229 q 231 143 195 178 q 317 107 267 107 l 1069 107 l 1069 0 l 317 0 q 155 67 222 0 q 88 229 88 134 l 88 433 q 155 594 88 527 q 317 661 222 661 l 798 661 m 961 408 q 907 511 954 469 q 798 553 861 553 l 317 553 q 231 518 267 553 q 195 433 195 483 l 195 408 l 961 408 m 579 729 q 311 892 419 729 l 446 892 q 579 825 513 825 q 713 892 646 825 l 848 892 q 579 729 739 729 z "},"Ė":{"ha":1019,"x_min":88,"x_max":999,"o":"m 88 785 q 139 909 88 858 q 262 960 190 960 l 999 960 l 999 852 l 262 852 q 215 833 235 852 q 195 785 195 813 l 195 550 l 999 550 l 999 442 l 195 442 l 195 107 l 999 107 l 999 0 l 88 0 l 88 785 m 456 1190 l 564 1190 l 564 1082 l 456 1082 l 456 1190 z "},"ė":{"ha":1158,"x_min":88,"x_max":1070,"o":"m 798 661 q 990 581 910 661 q 1070 389 1070 502 l 1070 300 l 195 300 l 195 229 q 231 143 195 178 q 317 107 267 107 l 1069 107 l 1069 0 l 317 0 q 155 67 222 0 q 88 229 88 134 l 88 433 q 155 594 88 527 q 317 661 222 661 l 798 661 m 961 408 q 907 511 954 469 q 798 553 861 553 l 317 553 q 231 518 267 553 q 195 433 195 483 l 195 408 l 961 408 m 525 892 l 633 892 l 633 783 l 525 783 l 525 892 z "},"Ę":{"ha":1019,"x_min":88,"x_max":999,"o":"m 840 0 l 88 0 l 88 785 q 139 909 88 858 q 262 960 190 960 l 999 960 l 999 852 l 262 852 q 215 833 235 852 q 195 785 195 813 l 195 550 l 999 550 l 999 442 l 195 442 l 195 107 l 999 107 l 999 0 l 930 0 q 885 -51 905 -24 q 858 -114 865 -78 q 857 -135 857 -125 q 866 -176 857 -160 q 908 -197 880 -197 q 940 -193 924 -197 q 970 -181 956 -189 l 970 -261 q 903 -277 945 -277 q 842 -267 868 -277 q 799 -240 817 -257 q 773 -200 782 -222 q 765 -152 765 -178 q 789 -66 765 -109 q 840 0 813 -24 z "},"ę":{"ha":1158,"x_min":88,"x_max":1070,"o":"m 961 408 q 907 511 954 469 q 798 553 861 553 l 317 553 q 231 518 267 553 q 195 433 195 483 l 195 408 l 961 408 m 926 0 l 317 0 q 155 67 222 0 q 88 229 88 134 l 88 433 q 155 594 88 527 q 317 661 222 661 l 798 661 q 990 581 910 661 q 1070 389 1070 502 l 1070 300 l 195 300 l 195 229 q 231 143 195 178 q 317 107 267 107 l 1016 107 l 1016 0 q 970 -51 990 -24 q 943 -114 951 -78 q 942 -135 942 -125 q 951 -176 942 -160 q 994 -197 965 -197 q 1025 -193 1009 -197 q 1055 -181 1042 -189 l 1055 -261 q 988 -277 1031 -277 q 928 -267 954 -277 q 885 -240 902 -257 q 859 -200 867 -222 q 850 -152 850 -178 q 874 -66 850 -109 q 926 0 899 -24 z "},"Ě":{"ha":1019,"x_min":88,"x_max":999,"o":"m 88 785 q 139 909 88 858 q 262 960 190 960 l 999 960 l 999 852 l 262 852 q 215 833 235 852 q 195 785 195 813 l 195 550 l 999 550 l 999 442 l 195 442 l 195 107 l 999 107 l 999 0 l 88 0 l 88 785 m 425 1007 l 248 1204 l 397 1204 l 510 1070 l 623 1204 l 772 1204 l 595 1007 l 425 1007 z "},"ě":{"ha":1158,"x_min":88,"x_max":1070,"o":"m 798 661 q 990 581 910 661 q 1070 389 1070 502 l 1070 300 l 195 300 l 195 229 q 231 143 195 178 q 317 107 267 107 l 1069 107 l 1069 0 l 317 0 q 155 67 222 0 q 88 229 88 134 l 88 433 q 155 594 88 527 q 317 661 222 661 l 798 661 m 961 408 q 907 511 954 469 q 798 553 861 553 l 317 553 q 231 518 267 553 q 195 433 195 483 l 195 408 l 961 408 m 494 709 l 317 906 l 466 906 l 579 772 l 692 906 l 841 906 l 665 709 l 494 709 z "},"Ĝ":{"ha":1265,"x_min":88,"x_max":1177,"o":"m 572 550 l 1177 550 l 1177 298 q 1089 87 1177 175 q 878 0 1002 0 l 387 0 q 176 87 264 0 q 88 298 88 175 l 88 661 q 176 872 88 785 q 387 960 264 960 l 1050 960 l 1050 852 l 387 852 q 252 796 309 852 q 196 661 196 740 l 196 298 q 252 163 196 220 q 387 107 309 107 l 878 107 q 1013 163 957 107 q 1069 298 1069 220 l 1069 442 l 572 442 l 572 550 m 718 1204 l 895 1007 l 746 1007 l 633 1141 l 519 1007 l 371 1007 l 547 1204 l 718 1204 z "},"ĝ":{"ha":1158,"x_min":88,"x_max":1070,"o":"m 798 662 q 990 582 910 662 q 1070 390 1070 503 l 1070 -69 q 1003 -231 1070 -164 q 842 -298 936 -298 l 142 -298 l 142 -191 l 842 -191 q 927 -155 891 -191 q 962 -69 962 -119 l 962 56 q 798 1 889 1 l 317 1 q 155 68 222 1 q 88 229 88 134 l 88 433 q 155 595 88 528 q 317 662 222 662 l 798 662 m 798 108 q 914 157 866 108 q 962 273 962 205 l 962 390 q 914 506 962 458 q 798 554 866 554 l 317 554 q 231 519 267 554 q 195 433 195 484 l 195 229 q 231 144 195 179 q 317 108 267 108 l 798 108 m 665 906 l 841 709 l 692 709 l 579 843 l 466 709 l 317 709 l 494 906 l 665 906 z "},"Ğ":{"ha":1265,"x_min":88,"x_max":1177,"o":"m 572 550 l 1177 550 l 1177 298 q 1089 87 1177 175 q 878 0 1002 0 l 387 0 q 176 87 264 0 q 88 298 88 175 l 88 661 q 176 872 88 785 q 387 960 264 960 l 1050 960 l 1050 852 l 387 852 q 252 796 309 852 q 196 661 196 740 l 196 298 q 252 163 196 220 q 387 107 309 107 l 878 107 q 1013 163 957 107 q 1069 298 1069 220 l 1069 442 l 572 442 l 572 550 m 633 1027 q 364 1191 473 1027 l 499 1191 q 633 1124 566 1124 q 766 1191 700 1124 l 901 1191 q 633 1027 793 1027 z "},"ğ":{"ha":1158,"x_min":88,"x_max":1070,"o":"m 798 662 q 990 582 910 662 q 1070 390 1070 503 l 1070 -69 q 1003 -231 1070 -164 q 842 -298 936 -298 l 142 -298 l 142 -191 l 842 -191 q 927 -155 891 -191 q 962 -69 962 -119 l 962 56 q 798 1 889 1 l 317 1 q 155 68 222 1 q 88 229 88 134 l 88 433 q 155 595 88 528 q 317 662 222 662 l 798 662 m 798 108 q 914 157 866 108 q 962 273 962 205 l 962 390 q 914 506 962 458 q 798 554 866 554 l 317 554 q 231 519 267 554 q 195 433 195 484 l 195 229 q 231 144 195 179 q 317 108 267 108 l 798 108 m 579 729 q 311 892 419 729 l 446 892 q 579 825 513 825 q 713 892 646 825 l 848 892 q 579 729 739 729 z "},"Ġ":{"ha":1265,"x_min":88,"x_max":1177,"o":"m 572 550 l 1177 550 l 1177 298 q 1089 87 1177 175 q 878 0 1002 0 l 387 0 q 176 87 264 0 q 88 298 88 175 l 88 661 q 176 872 88 785 q 387 960 264 960 l 1050 960 l 1050 852 l 387 852 q 252 796 309 852 q 196 661 196 740 l 196 298 q 252 163 196 220 q 387 107 309 107 l 878 107 q 1013 163 957 107 q 1069 298 1069 220 l 1069 442 l 572 442 l 572 550 m 578 1190 l 687 1190 l 687 1082 l 578 1082 l 578 1190 z "},"ġ":{"ha":1158,"x_min":88,"x_max":1070,"o":"m 798 662 q 990 582 910 662 q 1070 390 1070 503 l 1070 -69 q 1003 -231 1070 -164 q 842 -298 936 -298 l 142 -298 l 142 -191 l 842 -191 q 927 -155 891 -191 q 962 -69 962 -119 l 962 56 q 798 1 889 1 l 317 1 q 155 68 222 1 q 88 229 88 134 l 88 433 q 155 595 88 528 q 317 662 222 662 l 798 662 m 798 108 q 914 157 866 108 q 962 273 962 205 l 962 390 q 914 506 962 458 q 798 554 866 554 l 317 554 q 231 519 267 554 q 195 433 195 484 l 195 229 q 231 144 195 179 q 317 108 267 108 l 798 108 m 525 892 l 633 892 l 633 783 l 525 783 l 525 892 z "},"Ģ":{"ha":1265,"x_min":88,"x_max":1177,"o":"m 572 550 l 1177 550 l 1177 298 q 1089 87 1177 175 q 878 0 1002 0 l 387 0 q 176 87 264 0 q 88 298 88 175 l 88 661 q 176 872 88 785 q 387 960 264 960 l 1050 960 l 1050 852 l 387 852 q 252 796 309 852 q 196 661 196 740 l 196 298 q 252 163 196 220 q 387 107 309 107 l 878 107 q 1013 163 957 107 q 1069 298 1069 220 l 1069 442 l 572 442 l 572 550 m 577 -34 q 622 -31 601 -31 q 757 -68 715 -31 q 799 -155 799 -106 q 751 -246 799 -207 q 600 -286 703 -286 q 505 -277 557 -286 l 513 -205 q 572 -208 543 -208 q 712 -149 712 -208 q 599 -104 712 -104 q 577 -105 589 -104 l 577 -34 z "},"ģ":{"ha":1158,"x_min":88,"x_max":1070,"o":"m 798 662 q 990 582 910 662 q 1070 390 1070 503 l 1070 -69 q 1003 -231 1070 -164 q 842 -298 936 -298 l 142 -298 l 142 -191 l 842 -191 q 927 -155 891 -191 q 962 -69 962 -119 l 962 56 q 798 1 889 1 l 317 1 q 155 68 222 1 q 88 229 88 134 l 88 433 q 155 595 88 528 q 317 662 222 662 l 798 662 m 798 108 q 914 157 866 108 q 962 273 962 205 l 962 390 q 914 506 962 458 q 798 554 866 554 l 317 554 q 231 519 267 554 q 195 433 195 484 l 195 229 q 231 144 195 179 q 317 108 267 108 l 798 108 m 524 846 q 578 973 527 909 l 632 973 q 593 857 593 905 q 593 846 593 851 l 642 846 l 642 711 l 524 711 l 524 846 z "},"Ĥ":{"ha":1022,"x_min":88,"x_max":1067,"o":"m 1067 0 l 960 0 l 960 442 l 196 442 l 196 0 l 88 0 l 88 960 l 196 960 l 196 550 l 960 550 l 960 960 l 1067 960 l 1067 0 m 597 1204 l 773 1007 l 625 1007 l 511 1141 l 398 1007 l 250 1007 l 426 1204 l 597 1204 z "},"ĥ":{"ha":1158,"x_min":88,"x_max":1070,"o":"m 842 661 q 1003 594 936 661 q 1070 433 1070 527 l 1070 0 l 962 0 l 962 433 q 927 518 962 483 q 842 553 892 553 l 361 553 q 244 505 292 553 q 196 389 196 457 l 196 0 l 88 0 l 88 960 l 196 960 l 196 606 q 361 661 269 661 l 842 661 m 665 1176 l 841 979 l 692 979 l 579 1113 l 466 979 l 317 979 l 494 1176 l 665 1176 z "},"Ħ":{"ha":1022,"x_min":0,"x_max":1011,"o":"m 931 716 l 931 0 l 824 0 l 824 442 l 196 442 l 196 0 l 88 0 l 88 716 l 0 716 l 0 824 l 88 824 l 88 960 l 196 960 l 196 824 l 824 824 l 824 960 l 931 960 l 931 824 l 1011 824 l 1011 716 l 931 716 m 196 716 l 196 550 l 824 550 l 824 716 l 196 716 z "},"ħ":{"ha":1158,"x_min":-7,"x_max":1070,"o":"m 196 743 l 196 606 q 361 661 269 661 l 842 661 q 1003 594 936 661 q 1070 433 1070 527 l 1070 0 l 962 0 l 962 433 q 927 518 962 483 q 842 553 892 553 l 361 553 q 244 505 292 553 q 196 389 196 457 l 196 0 l 88 0 l 88 743 l -7 743 l -7 850 l 88 850 l 88 960 l 196 960 l 196 850 l 604 850 l 604 743 l 196 743 z "},"Ĩ":{"ha":351,"x_min":-88,"x_max":439,"o":"m 122 960 l 230 960 l 230 0 l 122 0 l 122 960 m 14 1054 l -88 1054 q 45 1202 -70 1201 l 48 1202 q 161 1177 90 1202 q 269 1152 229 1152 l 275 1152 q 288 1152 281 1152 q 346 1200 341 1152 l 439 1200 q 277 1051 427 1051 l 269 1051 q 127 1081 212 1051 q 58 1101 84 1101 l 54 1101 q 14 1054 33 1101 z "},"ĩ":{"ha":351,"x_min":-88,"x_max":439,"o":"m 121 661 l 229 661 l 229 0 l 121 0 l 121 661 m 14 755 l -88 755 q 45 903 -70 903 l 48 903 q 161 878 90 903 q 269 854 229 854 l 275 854 q 288 853 281 853 q 346 902 341 853 l 439 902 q 277 753 427 753 l 269 753 q 127 783 212 753 q 58 803 84 803 l 54 803 q 14 755 33 803 z "},"Ī":{"ha":345,"x_min":-54,"x_max":399,"o":"m 119 960 l 227 960 l 227 0 l 119 0 l 119 960 m -54 1149 l 399 1149 l 399 1042 l -54 1042 l -54 1149 z "},"ī":{"ha":345,"x_min":-54,"x_max":399,"o":"m 119 661 l 227 661 l 227 0 l 119 0 l 119 661 m -54 851 l 399 851 l 399 743 l -54 743 l -54 851 z "},"Ĭ":{"ha":361,"x_min":-88,"x_max":449,"o":"m 127 960 l 235 960 l 235 0 l 127 0 l 127 960 m 180 1027 q -88 1191 20 1027 l 47 1191 q 180 1124 114 1124 q 314 1191 248 1124 l 449 1191 q 180 1027 340 1027 z "},"ĭ":{"ha":359,"x_min":-88,"x_max":449,"o":"m 127 661 l 235 661 l 235 0 l 127 0 l 127 661 m 180 729 q -88 892 20 729 l 47 892 q 180 825 114 825 q 314 892 248 825 l 449 892 q 180 729 340 729 z "},"Į":{"ha":327,"x_min":41,"x_max":245,"o":"m 107 960 l 215 960 l 215 0 l 107 0 l 107 960 m 205 0 q 161 -51 180 -24 q 134 -114 141 -78 q 132 -135 132 -125 q 142 -176 132 -160 q 184 -197 155 -197 q 216 -193 199 -197 q 245 -181 232 -189 l 245 -261 q 178 -277 221 -277 q 118 -267 144 -277 q 75 -240 92 -257 q 49 -200 58 -222 q 41 -152 41 -178 q 65 -66 41 -109 q 116 0 89 -24 l 205 0 z "},"į":{"ha":327,"x_min":41,"x_max":245,"o":"m 105 661 l 213 661 l 213 0 l 105 0 l 105 661 m 105 960 l 214 960 l 214 852 l 105 852 l 105 960 m 205 0 q 161 -51 180 -24 q 134 -114 141 -78 q 132 -135 132 -125 q 142 -176 132 -160 q 184 -197 155 -197 q 216 -193 199 -197 q 245 -181 232 -189 l 245 -261 q 178 -277 221 -277 q 118 -267 144 -277 q 75 -240 92 -257 q 49 -200 58 -222 q 41 -152 41 -178 q 65 -66 41 -109 q 116 0 89 -24 l 205 0 z "},"İ":{"ha":284,"x_min":88,"x_max":197,"o":"m 88 960 l 196 960 l 196 0 l 88 0 l 88 960 m 88 1190 l 197 1190 l 197 1082 l 88 1082 l 88 1190 z "},"Ĳ":{"ha":922,"x_min":88,"x_max":834,"o":"m 88 960 l 196 960 l 196 0 l 88 0 l 88 960 m 726 960 l 834 960 l 834 229 q 767 67 834 134 q 606 0 700 0 l 372 0 l 372 107 l 606 107 q 691 143 656 107 q 726 229 726 178 l 726 960 z "},"ĳ":{"ha":659,"x_min":95,"x_max":557,"o":"m 142 661 l 250 661 l 250 0 l 142 0 l 142 661 m 142 960 l 250 960 l 250 852 l 142 852 l 142 960 m 450 661 l 557 661 l 557 -70 q 490 -232 557 -165 q 328 -298 423 -298 l 95 -298 l 95 -191 l 328 -191 q 414 -155 378 -191 q 450 -70 450 -120 l 450 661 m 448 960 l 557 960 l 557 851 l 448 851 l 448 960 z "},"Ĵ":{"ha":593,"x_min":7,"x_max":669,"o":"m 361 960 l 469 960 l 469 229 q 401 67 469 134 q 240 0 334 0 l 7 0 l 7 107 l 240 107 q 326 143 290 107 q 361 229 361 178 l 361 960 m 493 1191 l 669 994 l 521 994 l 408 1128 l 294 994 l 146 994 l 322 1191 l 493 1191 z "},"ĵ":{"ha":388,"x_min":-219,"x_max":456,"o":"m 279 892 l 456 695 l 307 695 l 194 829 l 81 695 l -68 695 l 109 892 l 279 892 m 136 661 l 243 661 l 243 -70 q 176 -232 243 -165 q 14 -298 109 -298 l -219 -298 l -219 -191 l 14 -191 q 100 -155 64 -191 q 136 -70 136 -120 l 136 661 z "},"Ķ":{"ha":1158,"x_min":88,"x_max":1070,"o":"m 962 960 l 1070 960 l 1070 671 q 989 496 1070 565 q 1070 321 1070 427 l 1070 0 l 962 0 l 962 321 q 927 407 962 371 q 842 442 891 442 l 196 442 l 196 0 l 88 0 l 88 960 l 196 960 l 196 550 l 842 550 q 927 585 891 550 q 962 671 962 621 l 962 960 m 511 -34 q 556 -31 535 -31 q 691 -68 649 -31 q 733 -155 733 -106 q 685 -246 733 -207 q 534 -286 637 -286 q 439 -277 492 -286 l 447 -205 q 506 -208 477 -208 q 646 -149 646 -208 q 533 -104 646 -104 q 511 -105 524 -104 l 511 -34 z "},"ķ":{"ha":1158,"x_min":88,"x_max":1070,"o":"m 991 260 q 1070 88 1070 192 l 1070 0 l 963 0 l 963 88 q 927 174 963 138 q 842 209 892 209 l 196 209 l 196 0 l 88 0 l 88 960 l 196 960 l 196 627 q 317 661 252 661 l 842 661 q 1011 591 947 661 q 1069 435 1069 526 q 991 260 1069 327 m 842 317 q 932 354 900 317 q 961 435 961 387 q 932 517 961 484 q 842 553 900 553 l 317 553 q 231 518 267 553 q 196 433 196 483 l 196 317 l 842 317 m 484 -34 q 528 -31 507 -31 q 663 -68 621 -31 q 705 -155 705 -106 q 657 -246 705 -207 q 507 -286 610 -286 q 412 -277 464 -286 l 419 -205 q 478 -208 449 -208 q 618 -149 618 -208 q 505 -104 618 -104 q 484 -105 496 -104 l 484 -34 z "},"ĸ":{"ha":1158,"x_min":88,"x_max":1070,"o":"m 961 661 l 1069 661 l 1069 483 q 991 308 1069 374 q 1070 136 1070 239 l 1070 0 l 963 0 l 963 136 q 927 221 963 186 q 842 256 892 256 l 196 256 l 196 0 l 88 0 l 88 661 l 196 661 l 196 364 l 842 364 q 932 401 900 364 q 961 483 961 434 l 961 661 z "},"Ĺ":{"ha":1019,"x_min":88,"x_max":931,"o":"m 196 174 q 215 127 196 146 q 262 107 235 107 l 931 107 l 931 0 l 262 0 q 139 51 190 0 q 88 174 88 102 l 88 960 l 196 960 l 196 174 m 159 1007 l 281 1204 l 450 1204 l 267 1007 l 159 1007 z "},"ĺ":{"ha":450,"x_min":102,"x_max":446,"o":"m 210 229 q 245 143 210 178 q 331 107 281 107 l 444 107 l 444 0 l 331 0 q 169 67 236 0 q 102 229 102 134 l 102 960 l 210 960 l 210 229 m 155 1006 l 277 1203 l 446 1203 l 262 1006 l 155 1006 z "},"Ļ":{"ha":1019,"x_min":88,"x_max":931,"o":"m 196 174 q 215 127 196 146 q 262 107 235 107 l 931 107 l 931 0 l 262 0 q 139 51 190 0 q 88 174 88 102 l 88 960 l 196 960 l 196 174 m 463 -34 q 507 -31 486 -31 q 642 -68 600 -31 q 684 -155 684 -106 q 636 -246 684 -207 q 486 -286 589 -286 q 391 -277 443 -286 l 398 -205 q 457 -208 428 -208 q 597 -149 597 -208 q 484 -104 597 -104 q 463 -105 475 -104 l 463 -34 z "},"ļ":{"ha":450,"x_min":102,"x_max":448,"o":"m 210 229 q 245 143 210 178 q 331 107 281 107 l 444 107 l 444 0 l 331 0 q 169 67 236 0 q 102 229 102 134 l 102 960 l 210 960 l 210 229 m 226 -34 q 271 -31 250 -31 q 406 -68 363 -31 q 448 -155 448 -106 q 400 -246 448 -207 q 249 -286 352 -286 q 154 -277 206 -286 l 161 -205 q 220 -208 191 -208 q 361 -149 361 -208 q 248 -104 361 -104 q 226 -105 238 -104 l 226 -34 z "},"Ľ":{"ha":1019,"x_min":88,"x_max":931,"o":"m 196 174 q 215 127 196 146 q 262 107 235 107 l 931 107 l 931 0 l 262 0 q 139 51 190 0 q 88 174 88 102 l 88 960 l 196 960 l 196 174 m 871 824 q 816 697 867 761 l 762 697 q 802 814 802 765 q 801 824 802 819 l 753 824 l 753 960 l 871 960 l 871 824 z "},"ľ":{"ha":532,"x_min":102,"x_max":464,"o":"m 210 229 q 245 143 210 178 q 331 107 281 107 l 444 107 l 444 0 l 331 0 q 169 67 236 0 q 102 229 102 134 l 102 960 l 210 960 l 210 229 m 464 824 q 409 697 460 761 l 355 697 q 395 814 395 765 q 394 824 395 819 l 346 824 l 346 960 l 464 960 l 464 824 z "},"Ŀ":{"ha":1019,"x_min":88,"x_max":931,"o":"m 196 174 q 215 127 196 146 q 262 107 235 107 l 931 107 l 931 0 l 262 0 q 139 51 190 0 q 88 174 88 102 l 88 960 l 196 960 l 196 174 m 811 526 l 903 526 l 903 434 l 811 434 l 811 526 z "},"ŀ":{"ha":543,"x_min":102,"x_max":536,"o":"m 210 229 q 245 143 210 178 q 331 107 281 107 l 444 107 l 444 0 l 331 0 q 169 67 236 0 q 102 229 102 134 l 102 960 l 210 960 l 210 229 m 444 526 l 536 526 l 536 434 l 444 434 l 444 526 z "},"Ł":{"ha":938,"x_min":-87,"x_max":931,"o":"m 196 507 l 196 174 q 215 127 196 146 q 262 107 235 107 l 931 107 l 931 0 l 262 0 q 139 51 190 0 q 88 174 88 102 l 88 445 l -87 344 l -87 452 l 88 553 l 88 960 l 196 960 l 196 615 l 382 723 l 382 615 l 196 507 z "},"ł":{"ha":463,"x_min":-68,"x_max":456,"o":"m 222 511 l 222 229 q 257 143 222 178 q 343 107 293 107 l 456 107 l 456 0 l 343 0 q 181 67 248 0 q 114 229 114 134 l 114 449 l -68 344 l -68 452 l 114 557 l 114 960 l 222 960 l 222 619 l 401 723 l 401 615 l 222 511 z "},"Ń":{"ha":1265,"x_min":88,"x_max":1177,"o":"m 878 960 q 1089 872 1001 960 q 1177 661 1177 785 l 1177 1 l 1069 1 l 1069 661 q 1013 796 1069 740 q 878 852 957 852 l 387 852 q 252 796 308 852 q 196 661 196 740 l 196 0 l 88 0 l 88 661 q 176 872 88 785 q 387 960 264 960 l 878 960 m 536 1007 l 658 1204 l 827 1204 l 644 1007 l 536 1007 z "},"ń":{"ha":1158,"x_min":88,"x_max":1070,"o":"m 842 661 q 1003 594 936 661 q 1070 433 1070 527 l 1070 0 l 962 0 l 962 433 q 927 518 962 483 q 842 553 892 553 l 361 553 q 244 505 292 553 q 196 389 196 457 l 196 0 l 88 0 l 88 406 l 89 406 q 174 587 95 513 q 361 661 252 661 l 842 661 m 482 709 l 604 906 l 773 906 l 590 709 l 482 709 z "},"Ņ":{"ha":1265,"x_min":88,"x_max":1177,"o":"m 878 960 q 1089 872 1001 960 q 1177 661 1177 785 l 1177 1 l 1069 1 l 1069 661 q 1013 796 1069 740 q 878 852 957 852 l 387 852 q 252 796 308 852 q 196 661 196 740 l 196 0 l 88 0 l 88 661 q 176 872 88 785 q 387 960 264 960 l 878 960 m 551 -34 q 596 -31 575 -31 q 731 -68 689 -31 q 773 -155 773 -106 q 725 -246 773 -207 q 574 -286 677 -286 q 479 -277 532 -286 l 487 -205 q 546 -208 517 -208 q 686 -149 686 -208 q 573 -104 686 -104 q 551 -105 564 -104 l 551 -34 z "},"ņ":{"ha":1158,"x_min":88,"x_max":1070,"o":"m 842 661 q 1003 594 936 661 q 1070 433 1070 527 l 1070 0 l 962 0 l 962 433 q 927 518 962 483 q 842 553 892 553 l 361 553 q 244 505 292 553 q 196 389 196 457 l 196 0 l 88 0 l 88 406 l 89 406 q 174 587 95 513 q 361 661 252 661 l 842 661 m 484 -34 q 528 -31 507 -31 q 663 -68 621 -31 q 705 -155 705 -106 q 657 -246 705 -207 q 507 -286 610 -286 q 412 -277 464 -286 l 419 -205 q 478 -208 449 -208 q 618 -149 618 -208 q 505 -104 618 -104 q 484 -105 496 -104 l 484 -34 z "},"Ň":{"ha":1265,"x_min":88,"x_max":1177,"o":"m 878 960 q 1089 872 1001 960 q 1177 661 1177 785 l 1177 1 l 1069 1 l 1069 661 q 1013 796 1069 740 q 878 852 957 852 l 387 852 q 252 796 308 852 q 196 661 196 740 l 196 0 l 88 0 l 88 661 q 176 872 88 785 q 387 960 264 960 l 878 960 m 547 1007 l 371 1204 l 519 1204 l 633 1070 l 746 1204 l 895 1204 l 718 1007 l 547 1007 z "},"ň":{"ha":1158,"x_min":88,"x_max":1070,"o":"m 842 661 q 1003 594 936 661 q 1070 433 1070 527 l 1070 0 l 962 0 l 962 433 q 927 518 962 483 q 842 553 892 553 l 361 553 q 244 505 292 553 q 196 389 196 457 l 196 0 l 88 0 l 88 406 l 89 406 q 174 587 95 513 q 361 661 252 661 l 842 661 m 494 709 l 317 906 l 466 906 l 579 772 l 692 906 l 841 906 l 665 709 l 494 709 z "},"ŉ":{"ha":1239,"x_min":22,"x_max":1172,"o":"m 943 661 q 1105 594 1038 661 q 1172 433 1172 527 l 1172 0 l 1064 0 l 1064 433 q 1029 518 1064 483 q 943 553 994 553 l 463 553 q 346 505 394 553 q 298 389 298 457 l 298 0 l 190 0 l 190 406 l 191 406 q 275 587 197 513 q 463 661 354 661 l 943 661 m 140 526 q 85 399 137 463 l 32 399 q 71 515 71 467 q 71 526 71 521 l 22 526 l 22 661 l 140 661 l 140 526 z "},"Ŋ":{"ha":1040,"x_min":68,"x_max":972,"o":"m 570 94 q 669 85 624 85 q 805 137 757 85 q 853 235 840 176 q 867 382 859 264 l 868 383 l 868 672 q 810 812 868 753 q 670 870 751 870 l 370 870 q 231 812 289 870 q 172 675 173 755 l 172 0 l 68 0 l 68 960 l 158 960 l 158 888 l 202 916 q 356 960 273 960 l 684 960 q 887 876 802 960 q 972 672 972 791 l 972 385 q 920 113 965 188 q 679 1 858 9 q 650 0 665 0 q 525 16 583 0 l 570 94 z "},"ŋ":{"ha":805,"x_min":68,"x_max":737,"o":"m 625 -37 q 626 259 626 37 q 627 454 627 362 q 594 532 627 499 q 516 564 562 564 l 282 564 q 204 532 237 564 q 172 455 172 500 l 172 1 l 68 1 l 68 661 l 172 661 l 172 629 q 282 661 222 661 l 516 661 q 676 600 615 661 q 737 454 737 539 l 737 -1 q 700 -189 734 -132 q 528 -271 654 -265 q 505 -271 515 -271 q 395 -251 439 -271 l 447 -181 q 512 -189 487 -189 q 606 -148 578 -189 q 625 -37 625 -119 z "},"Ō":{"ha":1265,"x_min":88,"x_max":1177,"o":"m 878 960 q 1089 872 1001 960 q 1177 661 1177 785 l 1177 298 q 1089 87 1177 175 q 878 0 1001 0 l 387 0 q 176 87 264 0 q 88 298 88 175 l 88 661 q 176 872 88 785 q 387 960 264 960 l 878 960 m 1069 661 q 1013 796 1069 740 q 878 852 957 852 l 387 852 q 252 796 308 852 q 196 661 196 740 l 196 298 q 252 163 196 220 q 387 107 308 107 l 878 107 q 1013 163 957 107 q 1069 298 1069 220 l 1069 661 m 406 1163 l 859 1163 l 859 1055 l 406 1055 l 406 1163 z "},"ō":{"ha":1158,"x_min":88,"x_max":1070,"o":"m 844 661 q 1004 595 937 661 q 1070 435 1070 528 l 1070 227 q 1004 66 1070 133 q 844 0 937 0 l 315 0 q 155 66 221 0 q 88 227 88 133 l 88 435 q 155 595 88 528 q 315 661 221 661 l 844 661 m 962 435 q 928 519 962 484 q 844 553 892 553 l 315 553 q 231 519 265 553 q 195 435 195 484 l 195 227 q 231 142 195 177 q 315 107 265 107 l 844 107 q 928 142 892 107 q 962 227 962 177 l 962 435 m 353 865 l 806 865 l 806 757 l 353 757 l 353 865 z "},"Ŏ":{"ha":1265,"x_min":88,"x_max":1177,"o":"m 878 960 q 1089 872 1001 960 q 1177 661 1177 785 l 1177 298 q 1089 87 1177 175 q 878 0 1001 0 l 387 0 q 176 87 264 0 q 88 298 88 175 l 88 661 q 176 872 88 785 q 387 960 264 960 l 878 960 m 1069 661 q 1013 796 1069 740 q 878 852 957 852 l 387 852 q 252 796 308 852 q 196 661 196 740 l 196 298 q 252 163 196 220 q 387 107 308 107 l 878 107 q 1013 163 957 107 q 1069 298 1069 220 l 1069 661 m 633 1027 q 364 1191 473 1027 l 499 1191 q 633 1124 566 1124 q 766 1191 700 1124 l 901 1191 q 633 1027 793 1027 z "},"ŏ":{"ha":1158,"x_min":88,"x_max":1070,"o":"m 844 661 q 1004 595 937 661 q 1070 435 1070 528 l 1070 227 q 1004 66 1070 133 q 844 0 937 0 l 315 0 q 155 66 221 0 q 88 227 88 133 l 88 435 q 155 595 88 528 q 315 661 221 661 l 844 661 m 962 435 q 928 519 962 484 q 844 553 892 553 l 315 553 q 231 519 265 553 q 195 435 195 484 l 195 227 q 231 142 195 177 q 315 107 265 107 l 844 107 q 928 142 892 107 q 962 227 962 177 l 962 435 m 579 729 q 311 892 419 729 l 446 892 q 579 825 513 825 q 713 892 646 825 l 848 892 q 579 729 739 729 z "},"Ő":{"ha":1265,"x_min":88,"x_max":1177,"o":"m 878 960 q 1089 872 1001 960 q 1177 661 1177 785 l 1177 298 q 1089 87 1177 175 q 878 0 1001 0 l 387 0 q 176 87 264 0 q 88 298 88 175 l 88 661 q 176 872 88 785 q 387 960 264 960 l 878 960 m 1069 661 q 1013 796 1069 740 q 878 852 957 852 l 387 852 q 252 796 308 852 q 196 661 196 740 l 196 298 q 252 163 196 220 q 387 107 308 107 l 878 107 q 1013 163 957 107 q 1069 298 1069 220 l 1069 661 m 335 1007 l 457 1204 l 626 1204 l 443 1007 l 335 1007 m 640 1007 l 762 1204 l 930 1204 l 747 1007 l 640 1007 z "},"ő":{"ha":1158,"x_min":88,"x_max":1070,"o":"m 844 661 q 1004 595 937 661 q 1070 435 1070 528 l 1070 227 q 1004 66 1070 133 q 844 0 937 0 l 315 0 q 155 66 221 0 q 88 227 88 133 l 88 435 q 155 595 88 528 q 315 661 221 661 l 844 661 m 962 435 q 928 519 962 484 q 844 553 892 553 l 315 553 q 231 519 265 553 q 195 435 195 484 l 195 227 q 231 142 195 177 q 315 107 265 107 l 844 107 q 928 142 892 107 q 962 227 962 177 l 962 435 m 281 709 l 404 906 l 572 906 l 389 709 l 281 709 m 586 709 l 708 906 l 877 906 l 694 709 l 586 709 z "},"Œ":{"ha":1686,"x_min":88,"x_max":1912,"o":"m 1069 661 q 1013 796 1069 740 q 878 852 957 852 l 387 852 q 252 796 308 852 q 196 661 196 740 l 196 298 q 252 163 196 220 q 387 107 308 107 l 878 107 q 1013 163 957 107 q 1069 298 1069 220 l 1069 661 m 1069 69 q 878 0 987 0 l 387 0 q 176 87 264 0 q 88 298 88 175 l 88 661 q 176 872 88 785 q 387 960 264 960 l 878 960 q 1089 872 1001 960 q 1091 870 1090 871 q 1120 909 1103 891 q 1243 960 1171 960 l 1912 960 l 1912 852 l 1243 852 q 1196 833 1216 852 q 1177 785 1177 813 l 1177 550 l 1912 550 l 1912 442 l 1177 442 l 1177 107 l 1912 107 l 1912 0 l 1069 0 l 1069 69 z "},"œ":{"ha":2032,"x_min":88,"x_max":1944,"o":"m 1016 80 q 1004 66 1010 73 q 844 0 937 0 l 315 0 q 155 66 221 0 q 88 227 88 133 l 88 435 q 155 595 88 528 q 315 661 221 661 l 844 661 q 1004 595 937 661 q 1017 581 1010 588 q 1028 594 1022 588 q 1190 661 1095 661 l 1671 661 q 1864 581 1784 661 q 1944 389 1944 502 l 1944 300 l 1070 300 l 1070 227 q 1069 212 1070 220 q 1105 143 1075 172 q 1190 107 1140 107 l 1889 107 l 1889 0 l 1190 0 q 1028 67 1095 0 q 1016 80 1022 73 m 1069 449 q 1070 435 1070 441 l 1070 408 l 1834 408 q 1781 511 1828 469 q 1671 553 1734 553 l 1190 553 q 1105 518 1140 553 q 1069 449 1075 489 m 962 216 l 962 445 q 928 519 959 488 q 844 553 892 553 l 315 553 q 231 519 265 553 q 195 435 195 484 l 195 227 q 231 142 195 177 q 315 107 265 107 l 844 107 q 928 142 892 107 q 962 216 959 174 z "},"Ŕ":{"ha":1265,"x_min":88,"x_max":1177,"o":"m 1051 478 q 1177 235 1177 388 l 1177 0 l 1069 0 l 1069 235 q 1013 370 1069 314 q 878 427 956 427 l 196 427 l 196 0 l 88 0 l 88 792 q 139 909 88 858 q 262 960 191 960 l 878 960 q 1099 872 1016 960 q 1174 693 1174 800 q 1051 478 1174 557 m 878 534 q 1019 579 968 534 q 1067 693 1067 627 q 1021 798 1067 759 q 878 852 969 852 l 262 852 q 215 833 235 852 q 196 792 196 813 l 196 534 l 878 534 m 536 1007 l 658 1204 l 827 1204 l 644 1007 l 536 1007 z "},"ŕ":{"ha":904,"x_min":88,"x_max":897,"o":"m 88 435 q 155 595 88 528 q 315 661 221 661 l 897 661 l 897 553 l 315 553 q 231 519 266 553 q 196 435 196 484 l 196 0 l 88 0 l 88 435 m 396 709 l 518 906 l 687 906 l 504 709 l 396 709 z "},"Ŗ":{"ha":1265,"x_min":88,"x_max":1177,"o":"m 1051 478 q 1177 235 1177 388 l 1177 0 l 1069 0 l 1069 235 q 1013 370 1069 314 q 878 427 956 427 l 196 427 l 196 0 l 88 0 l 88 792 q 139 909 88 858 q 262 960 191 960 l 878 960 q 1099 872 1016 960 q 1174 693 1174 800 q 1051 478 1174 557 m 878 534 q 1019 579 968 534 q 1067 693 1067 627 q 1021 798 1067 759 q 878 852 969 852 l 262 852 q 215 833 235 852 q 196 792 196 813 l 196 534 l 878 534 m 553 -34 q 598 -31 577 -31 q 733 -68 691 -31 q 775 -155 775 -106 q 727 -246 775 -207 q 576 -286 680 -286 q 481 -277 534 -286 l 489 -205 q 548 -208 519 -208 q 688 -149 688 -208 q 575 -104 688 -104 q 553 -105 566 -104 l 553 -34 z "},"ŗ":{"ha":904,"x_min":88,"x_max":897,"o":"m 88 435 q 155 595 88 528 q 315 661 221 661 l 897 661 l 897 553 l 315 553 q 231 519 266 553 q 196 435 196 484 l 196 0 l 88 0 l 88 435 m 436 -34 q 481 -31 460 -31 q 616 -68 574 -31 q 658 -155 658 -106 q 610 -246 658 -207 q 459 -286 562 -286 q 364 -277 416 -286 l 372 -205 q 431 -208 401 -208 q 571 -149 571 -208 q 458 -104 571 -104 q 436 -105 448 -104 l 436 -34 z "},"Ř":{"ha":1265,"x_min":88,"x_max":1177,"o":"m 1051 478 q 1177 235 1177 388 l 1177 0 l 1069 0 l 1069 235 q 1013 370 1069 314 q 878 427 956 427 l 196 427 l 196 0 l 88 0 l 88 792 q 139 909 88 858 q 262 960 191 960 l 878 960 q 1099 872 1016 960 q 1174 693 1174 800 q 1051 478 1174 557 m 878 534 q 1019 579 968 534 q 1067 693 1067 627 q 1021 798 1067 759 q 878 852 969 852 l 262 852 q 215 833 235 852 q 196 792 196 813 l 196 534 l 878 534 m 547 1007 l 371 1204 l 519 1204 l 633 1070 l 746 1204 l 895 1204 l 718 1007 l 547 1007 z "},"ř":{"ha":904,"x_min":88,"x_max":897,"o":"m 88 435 q 155 595 88 528 q 315 661 221 661 l 897 661 l 897 553 l 315 553 q 231 519 266 553 q 196 435 196 484 l 196 0 l 88 0 l 88 435 m 408 709 l 231 906 l 380 906 l 493 772 l 606 906 l 755 906 l 578 709 l 408 709 z "},"Ś":{"ha":1156,"x_min":88,"x_max":1067,"o":"m 887 549 q 1015 496 962 549 q 1067 368 1067 443 l 1067 180 q 1015 53 1067 106 q 887 0 962 0 l 88 0 l 88 107 l 887 107 q 939 129 917 107 q 960 180 960 151 l 960 368 q 939 420 960 399 q 887 441 917 441 l 262 441 q 139 492 190 441 q 88 615 88 543 l 88 785 q 139 908 88 857 q 262 959 190 959 l 1067 959 l 1067 851 l 262 851 q 215 831 235 851 q 195 785 195 812 l 195 615 q 215 568 195 588 q 262 549 235 549 l 887 549 m 481 1007 l 603 1204 l 772 1204 l 589 1007 l 481 1007 z "},"ś":{"ha":1156,"x_min":88,"x_max":1068,"o":"m 843 393 q 1011 331 948 393 q 1068 196 1068 275 q 1011 61 1068 117 q 843 0 947 0 l 88 0 l 88 107 l 843 107 q 932 135 900 107 q 960 196 960 159 q 932 257 960 233 q 843 285 900 285 l 314 285 q 146 344 209 285 q 88 473 88 397 q 146 602 88 549 q 314 661 209 661 l 977 661 l 977 554 l 314 553 q 224 528 256 553 q 196 473 196 506 q 224 418 196 440 q 314 393 256 393 l 843 393 m 481 709 l 604 906 l 772 906 l 589 709 l 481 709 z "},"Ŝ":{"ha":1156,"x_min":88,"x_max":1067,"o":"m 887 549 q 1015 496 962 549 q 1067 368 1067 443 l 1067 180 q 1015 53 1067 106 q 887 0 962 0 l 88 0 l 88 107 l 887 107 q 939 129 917 107 q 960 180 960 151 l 960 368 q 939 420 960 399 q 887 441 917 441 l 262 441 q 139 492 190 441 q 88 615 88 543 l 88 785 q 139 908 88 857 q 262 959 190 959 l 1067 959 l 1067 851 l 262 851 q 215 831 235 851 q 195 785 195 812 l 195 615 q 215 568 195 588 q 262 549 235 549 l 887 549 m 663 1204 l 840 1007 l 691 1007 l 578 1141 l 465 1007 l 316 1007 l 492 1204 l 663 1204 z "},"ŝ":{"ha":1156,"x_min":88,"x_max":1068,"o":"m 843 393 q 1011 331 948 393 q 1068 196 1068 275 q 1011 61 1068 117 q 843 0 947 0 l 88 0 l 88 107 l 843 107 q 932 135 900 107 q 960 196 960 159 q 932 257 960 233 q 843 285 900 285 l 314 285 q 146 344 209 285 q 88 473 88 397 q 146 602 88 549 q 314 661 209 661 l 977 661 l 977 554 l 314 553 q 224 528 256 553 q 196 473 196 506 q 224 418 196 440 q 314 393 256 393 l 843 393 m 664 906 l 840 709 l 692 709 l 578 843 l 465 709 l 317 709 l 493 906 l 664 906 z "},"Ş":{"ha":1156,"x_min":88,"x_max":1067,"o":"m 509 0 l 88 0 l 88 107 l 887 107 q 939 129 917 107 q 960 180 960 151 l 960 368 q 939 420 960 399 q 887 441 917 441 l 262 441 q 139 492 190 441 q 88 615 88 543 l 88 785 q 139 908 88 857 q 262 959 190 959 l 1067 959 l 1067 851 l 262 851 q 215 831 235 851 q 195 785 195 812 l 195 615 q 215 568 195 588 q 262 549 235 549 l 887 549 q 1015 496 962 549 q 1067 368 1067 443 l 1067 180 q 1015 53 1067 106 q 887 0 962 0 l 597 0 l 580 -66 q 665 -83 643 -66 q 710 -179 710 -117 q 675 -263 710 -228 q 590 -299 640 -299 l 446 -299 l 446 -214 l 590 -214 q 624 -179 624 -214 q 612 -149 624 -159 q 591 -143 605 -143 l 526 -143 q 496 -131 510 -143 q 484 -102 484 -119 q 486 -90 484 -96 l 509 0 z "},"ş":{"ha":1156,"x_min":88,"x_max":1068,"o":"m 509 0 l 88 0 l 88 107 l 843 107 q 932 135 900 107 q 960 196 960 159 q 932 257 960 233 q 843 285 900 285 l 314 285 q 146 344 209 285 q 88 473 88 397 q 146 602 88 549 q 314 661 209 661 l 977 661 l 977 554 l 314 553 q 224 528 256 553 q 196 473 196 506 q 224 418 196 440 q 314 393 256 393 l 843 393 q 1011 331 948 393 q 1068 196 1068 275 q 1011 61 1068 117 q 843 0 947 0 l 597 0 l 580 -66 q 666 -83 643 -66 q 710 -179 710 -117 q 675 -263 710 -228 q 590 -299 640 -299 l 446 -299 l 446 -214 l 590 -214 q 625 -179 625 -214 q 613 -149 625 -159 q 591 -143 605 -143 l 526 -143 q 496 -131 510 -143 q 484 -102 484 -119 q 486 -90 484 -96 l 509 0 z "},"Š":{"ha":1156,"x_min":88,"x_max":1067,"o":"m 887 549 q 1015 496 962 549 q 1067 368 1067 443 l 1067 180 q 1015 53 1067 106 q 887 0 962 0 l 88 0 l 88 107 l 887 107 q 939 129 917 107 q 960 180 960 151 l 960 368 q 939 420 960 399 q 887 441 917 441 l 262 441 q 139 492 190 441 q 88 615 88 543 l 88 785 q 139 908 88 857 q 262 959 190 959 l 1067 959 l 1067 851 l 262 851 q 215 831 235 851 q 195 785 195 812 l 195 615 q 215 568 195 588 q 262 549 235 549 l 887 549 m 492 1007 l 316 1204 l 465 1204 l 578 1070 l 691 1204 l 840 1204 l 663 1007 l 492 1007 z "},"š":{"ha":1156,"x_min":88,"x_max":1068,"o":"m 843 393 q 1011 331 948 393 q 1068 196 1068 275 q 1011 61 1068 117 q 843 0 947 0 l 88 0 l 88 107 l 843 107 q 932 135 900 107 q 960 196 960 159 q 932 257 960 233 q 843 285 900 285 l 314 285 q 146 344 209 285 q 88 473 88 397 q 146 602 88 549 q 314 661 209 661 l 977 661 l 977 554 l 314 553 q 224 528 256 553 q 196 473 196 506 q 224 418 196 440 q 314 393 256 393 l 843 393 m 493 709 l 317 906 l 465 906 l 578 772 l 692 906 l 840 906 l 664 709 l 493 709 z "},"Ţ":{"ha":1095,"x_min":88,"x_max":1006,"o":"m 493 0 l 493 852 l 88 852 l 88 960 l 1006 960 l 1006 852 l 601 852 l 601 0 l 593 -61 q 660 -83 637 -66 q 705 -180 705 -117 q 669 -264 705 -229 q 585 -299 635 -299 l 441 -299 l 441 -214 l 585 -214 q 619 -180 619 -214 q 607 -150 619 -159 q 585 -144 600 -144 l 521 -144 q 491 -131 505 -144 q 479 -102 479 -119 q 480 -90 479 -96 l 493 0 z "},"ţ":{"ha":635,"x_min":88,"x_max":574,"o":"m 371 8 q 272 67 316 23 q 205 229 205 134 l 205 553 l 88 553 l 88 661 l 205 661 l 205 960 l 313 960 l 313 661 l 547 661 l 547 553 l 313 553 l 313 229 q 348 143 313 178 q 433 107 384 107 l 547 107 l 547 0 l 457 0 l 444 -50 q 530 -68 507 -50 q 574 -163 574 -101 q 539 -248 574 -212 q 454 -283 504 -283 l 310 -283 l 310 -197 l 454 -197 q 488 -163 488 -197 q 477 -134 488 -143 q 455 -127 469 -127 l 391 -127 q 361 -115 374 -127 q 349 -86 349 -102 q 350 -74 349 -80 l 371 8 z "},"Ť":{"ha":1095,"x_min":88,"x_max":1006,"o":"m 88 960 l 1006 960 l 1006 852 l 601 852 l 601 0 l 493 0 l 493 852 l 88 852 l 88 960 m 462 1007 l 286 1204 l 434 1204 l 547 1070 l 661 1204 l 809 1204 l 633 1007 l 462 1007 z "},"ť":{"ha":635,"x_min":88,"x_max":557,"o":"m 313 661 l 547 661 l 547 553 l 313 553 l 313 229 q 348 143 313 178 q 433 107 384 107 l 547 107 l 547 0 l 433 0 q 272 67 339 0 q 205 229 205 134 l 205 553 l 88 553 l 88 661 l 205 661 l 205 960 l 313 960 l 313 661 m 557 824 q 503 697 554 761 l 449 697 q 488 814 488 765 q 488 824 488 819 l 439 824 l 439 960 l 557 960 l 557 824 z "},"Ŧ":{"ha":1095,"x_min":88,"x_max":1006,"o":"m 493 534 l 493 852 l 88 852 l 88 960 l 1006 960 l 1006 852 l 601 852 l 601 534 l 809 534 l 809 426 l 601 426 l 601 0 l 493 0 l 493 426 l 286 426 l 286 534 l 493 534 z "},"ŧ":{"ha":472,"x_min":7,"x_max":465,"o":"m 123 438 l 123 553 l 7 553 l 7 661 l 123 661 l 123 960 l 231 960 l 231 661 l 465 661 l 465 553 l 231 553 l 231 438 l 464 438 l 464 330 l 231 330 l 231 229 q 267 143 231 178 q 352 107 302 107 l 465 107 l 465 0 l 352 0 q 191 67 258 0 q 123 229 123 134 l 123 330 l 9 330 l 9 438 l 123 438 z "},"Ũ":{"ha":1265,"x_min":88,"x_max":1177,"o":"m 1069 960 l 1177 960 l 1177 298 q 1089 87 1177 175 q 878 0 1001 0 l 387 0 q 176 87 264 0 q 88 298 88 175 l 88 960 l 196 960 l 196 298 q 252 163 196 220 q 387 107 308 107 l 878 107 q 1013 163 957 107 q 1069 298 1069 220 l 1069 960 m 471 1054 l 369 1054 q 502 1202 387 1201 l 505 1202 q 618 1177 547 1202 q 726 1152 686 1152 l 732 1152 q 745 1152 739 1152 q 803 1200 798 1152 l 897 1200 q 734 1051 884 1051 l 726 1051 q 584 1081 669 1051 q 515 1101 541 1101 l 511 1101 q 471 1054 490 1101 z "},"ũ":{"ha":1158,"x_min":88,"x_max":1070,"o":"m 963 661 l 1070 661 l 1070 227 q 1004 66 1070 133 q 844 0 937 0 l 315 0 q 155 66 221 0 q 88 227 88 133 l 88 661 l 196 661 l 196 227 q 231 142 196 177 q 315 107 266 107 l 844 107 q 928 142 893 107 q 963 227 963 177 l 963 661 m 418 755 l 315 755 q 448 903 334 903 l 452 903 q 564 878 494 903 q 672 854 633 854 l 678 854 q 691 853 685 853 q 749 902 745 853 l 843 902 q 681 753 831 753 l 673 753 q 530 783 615 753 q 462 803 488 803 l 457 803 q 418 755 437 803 z "},"Ū":{"ha":1265,"x_min":88,"x_max":1177,"o":"m 1069 960 l 1177 960 l 1177 298 q 1089 87 1177 175 q 878 0 1001 0 l 387 0 q 176 87 264 0 q 88 298 88 175 l 88 960 l 196 960 l 196 298 q 252 163 196 220 q 387 107 308 107 l 878 107 q 1013 163 957 107 q 1069 298 1069 220 l 1069 960 m 406 1163 l 859 1163 l 859 1055 l 406 1055 l 406 1163 z "},"ū":{"ha":1158,"x_min":88,"x_max":1070,"o":"m 963 661 l 1070 661 l 1070 227 q 1004 66 1070 133 q 844 0 937 0 l 315 0 q 155 66 221 0 q 88 227 88 133 l 88 661 l 196 661 l 196 227 q 231 142 196 177 q 315 107 266 107 l 844 107 q 928 142 893 107 q 963 227 963 177 l 963 661 m 353 865 l 806 865 l 806 757 l 353 757 l 353 865 z "},"Ŭ":{"ha":1265,"x_min":88,"x_max":1177,"o":"m 1069 960 l 1177 960 l 1177 298 q 1089 87 1177 175 q 878 0 1001 0 l 387 0 q 176 87 264 0 q 88 298 88 175 l 88 960 l 196 960 l 196 298 q 252 163 196 220 q 387 107 308 107 l 878 107 q 1013 163 957 107 q 1069 298 1069 220 l 1069 960 m 633 1027 q 364 1191 473 1027 l 499 1191 q 633 1124 566 1124 q 766 1191 700 1124 l 901 1191 q 633 1027 793 1027 z "},"ŭ":{"ha":1158,"x_min":88,"x_max":1070,"o":"m 963 661 l 1070 661 l 1070 227 q 1004 66 1070 133 q 844 0 937 0 l 315 0 q 155 66 221 0 q 88 227 88 133 l 88 661 l 196 661 l 196 227 q 231 142 196 177 q 315 107 266 107 l 844 107 q 928 142 893 107 q 963 227 963 177 l 963 661 m 579 729 q 311 892 419 729 l 446 892 q 579 825 513 825 q 713 892 646 825 l 848 892 q 579 729 739 729 z "},"Ů":{"ha":1265,"x_min":88,"x_max":1177,"o":"m 1069 960 l 1177 960 l 1177 298 q 1089 87 1177 175 q 878 0 1001 0 l 387 0 q 176 87 264 0 q 88 298 88 175 l 88 960 l 196 960 l 196 298 q 252 163 196 220 q 387 107 308 107 l 878 107 q 1013 163 957 107 q 1069 298 1069 220 l 1069 960 m 633 1259 q 737 1216 694 1259 q 780 1112 780 1173 q 737 1007 780 1050 q 633 964 694 964 q 529 1007 572 964 q 486 1112 486 1050 q 529 1216 486 1173 q 633 1259 572 1259 m 633 1177 q 587 1158 606 1177 q 568 1112 568 1139 q 587 1066 568 1085 q 633 1046 606 1046 q 679 1066 659 1046 q 698 1112 698 1085 q 679 1158 698 1139 q 633 1177 659 1177 z "},"ů":{"ha":1158,"x_min":88,"x_max":1070,"o":"m 963 661 l 1070 661 l 1070 227 q 1004 66 1070 133 q 844 0 937 0 l 315 0 q 155 66 221 0 q 88 227 88 133 l 88 661 l 196 661 l 196 227 q 231 142 196 177 q 315 107 266 107 l 844 107 q 928 142 893 107 q 963 227 963 177 l 963 661 m 579 960 q 683 917 640 960 q 726 813 726 874 q 683 709 726 752 q 579 666 640 666 q 475 709 518 666 q 432 813 432 752 q 475 917 432 874 q 579 960 518 960 m 579 878 q 533 859 552 878 q 514 813 514 840 q 533 767 514 787 q 579 748 552 748 q 625 767 606 748 q 644 813 644 787 q 625 859 644 840 q 579 878 606 878 z "},"Ű":{"ha":1265,"x_min":88,"x_max":1177,"o":"m 1069 960 l 1177 960 l 1177 298 q 1089 87 1177 175 q 878 0 1001 0 l 387 0 q 176 87 264 0 q 88 298 88 175 l 88 960 l 196 960 l 196 298 q 252 163 196 220 q 387 107 308 107 l 878 107 q 1013 163 957 107 q 1069 298 1069 220 l 1069 960 m 335 1007 l 457 1204 l 626 1204 l 443 1007 l 335 1007 m 640 1007 l 762 1204 l 930 1204 l 747 1007 l 640 1007 z "},"ű":{"ha":1158,"x_min":88,"x_max":1070,"o":"m 963 661 l 1070 661 l 1070 227 q 1004 66 1070 133 q 844 0 937 0 l 315 0 q 155 66 221 0 q 88 227 88 133 l 88 661 l 196 661 l 196 227 q 231 142 196 177 q 315 107 266 107 l 844 107 q 928 142 893 107 q 963 227 963 177 l 963 661 m 281 709 l 404 906 l 572 906 l 389 709 l 281 709 m 586 709 l 708 906 l 877 906 l 694 709 l 586 709 z "},"Ų":{"ha":1265,"x_min":88,"x_max":1177,"o":"m 1069 960 l 1177 960 l 1177 298 q 1089 87 1177 175 q 878 0 1001 0 l 387 0 q 176 87 264 0 q 88 298 88 175 l 88 960 l 196 960 l 196 298 q 252 163 196 220 q 387 107 308 107 l 878 107 q 1013 163 957 107 q 1069 298 1069 220 l 1069 960 m 884 0 q 839 -51 859 -24 q 812 -114 819 -78 q 810 -135 810 -125 q 820 -176 810 -160 q 862 -197 833 -197 q 894 -193 878 -197 q 924 -181 910 -189 l 924 -261 q 857 -277 899 -277 q 796 -267 822 -277 q 753 -240 770 -257 q 727 -200 736 -222 q 719 -152 719 -178 q 743 -66 719 -109 q 794 0 767 -24 l 884 0 z "},"ų":{"ha":1158,"x_min":88,"x_max":1070,"o":"m 963 661 l 1070 661 l 1070 227 q 1004 66 1070 133 q 844 0 937 0 l 315 0 q 155 66 221 0 q 88 227 88 133 l 88 661 l 196 661 l 196 227 q 231 142 196 177 q 315 107 266 107 l 844 107 q 928 142 893 107 q 963 227 963 177 l 963 661 m 985 50 q 940 -1 960 26 q 913 -64 920 -28 q 911 -85 911 -75 q 921 -125 911 -110 q 963 -147 935 -147 q 995 -143 979 -147 q 1025 -131 1011 -138 l 1025 -211 q 958 -227 1000 -227 q 897 -217 923 -227 q 854 -190 871 -207 q 828 -150 837 -172 q 820 -102 820 -127 q 844 -16 820 -58 q 895 50 868 26 l 985 50 z "},"Ŵ":{"ha":1787,"x_min":88,"x_max":1699,"o":"m 1591 960 l 1699 960 l 1699 298 q 1611 87 1699 175 q 1400 0 1524 0 l 1139 0 q 893 128 983 0 q 648 0 804 0 l 387 0 q 176 87 263 0 q 88 298 88 175 l 88 960 l 195 960 l 195 298 q 252 163 195 220 q 387 107 308 107 l 648 107 q 783 163 728 107 q 840 298 840 220 l 840 960 l 947 960 l 947 298 q 1004 163 947 220 q 1139 107 1059 107 l 1400 107 q 1535 163 1479 107 q 1591 298 1591 220 l 1591 960 m 979 1204 l 1156 1007 l 1007 1007 l 894 1141 l 781 1007 l 632 1007 l 808 1204 l 979 1204 z "},"ŵ":{"ha":1421,"x_min":88,"x_max":1333,"o":"m 1225 661 l 1333 661 l 1333 298 q 1245 87 1333 175 q 1034 0 1158 0 l 956 0 q 710 128 800 0 q 465 0 621 0 l 387 0 q 176 87 263 0 q 88 298 88 175 l 88 661 l 195 661 l 195 298 q 252 163 195 220 q 387 107 308 107 l 465 107 q 600 163 545 107 q 656 298 656 220 l 656 661 l 764 661 l 764 298 q 821 163 764 220 q 956 107 876 107 l 1034 107 q 1169 163 1113 107 q 1225 298 1225 220 l 1225 661 m 796 906 l 972 709 l 824 709 l 711 843 l 597 709 l 449 709 l 625 906 l 796 906 z "},"Ŷ":{"ha":1265,"x_min":88,"x_max":1177,"o":"m 1069 960 l 1177 960 l 1177 298 q 1088 87 1177 175 q 878 0 1001 0 l 88 0 l 88 107 l 878 107 q 1013 163 956 107 q 1069 298 1069 220 l 1069 458 q 878 389 985 389 l 387 389 q 176 477 263 389 q 88 742 88 564 l 88 960 l 196 960 l 196 742 q 252 553 196 609 q 387 496 308 496 l 878 496 q 1013 553 956 496 q 1069 742 1069 609 l 1069 960 m 718 1204 l 895 1007 l 746 1007 l 633 1141 l 519 1007 l 371 1007 l 547 1204 l 718 1204 z "},"ŷ":{"ha":1100,"x_min":7,"x_max":1093,"o":"m 140 661 l 551 103 l 960 661 l 1093 661 l 627 24 l 457 -207 q 265 -298 390 -298 q 147 -269 201 -298 l 100 -243 l 151 -149 l 198 -174 q 264 -191 229 -191 q 293 -189 278 -191 q 370 -143 344 -180 l 484 12 l 7 661 l 140 661 m 635 906 l 812 709 l 663 709 l 550 843 l 437 709 l 288 709 l 465 906 l 635 906 z "},"Ÿ":{"ha":1265,"x_min":88,"x_max":1177,"o":"m 1069 960 l 1177 960 l 1177 298 q 1088 87 1177 175 q 878 0 1001 0 l 88 0 l 88 107 l 878 107 q 1013 163 956 107 q 1069 298 1069 220 l 1069 458 q 878 389 985 389 l 387 389 q 176 477 263 389 q 88 742 88 564 l 88 960 l 196 960 l 196 742 q 252 553 196 609 q 387 496 308 496 l 878 496 q 1013 553 956 496 q 1069 742 1069 609 l 1069 960 m 452 1190 l 560 1190 l 560 1082 l 452 1082 l 452 1190 m 705 1190 l 813 1190 l 813 1082 l 705 1082 l 705 1190 z "},"Ź":{"ha":1181,"x_min":88,"x_max":1093,"o":"m 919 960 q 1045 918 997 960 q 1093 808 1093 876 l 1093 760 q 945 588 1093 668 l 942 587 l 287 276 q 273 269 282 274 q 196 199 196 228 l 196 150 q 262 107 196 107 l 1068 107 l 1068 0 l 262 0 q 136 41 184 0 q 88 150 88 83 l 88 199 q 134 306 88 261 q 223 364 161 332 l 239 373 l 895 684 q 985 760 985 732 l 985 808 q 919 852 985 852 l 113 852 l 113 960 l 919 960 m 494 1007 l 616 1204 l 785 1204 l 602 1007 l 494 1007 z "},"ź":{"ha":1111,"x_min":88,"x_max":1023,"o":"m 859 661 q 975 623 928 661 q 1023 530 1023 585 l 1023 527 q 878 395 1023 450 l 259 160 q 208 135 217 144 q 202 125 202 130 q 208 114 202 119 q 242 106 219 106 q 253 107 247 106 l 1000 107 l 1000 0 l 253 0 q 136 38 184 0 q 88 132 88 76 l 88 134 q 134 219 88 185 q 221 261 160 238 l 234 266 l 840 496 q 904 537 904 522 l 904 538 q 859 553 900 553 l 111 553 l 111 661 l 859 661 m 458 709 l 581 906 l 749 906 l 566 709 l 458 709 z "},"Ż":{"ha":1181,"x_min":88,"x_max":1093,"o":"m 919 960 q 1045 918 997 960 q 1093 808 1093 876 l 1093 760 q 945 588 1093 668 l 942 587 l 287 276 q 273 269 282 274 q 196 199 196 228 l 196 150 q 262 107 196 107 l 1068 107 l 1068 0 l 262 0 q 136 41 184 0 q 88 150 88 83 l 88 199 q 134 306 88 261 q 223 364 161 332 l 239 373 l 895 684 q 985 760 985 732 l 985 808 q 919 852 985 852 l 113 852 l 113 960 l 919 960 m 536 1190 l 645 1190 l 645 1082 l 536 1082 l 536 1190 z "},"ż":{"ha":1111,"x_min":88,"x_max":1023,"o":"m 859 661 q 975 623 928 661 q 1023 530 1023 585 l 1023 527 q 878 395 1023 450 l 259 160 q 208 135 217 144 q 202 125 202 130 q 208 114 202 119 q 242 106 219 106 q 253 107 247 106 l 1000 107 l 1000 0 l 253 0 q 136 38 184 0 q 88 132 88 76 l 88 134 q 134 219 88 185 q 221 261 160 238 l 234 266 l 840 496 q 904 537 904 522 l 904 538 q 859 553 900 553 l 111 553 l 111 661 l 859 661 m 501 892 l 610 892 l 610 783 l 501 783 l 501 892 z "},"Ž":{"ha":1181,"x_min":88,"x_max":1093,"o":"m 919 960 q 1045 918 997 960 q 1093 808 1093 876 l 1093 760 q 945 588 1093 668 l 942 587 l 287 276 q 273 269 282 274 q 196 199 196 228 l 196 150 q 262 107 196 107 l 1068 107 l 1068 0 l 262 0 q 136 41 184 0 q 88 150 88 83 l 88 199 q 134 306 88 261 q 223 364 161 332 l 239 373 l 895 684 q 985 760 985 732 l 985 808 q 919 852 985 852 l 113 852 l 113 960 l 919 960 m 505 1007 l 329 1204 l 477 1204 l 591 1070 l 704 1204 l 852 1204 l 676 1007 l 505 1007 z "},"ž":{"ha":1111,"x_min":88,"x_max":1023,"o":"m 859 661 q 975 623 928 661 q 1023 530 1023 585 l 1023 527 q 878 395 1023 450 l 259 160 q 208 135 217 144 q 202 125 202 130 q 208 114 202 119 q 242 106 219 106 q 253 107 247 106 l 1000 107 l 1000 0 l 253 0 q 136 38 184 0 q 88 132 88 76 l 88 134 q 134 219 88 185 q 221 261 160 238 l 234 266 l 840 496 q 904 537 904 522 l 904 538 q 859 553 900 553 l 111 553 l 111 661 l 859 661 m 470 709 l 294 906 l 442 906 l 555 772 l 669 906 l 817 906 l 641 709 l 470 709 z "},"ſ":{"ha":375,"x_min":104,"x_max":368,"o":"m 104 692 q 136 819 104 757 q 368 959 202 951 l 368 857 q 228 777 267 851 q 205 691 205 735 l 205 -251 l 104 -251 l 104 692 z "},"⁰":{"ha":842,"x_min":88,"x_max":753,"o":"m 545 960 q 692 899 631 960 q 753 750 753 837 l 753 497 q 692 349 753 410 q 545 288 631 288 l 298 288 q 149 349 211 288 q 88 497 88 410 l 88 750 q 149 899 88 837 q 298 960 211 960 l 545 960 m 678 750 q 640 845 678 806 q 545 884 600 884 l 298 884 q 203 845 242 884 q 163 750 163 806 l 163 497 q 203 402 163 441 q 298 363 242 363 l 545 363 q 640 402 600 363 q 678 497 678 441 l 678 750 z "},"ⁱ":{"ha":266,"x_min":95,"x_max":171,"o":"m 95 751 l 170 751 l 170 288 l 95 288 l 95 751 m 95 960 l 171 960 l 171 884 l 95 884 l 95 960 z "},"⁴":{"ha":1011,"x_min":88,"x_max":923,"o":"m 781 513 l 923 513 l 923 438 l 781 438 l 781 288 l 705 288 l 705 438 l 148 438 q 92 477 106 438 q 88 498 88 487 q 91 515 88 506 q 112 544 96 533 l 686 948 q 722 960 703 960 q 746 955 734 960 q 781 901 781 939 l 781 513 m 708 875 l 197 517 l 708 517 l 708 875 z "},"⁵":{"ha":863,"x_min":88,"x_max":774,"o":"m 774 884 l 163 884 l 163 673 l 652 673 q 739 637 703 673 q 774 551 774 602 l 774 410 q 739 323 774 359 q 652 288 703 288 l 88 288 l 88 363 l 652 363 q 685 376 671 363 q 699 410 699 391 l 699 551 q 685 584 699 570 q 652 597 671 597 l 88 597 l 88 960 l 774 960 l 774 884 z "},"⁶":{"ha":798,"x_min":88,"x_max":710,"o":"m 88 838 q 124 924 88 888 q 210 960 160 960 l 710 960 l 710 884 l 210 884 q 178 871 191 884 q 163 838 163 857 l 163 673 l 588 673 q 675 637 638 673 q 710 551 710 602 l 710 410 q 675 323 710 359 q 588 288 638 288 l 210 288 q 124 323 160 288 q 88 410 88 359 l 88 838 m 163 597 l 163 410 q 178 376 163 391 q 210 363 191 363 l 588 363 q 621 376 608 363 q 635 410 635 391 l 635 551 q 621 584 635 570 q 588 597 608 597 l 163 597 z "},"⁷":{"ha":842,"x_min":88,"x_max":754,"o":"m 692 981 q 745 952 728 981 q 754 922 754 937 q 743 888 754 905 l 312 294 l 251 338 l 662 906 l 88 906 l 88 981 l 692 981 z "},"⁸":{"ha":830,"x_min":88,"x_max":742,"o":"m 621 960 q 706 924 671 960 q 742 838 742 888 l 742 720 q 708 635 742 671 q 742 551 742 600 l 742 410 q 706 323 742 359 q 621 288 671 288 l 210 288 q 124 323 160 288 q 88 410 88 359 l 88 551 q 122 635 88 600 q 88 720 88 671 l 88 838 q 124 924 88 888 q 210 960 160 960 l 621 960 m 163 720 q 178 687 163 700 q 210 673 191 673 l 621 673 q 653 687 640 673 q 667 720 667 700 l 667 838 q 653 871 667 857 q 621 884 640 884 l 210 884 q 178 871 191 884 q 163 838 163 857 l 163 720 m 667 551 q 653 584 667 570 q 621 597 640 597 l 210 597 q 178 584 191 597 q 163 551 163 570 l 163 410 q 178 376 163 391 q 210 363 191 363 l 621 363 q 653 376 640 363 q 667 410 667 391 l 667 551 z "},"⁹":{"ha":798,"x_min":88,"x_max":710,"o":"m 588 960 q 675 924 638 960 q 710 838 710 888 l 710 410 q 675 323 710 359 q 588 288 638 288 l 88 288 l 88 363 l 588 363 q 621 376 608 363 q 635 410 635 391 l 635 574 l 210 574 q 124 610 160 574 q 88 696 88 646 l 88 838 q 124 924 88 888 q 210 960 160 960 l 588 960 m 635 838 q 621 871 635 857 q 588 884 608 884 l 210 884 q 178 871 191 884 q 163 838 163 857 l 163 696 q 178 663 163 677 q 210 650 191 650 l 635 650 l 635 838 z "},"⁺":{"ha":694,"x_min":88,"x_max":606,"o":"m 385 614 l 606 614 l 606 539 l 385 539 l 385 343 l 310 343 l 310 539 l 88 539 l 88 614 l 310 614 l 310 811 l 385 811 l 385 614 z "},"⁻":{"ha":552,"x_min":88,"x_max":464,"o":"m 88 535 l 464 535 l 464 460 l 88 460 l 88 535 z "},"⁼":{"ha":552,"x_min":88,"x_max":464,"o":"m 88 481 l 464 481 l 464 406 l 88 406 l 88 481 m 88 671 l 464 671 l 464 595 l 88 595 l 88 671 z "},"⁽":{"ha":386,"x_min":88,"x_max":298,"o":"m 88 788 q 138 909 88 859 q 260 960 189 960 l 298 960 l 298 884 l 260 884 q 192 856 220 884 q 163 788 163 827 l 163 270 q 192 201 163 230 q 260 173 220 173 l 298 173 l 298 98 l 260 98 q 138 149 189 98 q 88 270 88 199 l 88 788 z "},"⁾":{"ha":386,"x_min":88,"x_max":298,"o":"m 298 270 q 248 149 298 199 q 125 98 197 98 l 88 98 l 88 173 l 125 173 q 194 201 165 173 q 222 270 222 230 l 222 788 q 194 856 222 827 q 125 884 165 884 l 88 884 l 88 960 l 125 960 q 248 909 197 960 q 298 788 298 859 l 298 270 z "},"₀":{"ha":842,"x_min":88,"x_max":753,"o":"m 545 336 q 692 275 631 336 q 753 126 753 213 l 753 -127 q 692 -275 753 -214 q 545 -336 631 -336 l 298 -336 q 149 -275 211 -336 q 88 -127 88 -214 l 88 126 q 149 275 88 213 q 298 336 211 336 l 545 336 m 678 126 q 640 221 678 182 q 545 260 600 260 l 298 260 q 203 221 242 260 q 163 126 163 182 l 163 -127 q 203 -222 163 -182 q 298 -261 242 -261 l 545 -261 q 640 -222 600 -261 q 678 -127 678 -182 l 678 126 z "},"₁":{"ha":454,"x_min":88,"x_max":366,"o":"m 328 332 q 366 277 366 317 l 366 -336 l 291 -336 l 291 228 l 149 37 l 88 82 l 261 313 q 291 334 273 329 q 307 336 298 336 q 328 332 317 336 z "},"₂":{"ha":863,"x_min":88,"x_max":774,"o":"m 163 -261 l 774 -260 l 774 -336 l 88 -336 l 88 -78 q 125 12 88 -26 q 215 49 162 49 l 652 49 q 685 62 671 49 q 699 95 699 76 l 699 214 q 685 247 699 233 q 652 260 671 260 l 105 260 l 105 336 l 652 336 q 738 300 703 336 q 774 214 774 264 l 774 95 q 738 9 774 45 q 652 -26 703 -26 l 215 -26 q 178 -41 193 -26 q 163 -78 163 -57 l 163 -261 z "},"₃":{"ha":798,"x_min":88,"x_max":710,"o":"m 588 336 q 675 300 638 336 q 710 214 710 264 l 710 96 q 676 11 710 47 q 710 -73 710 -24 l 710 -214 q 675 -300 710 -264 q 588 -336 638 -336 l 88 -336 l 88 -261 l 588 -261 q 621 -248 608 -261 q 635 -214 635 -233 l 635 -73 q 621 -40 635 -54 q 588 -26 608 -26 l 113 -26 l 113 49 l 588 49 q 621 62 608 49 q 635 96 635 76 l 635 214 q 621 247 635 233 q 588 260 608 260 l 88 260 l 88 336 l 588 336 z "},"₄":{"ha":1011,"x_min":88,"x_max":923,"o":"m 781 -111 l 923 -111 l 923 -186 l 781 -186 l 781 -336 l 705 -336 l 705 -186 l 148 -186 q 92 -147 106 -186 q 88 -126 88 -137 q 91 -109 88 -118 q 112 -80 96 -91 l 686 324 q 722 336 703 336 q 746 331 734 336 q 781 277 781 315 l 781 -111 m 708 251 l 197 -106 l 708 -106 l 708 251 z "},"₅":{"ha":863,"x_min":88,"x_max":774,"o":"m 774 260 l 163 260 l 163 49 l 652 49 q 739 14 703 49 q 774 -73 774 -22 l 774 -214 q 739 -300 774 -264 q 652 -336 703 -336 l 88 -336 l 88 -261 l 652 -261 q 685 -248 671 -261 q 699 -214 699 -233 l 699 -73 q 685 -40 699 -54 q 652 -26 671 -26 l 88 -26 l 88 336 l 774 336 l 774 260 z "},"₆":{"ha":798,"x_min":88,"x_max":710,"o":"m 88 214 q 124 300 88 264 q 210 336 160 336 l 710 336 l 710 260 l 210 260 q 178 247 191 260 q 163 214 163 233 l 163 49 l 588 49 q 675 14 638 49 q 710 -73 710 -22 l 710 -214 q 675 -300 710 -264 q 588 -336 638 -336 l 210 -336 q 124 -300 160 -336 q 88 -214 88 -264 l 88 214 m 163 -26 l 163 -214 q 178 -248 163 -233 q 210 -261 191 -261 l 588 -261 q 621 -248 608 -261 q 635 -214 635 -233 l 635 -73 q 621 -40 635 -54 q 588 -26 608 -26 l 163 -26 z "},"₇":{"ha":842,"x_min":88,"x_max":754,"o":"m 692 343 q 745 314 728 343 q 754 284 754 298 q 743 250 754 267 l 312 -344 l 251 -300 l 662 268 l 88 268 l 88 343 l 692 343 z "},"₈":{"ha":830,"x_min":88,"x_max":742,"o":"m 621 336 q 706 300 671 336 q 742 214 742 264 l 742 96 q 708 12 742 47 q 742 -73 742 -24 l 742 -214 q 706 -300 742 -264 q 621 -336 671 -336 l 210 -336 q 124 -300 160 -336 q 88 -214 88 -264 l 88 -73 q 122 12 88 -24 q 88 96 88 47 l 88 214 q 124 300 88 264 q 210 336 160 336 l 621 336 m 163 96 q 178 63 163 76 q 210 49 191 49 l 621 49 q 653 63 640 49 q 667 96 667 76 l 667 214 q 653 247 667 233 q 621 260 640 260 l 210 260 q 178 247 191 260 q 163 214 163 233 l 163 96 m 667 -73 q 653 -40 667 -54 q 621 -26 640 -26 l 210 -26 q 178 -40 191 -26 q 163 -73 163 -54 l 163 -214 q 178 -248 163 -233 q 210 -261 191 -261 l 621 -261 q 653 -248 640 -261 q 667 -214 667 -233 l 667 -73 z "},"₉":{"ha":798,"x_min":88,"x_max":710,"o":"m 588 336 q 675 300 638 336 q 710 214 710 264 l 710 -214 q 675 -300 710 -264 q 588 -336 638 -336 l 88 -336 l 88 -261 l 588 -261 q 621 -248 608 -261 q 635 -214 635 -233 l 635 -50 l 210 -50 q 124 -14 160 -50 q 88 73 88 22 l 88 214 q 124 300 88 264 q 210 336 160 336 l 588 336 m 635 214 q 621 247 635 233 q 588 260 608 260 l 210 260 q 178 247 191 260 q 163 214 163 233 l 163 73 q 178 39 163 54 q 210 26 191 26 l 635 26 l 635 214 z "},"₊":{"ha":694,"x_min":88,"x_max":606,"o":"m 385 37 l 606 37 l 606 -38 l 385 -38 l 385 -234 l 310 -234 l 310 -38 l 88 -38 l 88 37 l 310 37 l 310 234 l 385 234 l 385 37 z "},"₋":{"ha":552,"x_min":88,"x_max":464,"o":"m 88 38 l 464 38 l 464 -37 l 88 -37 l 88 38 z "},"₌":{"ha":552,"x_min":88,"x_max":464,"o":"m 88 -57 l 464 -57 l 464 -132 l 88 -132 l 88 -57 m 88 133 l 464 133 l 464 58 l 88 58 l 88 133 z "},"₍":{"ha":386,"x_min":88,"x_max":298,"o":"m 88 395 q 138 516 88 466 q 260 566 189 566 l 298 566 l 298 491 l 260 491 q 192 463 220 491 q 163 395 163 434 l 163 -123 q 192 -192 163 -163 q 260 -220 220 -220 l 298 -220 l 298 -295 l 260 -295 q 138 -245 189 -295 q 88 -123 88 -195 l 88 395 z "},"₎":{"ha":386,"x_min":88,"x_max":298,"o":"m 298 -123 q 248 -245 298 -195 q 125 -295 197 -295 l 88 -295 l 88 -220 l 125 -220 q 194 -192 165 -220 q 222 -123 222 -163 l 222 395 q 194 463 222 434 q 125 491 165 491 l 88 491 l 88 566 l 125 566 q 248 516 197 566 q 298 395 298 466 l 298 -123 z "},"‰":{"ha":2233,"x_min":75,"x_max":2159,"o":"m 477 994 q 633 945 568 994 q 699 823 699 895 l 699 633 q 633 511 699 562 q 477 463 568 463 l 298 463 q 141 511 207 463 q 75 633 75 562 l 75 823 q 141 945 75 895 q 298 994 207 994 l 477 994 m 597 823 q 564 884 597 858 q 477 910 528 910 l 298 910 q 211 884 246 910 q 177 823 177 858 l 177 633 q 211 573 177 598 q 298 546 246 546 l 477 546 q 564 573 528 546 q 597 633 597 598 l 597 823 m 340 -41 l 1076 993 l 1192 993 l 456 -41 l 340 -41 m 1234 497 q 1390 448 1325 497 q 1457 326 1457 398 l 1457 136 q 1390 15 1457 64 q 1234 -34 1325 -34 l 1055 -34 q 899 15 964 -34 q 832 136 832 64 l 832 326 q 899 448 832 398 q 1055 497 964 497 l 1234 497 m 1354 326 q 1321 387 1354 361 q 1234 414 1285 414 l 1055 414 q 968 387 1004 414 q 935 326 935 361 l 935 136 q 968 76 935 102 q 1055 50 1004 50 l 1234 50 q 1321 76 1285 50 q 1354 136 1354 102 l 1354 326 m 1936 497 q 2092 448 2027 497 q 2159 326 2159 398 l 2159 136 q 2092 15 2159 64 q 1936 -34 2027 -34 l 1757 -34 q 1600 15 1666 -34 q 1534 136 1534 64 l 1534 326 q 1600 448 1534 398 q 1757 497 1666 497 l 1936 497 m 2056 326 q 2023 387 2056 361 q 1936 414 1987 414 l 1757 414 q 1670 387 1706 414 q 1636 326 1636 361 l 1636 136 q 1670 76 1636 102 q 1757 50 1706 50 l 1936 50 q 2023 76 1987 50 q 2056 136 2056 102 l 2056 326 z "},"₺":{"ha":795,"x_min":52,"x_max":760,"o":"m 52 644 l 248 715 l 248 966 l 304 966 l 304 736 l 618 850 l 638 797 l 304 675 l 304 555 l 618 669 l 638 616 l 304 494 l 304 60 l 332 63 q 595 188 494 85 q 703 457 703 296 l 703 486 l 760 486 l 760 455 q 618 130 760 257 q 277 1 481 9 l 248 1 l 248 474 l 71 410 l 52 463 l 248 534 l 248 654 l 71 591 l 52 644 z "}}}
